<svg version="1.1" id="Layer_1" xmlns="http://www.w3.org/2000/svg" xmlns:xlink="http://www.w3.org/1999/xlink" x="0px" y="0px"
	 viewBox="0 0 364.1 285.7" style="enable-background:new 0 0 364.1 285.7;" xml:space="preserve">
<g>
	
		<rect x="101.9" y="242.9" transform="matrix(0.7071 -0.7071 0.7071 0.7071 -147.6334 162.5376)" style="fill:#F8F8F8;" width="40.9" height="33.2"/>
	<path style="fill:#F8F8F8;" d="M228.8,0c-50.1,0-90.6,40.6-90.7,90.6c0,17.2,4.9,34,14.1,48.5l-108,108l30.5,30.5l76-76l32.7-32.7
		c43.3,25.1,98.8,10.3,123.9-33c25.1-43.3,10.3-98.8-33-123.9C260.4,4.2,244.7,0,228.8,0 M228.8,135.4c-24.7,0-44.7-20-44.7-44.7
		c0-24.7,20-44.7,44.7-44.7c24.7,0,44.7,20,44.7,44.7v0C273.5,115.4,253.5,135.4,228.8,135.4"/>
	<path style="fill:#FFF8D3;" d="M18,238.6c0,0-30.5-37.8-12.2-73.8s53.1-27.4,101.9-64c59.2-44.4,100.8-46.9,153.7-27.4
		c29.9,11,34.8,56.1,82.3,84.2c42.9,25.3,7.9,68.3-14.6,75s-37.8,6.7-37.8,6.7L18,238.6z"/>
	<path style="fill:#EDE5F2;" d="M199.6,157.3c-7.6,15.5-17.2,57.7-19.8,60s-17.6,11.3-20.2,15.6s-1.4,2.9-0.3,3.2s66.5,0.6,66.5,0.6
		s-7.5-44.8-8.4-45.1S199.6,157.3,199.6,157.3"/>
	<g>
		<defs>
			<rect id="SVGID_1_" x="188.8" y="157.3" width="31.6" height="79.3"/>
		</defs>
		<clipPath id="SVGID_00000099624523469805008070000011063731779839436451_">
			<use xlink:href="#SVGID_1_"  style="overflow:visible;"/>
		</clipPath>
		<path style="clip-path:url(#SVGID_00000099624523469805008070000011063731779839436451_);fill:#EDE5F2;" d="M188.8,236.4
			c12,0.1,24.7,0.1,31.6,0.2l-9.5-57.1c-5.1-9.9-11.3-22.2-11.3-22.2c-1,1.9-1.9,4.3-3,7c-1,42.9,5.2,54.9,0.5,62.5
			C193.6,232.8,190.3,235.4,188.8,236.4"/>
	</g>
	<path style="fill:#AE00A9;" d="M324.5,239.5H10.6c-1.3,0.1-2.5-1-2.5-2.3s1-2.5,2.3-2.5l0.1,0h314c1.3-0.1,2.5,1,2.5,2.3
		s-1,2.5-2.3,2.5l-0.1,0H324.5"/>
	<path style="fill:#EDE5F2;" d="M239.7,138.6c10.9,10,35,19.5,35,19.5s3.7,33.9,1.2,53.1s-1.1,23.1-1.1,23.1h-49.8
		c0,0-6.7-9.3-18.9-38.1c-7.8-18.4-6.4-39-6.4-39l30.3-13.6L239.7,138.6z"/>
	<g>
		<defs>
			<rect id="SVGID_00000071551794005174339610000015225040501377403032_" x="218.9" y="159.1" width="57.8" height="75.3"/>
		</defs>
		<clipPath id="SVGID_00000013180952362831538070000010285766038481685380_">
			<use xlink:href="#SVGID_00000071551794005174339610000015225040501377403032_"  style="overflow:visible;"/>
		</clipPath>
		<path style="clip-path:url(#SVGID_00000013180952362831538070000010285766038481685380_);fill:#EDE5F2;" d="M224.9,234.4h49.8
			c0,0-1.4-3.9,1.1-23.1c2.1-15.8-0.1-41.6-0.9-50.2l-4.5-1.9c-11.4,3.3-17.9,20.2-19.9,36.8c-1.3,11.1-19.7,22-31.7,28
			C220.7,227.5,222.7,231,224.9,234.4"/>
	</g>
	<path style="fill:#272F65;" d="M212.7,103.8c-6,13.4,1.2,25.8,1,25.2s9.1-22.6,9.1-22.6L212.7,103.8z"/>
	<path style="fill:#F19959;" d="M235.5,113.7l7.6,27.8c0.2,0.8,0,1.6-0.5,2.3c-1.8,2.2-4.3,6.7-9.5,8.2c-1.1,0.3-2.1,0.4-3.2,0.4
		c-1,0-1.9-0.7-2.1-1.8l-5.1-26.4L235.5,113.7z"/>
	<path style="fill:#E38440;" d="M234,116l-2.8,1.1l-8.6,7l4.6,23.4C235.1,142.7,236.2,139.4,234,116"/>
	<path style="fill:#F19959;" d="M235.2,126c-1.7,9.2-8.5,15.4-15.3,13.8s-10-7.4-9.2-19.3c0.6-9.3,5.2-19.5,12-17.9
		C229.5,104.1,236.9,116.8,235.2,126"/>
	<path style="fill:#EDE5F2;" d="M274.7,158.1c10.1,2.3,12,22.8,15.2,44.3c0.4,2.5,2.3,23.5,2.3,23.5c0,2.5-1.4,4.7-3.7,5.8
		c-3.3,1.6-4.6,2.9-23.7,3.1c-18.3,0.2-42-0.6-42-0.6s-0.2-6.8,1.7-10.2c2.8-5,31.8-12.2,34.5-12.6c0.4-5.4-2.7-24.9,1.5-38.2
		c2.9-9.1,6-13.9,9.9-15.1C271.9,157.8,273.3,157.8,274.7,158.1"/>
	<g>
		<defs>
			<rect id="SVGID_00000142892307221307554060000003832935903347297214_" x="233.3" y="162.7" width="59.4" height="72.2"/>
		</defs>
		<clipPath id="SVGID_00000052081613318754841870000016001089785288595374_">
			<use xlink:href="#SVGID_00000142892307221307554060000003832935903347297214_"  style="overflow:visible;"/>
		</clipPath>
		<path style="clip-path:url(#SVGID_00000052081613318754841870000016001089785288595374_);fill:#EDE5F2;" d="M233.3,234.7
			c9,0.1,21.4,0.3,31.6,0.2c19.1-0.2,20.4-1.4,23.7-3.1c2.2-0.9,3.7-2.9,4-5.2c0,0-1.9-22.4-2.3-24.9c-2.1-14.5-4.4-31-9.7-39
			c3.6,10.4,5.6,21.4,5.9,32.4c0.1,3-0.2,6-1,8.9c-0.9,2.8-3.1,4.6-6.6,3.7c-6.9-1.9-15.6,2.1-15.6,2.1s6.6-2.3,12.7-0.2
			s18.9,16.2,5,21.4C276.8,232.6,251.4,233.9,233.3,234.7"/>
	</g>
	<path style="fill:#E38440;" d="M226.1,224.8c1.7-2.7,4.7-4.3,7.8-4.4c5.3,0,4.9,8.6,4.1,11.4c-0.5,1.7-2.1,2.9-3.9,3l-11.3-0.5
		L226.1,224.8z"/>
	<path style="fill:#A7C5E8;" d="M214.7,236.8h-71.3c-1.1,0-2-0.9-2-2v-0.6c0-1.1,0.9-2,2-2h71.3c1.1,0,2,0.9,2,2v0.6
		C216.6,235.9,215.7,236.8,214.7,236.8"/>
	<path style="fill:#F19959;" d="M224.7,225.3c-11.1-4-14-2.5-16.5-3.2c-6.2-1.8-7.7-0.3-11.7,10.7c-0.8,2.2,1.5,2.3,3.9,2.3
		s5.1-4.5,6-5c1.1-0.4,2.2-0.7,3.3-0.8c0,0-0.8,0-1.9,2.3s-2.6,3.2-0.8,3.2s2.1-3,5.4-2.3s2.1,2.3,10.4,2.2s14.7,0,14.5-5
		c-0.1-4.8,0.4-7.1-4.1-8C229.9,221.1,224.7,225.3,224.7,225.3"/>
	<path style="fill:#476D9B;" d="M224.9,225.3c7.4-0.8,5.2,8.4,4.5,9.1s4.1,0.3,4.1,0.3c1.4-2.4,1.5-5.4,0.4-7.9
		c-1-2.4-3.2-4.1-5.8-4.4l-3.3,1.8L224.9,225.3z"/>
	<path style="fill:#2E5B9A;" d="M232.6,224.5c-0.1,1.1-2,1.9-4.3,1.7s-4.1-1.3-4-2.4s2-1.9,4.3-1.7S232.7,223.4,232.6,224.5"/>
	<path style="fill:#272F65;" d="M232,223.9c-0.1,1-1.8,1.7-3.9,1.5s-3.6-1.1-3.6-2.2s1.8-1.7,3.9-1.5
		C230.5,221.9,232.1,222.9,232,223.9"/>
	<path style="fill:#FFF8D3;" d="M230.7,223.4c-0.1,0.7-1.3,1.2-2.8,1.1s-2.6-0.8-2.6-1.6s1.3-1.2,2.8-1.1S230.8,222.7,230.7,223.4"
		/>
	<path style="fill:#476D9B;" d="M140.7,222.6H68.9c-3.8,0-7-2.8-7.7-6.5l-9.4-51.7c-0.8-4.3,2-8.4,6.3-9.2c0.5-0.1,0.9-0.1,1.4-0.1
		h71.8c3.8,0,7,2.8,7.7,6.5l9.4,51.7c0.8,4.3-2,8.4-6.3,9.2C141.7,222.6,141.2,222.6,140.7,222.6"/>
	<path style="fill:#A7C5E8;" d="M144.1,213.5l-9.6-50.6c-0.8-3.7-4.1-6.4-7.9-6.4h-73c-1.6,1.9-2.3,4.3-1.8,6.8l9.7,52.8
		c0.7,3.8,4.1,6.6,8,6.6h66.7c4.3,0.1,7.9-3.4,8-7.7C144.2,214.4,144.2,213.9,144.1,213.5"/>
	<path style="fill:#476D9B;" d="M126.8,229.6h-13.6c-2.5-0.1-4.5-2.3-4.4-4.8v-24.9c0-4.3-3.1-7.7-7-7.7h-7.1c-3.9,0-7,3.4-7,7.7
		v27.9c0,4.8,3.5,8.6,7.9,8.6l37.2-0.3C132.7,232.5,130.1,229.6,126.8,229.6"/>
	<path style="fill:#A7C5E8;" d="M88.1,200.4v27.5c0,4.4,3.4,8.1,7.9,8.5l36.3-0.2c0-0.6-2.9-1.7-6.4-1.7h-14.8
		c-2.6,0-4.8-2.1-4.8-4.8v-29.3c0-4.2-3.4-7.6-7.6-7.6h-3.1C91.5,192.8,88.1,196.2,88.1,200.4L88.1,200.4z"/>
	<path style="fill:#F19959;" d="M164.2,226.4c5.5-3.1,12.2-2,14.6,1s2.8,5.1-2.6,5.1s-16.5,0.4-18.3,0.2S164.2,226.4,164.2,226.4"/>
	<path style="fill:#F19959;" d="M172.3,224.6c5.9-1.4,9.9,2,14.8,5.3c4.3,2.8,5.1,5.6,0.4,3.3c-6.9-3.5-11-3.9-11-3.9L172.3,224.6z"
		/>
	<path style="fill:#F19959;" d="M166.9,226.4c-3,0-5.6-0.9-7.7-0.8s-8.8,7-7.7,7.5l0.2,0.1c1.6,0.6,3.4-0.1,4.3-1.5
		c0.9-1.5,2.5-3.3,4.3-2.6c2,0.6,4,1,6.1,0.9L166.9,226.4z"/>
	<path style="fill:#F5A870;" d="M165.2,233.7c-3.1-1.2,1.8-11.4,3.5-11.4c1.6,0,7.7,4.9,7.7,4.9s-1.4,0.8-6.3-0.8
		c-1.2-0.4-2.2,6.5-3.7,7.3C165,234.5,165.2,233.7,165.2,233.7"/>
	<path style="fill:#272F65;" d="M210.7,125.8c-0.3,11.2,3.5,13.1,6.2,14.6s14.2-1,15.8-3.8c4.3-7.1,0.7-13.7,1.6-13.6
		c1,0.1,1.8,2.9,4.4,6.4c0.2,0.3,1.9,2.5,2,1.8c1.2-10,6.4-13.1,5.1-23.3c-0.9-7.5-5.7-6.9-5.7-6.9s-3.1-6.3-12.6-5.5
		c-6.4,0.5-12.1,3-18.7,4.7c-6.6,1.7,7.8,16.6,16.3,11.2s4.3,6.6,5.7,7.5c1.3,0.9,0.6,0.1,1.3,6.3c0.6,6.1-7.2,10.2-9.4,10.7
		c-7.1,1.7-8.3,0.5-9.9-2.2C211.5,131.4,210.7,125.8,210.7,125.8"/>
	<path style="fill:#F19959;" d="M240.3,122.4c-0.8,2.8-2.8,4.6-4.5,4.1c-1.7-0.6-1.7-2.9-1.5-6.1c0.2-3,2.8-4.6,4.5-4.1
		C240.4,116.8,241.1,119.6,240.3,122.4"/>
	<path style="fill:#B8DFF8;" d="M17.3,84.7h65.3c1,0,1.8,0.8,1.8,1.8V114c0,1-0.8,1.8-1.8,1.8H17.3c-1,0-1.8-0.8-1.8-1.8V86.4
		C15.5,85.4,16.3,84.7,17.3,84.7z"/>
	<path style="fill:#FFFFFF;" d="M81.5,114.3h-63c-0.6,0-1.1-0.5-1.1-1.1V93.9c0-0.6,0.5-1.1,1-1.1h0h63c0.6,0,1.1,0.5,1.1,1v0v19.4
		C82.5,113.8,82,114.3,81.5,114.3"/>
	<path style="fill:#FFFFFF;" d="M20.5,89.4H19c-0.3,0-0.6-0.3-0.6-0.6v0v-1.3c0-0.3,0.3-0.6,0.6-0.6h0h1.5c0.3,0,0.6,0.3,0.6,0.6
		v1.3C21.1,89.1,20.8,89.4,20.5,89.4"/>
	<path style="fill:#FFFFFF;" d="M25.4,89.4h-1.5c-0.3,0-0.6-0.3-0.6-0.6v-1.3c0-0.3,0.3-0.6,0.6-0.6h0h1.5c0.3,0,0.6,0.3,0.6,0.6
		v1.3C26,89.1,25.7,89.4,25.4,89.4"/>
	<path style="fill:#FFFFFF;" d="M30.3,89.4h-1.5c-0.3,0-0.6-0.3-0.6-0.6v0v-1.3c0-0.3,0.3-0.6,0.6-0.6h0h1.5c0.3,0,0.6,0.3,0.6,0.6
		v1.3C30.9,89.1,30.6,89.4,30.3,89.4"/>
	<path style="fill:#B8DFF8;" d="M79.9,97.5H45.4c-0.6,0-1-0.5-1-1c0-0.6,0.5-1,1-1h34.4c0.6,0,1,0.5,1,1
		C80.9,97.1,80.4,97.5,79.9,97.5"/>
	<path style="fill:#B8DFF8;" d="M54,113.4H19.5c-0.6,0-1-0.5-1-1c0-0.6,0.5-1,1-1H54c0.6,0,1,0.5,1,1C55,113,54.5,113.4,54,113.4"/>
	<path style="fill:#B8DFF8;" d="M80.2,102h-57c-0.4,0-0.7-0.3-0.7-0.7s0.3-0.7,0.7-0.7h57.1c0.4,0,0.7,0.3,0.7,0.7
		S80.6,102,80.2,102L80.2,102"/>
	<path style="fill:#B8DFF8;" d="M80.2,105h-57c-0.4,0-0.7-0.3-0.7-0.7s0.3-0.7,0.7-0.7h57.1c0.4,0,0.7,0.3,0.7,0.7
		S80.6,105,80.2,105L80.2,105"/>
	<path style="fill:#B8DFF8;" d="M60.3,113.4h-3.6c-0.2,0-0.4-0.2-0.4-0.4v-1.4c0-0.2,0.2-0.4,0.4-0.4h3.6c0.2,0,0.4,0.2,0.4,0.4v1.4
		C60.7,113.3,60.5,113.4,60.3,113.4"/>
	<path style="fill:#B8DFF8;" d="M65.7,113.4h-3.6c-0.2,0-0.4-0.2-0.4-0.4v-1.4c0-0.2,0.2-0.4,0.4-0.4h0h3.6c0.2,0,0.4,0.2,0.4,0.4
		v1.4C66,113.3,65.9,113.4,65.7,113.4"/>
	<path style="fill:#A1C4E8;" d="M98.6,137.6H32.4c-0.7,0-1.3-0.6-1.3-1.3v-28.5c0-0.7,0.6-1.3,1.3-1.3h66.2c0.7,0,1.3,0.6,1.3,1.3
		v28.5C99.9,137,99.4,137.6,98.6,137.6"/>
	<path style="fill:#FFFFFF;" d="M97,136.1H34c-0.6,0-1-0.5-1-1.1v-19.4c0-0.6,0.5-1.1,1-1.1h0h63c0.6,0,1.1,0.5,1.1,1v0v19.4
		C98.1,135.7,97.6,136.1,97,136.1L97,136.1"/>
	<path style="fill:#FFFFFF;" d="M36,111.2h-1.5c-0.3,0-0.6-0.3-0.6-0.6v0v-1.3c0-0.3,0.3-0.6,0.6-0.6h0H36c0.3,0,0.6,0.3,0.6,0.6
		v1.3C36.6,111,36.4,111.2,36,111.2L36,111.2"/>
	<path style="fill:#FFFFFF;" d="M41,111.2h-1.5c-0.3,0-0.6-0.3-0.6-0.6v0v-1.3c0-0.3,0.3-0.6,0.6-0.6h0H41c0.3,0,0.6,0.3,0.6,0.6
		v1.3C41.5,111,41.3,111.2,41,111.2L41,111.2"/>
	<path style="fill:#FFFFFF;" d="M45.9,111.2h-1.5c-0.3,0-0.6-0.3-0.6-0.6v0v-1.3c0-0.3,0.3-0.6,0.6-0.6h0h1.5c0.3,0,0.6,0.3,0.6,0.6
		v1.3C46.4,111,46.2,111.2,45.9,111.2L45.9,111.2"/>
	<path style="fill:#A1C4E8;" d="M95.4,119.4H61c-0.6,0-1-0.5-1-1c0-0.6,0.5-1,1-1h34.4c0.6,0,1,0.5,1,1
		C96.4,118.9,96,119.4,95.4,119.4"/>
	<path style="fill:#A1C4E8;" d="M69.5,135.3H35.1c-0.6,0-1-0.5-1-1c0-0.6,0.5-1,1-1h34.4c0.6,0,1,0.5,1,1
		C70.5,134.8,70.1,135.3,69.5,135.3"/>
	<path style="fill:#A1C4E8;" d="M75.9,135.3h-3.6c-0.2,0-0.4-0.2-0.4-0.4v-1.4c0-0.2,0.2-0.4,0.4-0.4h3.6c0.2,0,0.4,0.2,0.4,0.4v1.4
		C76.2,135.1,76.1,135.3,75.9,135.3"/>
	<path style="fill:#A1C4E8;" d="M81.2,135.3h-3.6c-0.2,0-0.4-0.2-0.4-0.4v-1.4c0-0.2,0.2-0.4,0.4-0.4h3.6c0.2,0,0.4,0.2,0.4,0.4v1.4
		C81.6,135.1,81.4,135.3,81.2,135.3"/>
	<path style="fill:#A1C4E8;" d="M95.7,123.9h-57c-0.4,0-0.7-0.3-0.7-0.7c0-0.4,0.3-0.7,0.7-0.7h57c0.4,0,0.7,0.3,0.7,0.7
		S96.2,123.9,95.7,123.9L95.7,123.9"/>
	<path style="fill:#A1C4E8;" d="M95.7,126.9h-57c-0.4,0-0.7-0.3-0.7-0.7c0-0.4,0.3-0.7,0.7-0.7h57c0.4,0,0.7,0.3,0.7,0.7
		S96.2,126.9,95.7,126.9L95.7,126.9"/>
	<circle style="fill:#9CCC97;" cx="114" cy="127.9" r="8.2"/>
	<path style="fill:#FFFFFF;" d="M113.1,131L113.1,131c-0.2,0-0.4-0.1-0.5-0.2l-2.2-2.5c-0.2-0.3-0.2-0.7,0.1-0.9
		c0.3-0.2,0.6-0.2,0.9,0.1l1.8,2l4.3-4.2c0.3-0.2,0.7-0.2,0.9,0.1c0.2,0.2,0.2,0.6,0,0.8l-4.8,4.7C113.5,130.9,113.3,131,113.1,131"
		/>
	<path style="fill:#A1C4E8;" d="M173.3,99.6h-66.5c-1.7,0-3.1-1.4-3.1-3.1V72.8c0-1.7,1.4-3.1,3.1-3.1h66.5c1.7,0,3.1,1.4,3.1,3.1
		v23.7C176.4,98.2,175,99.6,173.3,99.6"/>
	<path style="fill:#FFFFFF;" d="M170,96.7h-59.9c-1.4,0-2.6-1.2-2.6-2.6V75.3c0-1.4,1.2-2.6,2.6-2.6H170c1.4,0,2.6,1.2,2.6,2.6V94
		C172.6,95.5,171.4,96.7,170,96.7"/>
	<path style="fill:#A1C4E8;" d="M142.9,78.6h-29.4c-0.7,0-1.3-0.6-1.3-1.3c0-0.7,0.6-1.3,1.3-1.3h29.4c0.7,0,1.3,0.6,1.3,1.3
		C144.2,78,143.7,78.6,142.9,78.6"/>
	<path style="fill:#A1C4E8;" d="M167.5,83.5h-54.6c-0.4,0-0.7-0.3-0.7-0.7v0c0-0.4,0.3-0.7,0.7-0.7h54.6c0.4,0,0.7,0.3,0.7,0.7v0
		C168.2,83.2,167.9,83.5,167.5,83.5"/>
	<path style="fill:#A1C4E8;" d="M167.5,86.3h-54.6c-0.4,0-0.7-0.3-0.7-0.7v0c0-0.4,0.3-0.7,0.7-0.7h54.6c0.4,0,0.7,0.3,0.7,0.7v0
		C168.2,86,167.9,86.3,167.5,86.3"/>
	<path style="fill:#A1C4E8;" d="M156.2,95.6h-1.8c-0.4,0-0.7-0.3-0.7-0.7v0v-1.5c0-0.4,0.3-0.7,0.7-0.7h0h1.8c0.4,0,0.7,0.3,0.7,0.7
		v0v1.5C156.9,95.3,156.6,95.6,156.2,95.6L156.2,95.6z"/>
	<path style="fill:#A1C4E8;" d="M162,95.6h-1.8c-0.4,0-0.7-0.3-0.7-0.7v0v-1.5c0-0.4,0.3-0.7,0.7-0.7h0h1.8c0.4,0,0.7,0.3,0.7,0.7v0
		v1.5C162.7,95.3,162.4,95.6,162,95.6L162,95.6"/>
	<path style="fill:#A1C4E8;" d="M167.7,95.6h-1.8c-0.4,0-0.7-0.3-0.7-0.7v0v-1.5c0-0.4,0.3-0.7,0.7-0.7h0h1.8c0.4,0,0.7,0.3,0.7,0.7
		v0v1.5C168.4,95.3,168.1,95.6,167.7,95.6"/>
</g>
</svg>
