<svg version="1.1" id="Layer_1" xmlns="http://www.w3.org/2000/svg" xmlns:xlink="http://www.w3.org/1999/xlink" x="0px" y="0px"
	 viewBox="0 0 49.6 51.4" style="enable-background:new 0 0 49.6 51.4;" xml:space="preserve">
<g transform="translate(-457.448 -1801.568)">
	<circle style="fill:#AE00A9;" cx="490.5" cy="1818.5" r="9.5"/>
	<g transform="translate(0 -32)">
		<g transform="translate(457.448 1833.568)">
			
				<rect x="10.4" y="43.7" transform="matrix(0.7071 -0.7071 0.7071 0.7071 -28.9078 23.6368)" style="fill:#AE00A9;" width="7.4" height="6"/>
			<g>
				<defs>
					<rect id="SVGID_1_003" y="0" width="49.6" height="51.4"/>
				</defs>
				<clipPath id="SVGID_00000173133459014433471810000006864034615069087898_">
					<use xlink:href="#SVGID_1_003"  style="overflow:visible;"/>
				</clipPath>
				<g style="clip-path:url(#SVGID_00000173133459014433471810000006864034615069087898_);">
					<path style="fill:#AE00A9;" d="M33.2,0c-9,0-16.3,7.3-16.3,16.3c0,3.1,0.9,6.1,2.5,8.7L0,44.5L5.5,50l13.7-13.7l0,0l5.9-5.9
						c7.8,4.5,17.8,1.9,22.3-5.9s1.9-17.8-5.9-22.3C38.9,0.8,36.1,0,33.2,0 M33.2,24.4c-4.4,0-8.1-3.6-8.1-8.1s3.6-8.1,8.1-8.1
						s8.1,3.6,8.1,8.1S37.7,24.4,33.2,24.4L33.2,24.4"/>
				</g>
			</g>
		</g>
		<text transform="matrix(1 0 0 1 486 1856)" style="fill:#FFFFFF; font-family:'Montserrat-Bold'; font-size:18px;">1</text>
	</g>
</g>
</svg>
