<svg version="1.1" id="my-account-hero" xmlns="http://www.w3.org/2000/svg" xmlns:xlink="http://www.w3.org/1999/xlink" x="0px"
	 y="0px" viewBox="0 0 543 304.7" style="enable-background:new 0 0 543 304.7;" xml:space="preserve">
<g>
	<defs>
		<rect id="SVGID_1_" y="0" width="543" height="304.7"/>
	</defs>
	<clipPath id="SVGID_00000016778870187032672720000014696349167482063233_">
		<use xlink:href="#SVGID_1_"  style="overflow:visible;"/>
	</clipPath>
	<g id="Group_335" style="clip-path:url(#SVGID_00000016778870187032672720000014696349167482063233_);">
		<g id="Group_334">
			<g>
				<defs>
					<rect id="SVGID_00000147920243463611161890000010989165356102710694_" y="0" width="543" height="304.7"/>
				</defs>
				<clipPath id="SVGID_00000140726323001433150910000003589195180950816423_">
					<use xlink:href="#SVGID_00000147920243463611161890000010989165356102710694_"  style="overflow:visible;"/>
				</clipPath>
				<g id="Group_333" style="clip-path:url(#SVGID_00000140726323001433150910000003589195180950816423_);">
					<path id="Path_2099" style="fill:#FFF8D3;" d="M78.7,28.2c74.2-27.5,149.6-3.2,200.7,49.8s158.4-36.6,215.3,16.3
						c38.8,36.1,21,129-32.2,169.2c-72.4,54.7-292.5,26.9-340.1,17.6c-54.9-10.7-95-43.2-111.2-82.7C-28.1,103.4,46,40.4,78.7,28.2"
						/>
					<path id="Path_2100" style="fill:#A1C4E8;" d="M332.3,66.5c0.3-2.3,0.4-4.6,0.4-6.8c0-1.2,0-2.4-0.1-3.6l-11.3-3.7
						c-0.7-4.7-2-9.2-4-13.5l7.5-9.2c-1.7-3-3.7-5.9-5.9-8.6l-11.3,3.7c-3.3-3.4-7.1-6.3-11.2-8.6l0.6-11.9
						c-3.2-1.4-6.5-2.6-9.9-3.5l-7,9.6c-4.7-0.8-9.4-0.9-14.1-0.4l-6.5-10c-3.4,0.7-6.8,1.7-10,3l0,11.9c-4.2,2.1-8.1,4.8-11.6,8
						l-11.1-4.3c-2.4,2.6-4.5,5.4-6.4,8.3l7,9.6c-2.2,4.2-3.8,8.7-4.7,13.3l-11.5,3.1c-0.3,2.3-0.4,4.6-0.4,6.8c0,1.2,0,2.4,0.1,3.6
						l11.3,3.7c0.7,4.7,2,9.2,4,13.5l-7.5,9.2c1.7,3,3.7,5.9,5.9,8.6l11.3-3.7c3.3,3.4,7.1,6.3,11.2,8.6l-0.6,11.9
						c3.2,1.4,6.5,2.6,9.9,3.5l7-9.6c4.7,0.8,9.4,0.9,14.1,0.4l6.5,10c3.4-0.7,6.8-1.7,10-3l0-11.9c4.2-2.1,8.1-4.8,11.6-8l11.1,4.3
						c2.4-2.6,4.5-5.4,6.4-8.3l-7-9.6c2.2-4.2,3.8-8.7,4.7-13.3L332.3,66.5z M271.8,83.5c-13.2,0-23.9-10.7-23.9-23.9
						c0-13.2,10.7-23.9,23.9-23.9c13.2,0,23.9,10.7,23.9,23.9S284.9,83.5,271.8,83.5L271.8,83.5"/>
					<path id="Path_2101" style="fill:#FFFFFF;" d="M304.3,86.9c-0.5,0-0.9-0.4-0.9-0.9c0-0.2,0.1-0.4,0.2-0.6
						c9-10.8,11.7-25.6,7.1-38.9c-0.2-0.5,0.1-1,0.5-1.1c0.5-0.2,0.9,0.1,1.1,0.5c0,0,0,0,0,0.1c4.8,13.9,2,29.3-7.4,40.6
						C304.8,86.8,304.6,86.9,304.3,86.9"/>
					<path id="Path_2102" style="fill:#FFFFFF;" d="M300.9,30.5c-0.2,0-0.4-0.1-0.6-0.2c-4-3.8-8.7-6.7-13.9-8.6
						c-0.5-0.2-0.7-0.7-0.5-1.2c0.2-0.4,0.7-0.7,1.1-0.5c5.4,2,10.3,5,14.5,8.9c0.4,0.3,0.4,0.9,0,1.3
						C301.3,30.4,301.1,30.5,300.9,30.5"/>
					<path id="Path_2103" style="fill:#FFFFFF;" d="M262.5,20.6c-0.5,0-0.9-0.4-0.9-0.9c0-0.4,0.3-0.8,0.7-0.9
						c3.4-0.9,6.9-1.3,10.3-1.3c0.5,0,0.9,0.4,0.9,0.9c0,0.5-0.4,0.8-0.9,0.9c-3.3,0-6.7,0.4-9.9,1.2
						C262.6,20.6,262.6,20.6,262.5,20.6"/>
					<path id="Path_2104" style="fill:#A1C4E8;" d="M140.3,217.7c0.2-1.6,0.3-3.2,0.3-4.7c0-0.8,0-1.7-0.1-2.5l-7.8-2.5
						c-0.5-3.2-1.4-6.4-2.8-9.4l5.2-6.4c-1.2-2.1-2.6-4.1-4.1-6l-7.8,2.6c-2.3-2.3-4.9-4.3-7.7-6l0.4-8.2c-2.2-1-4.5-1.8-6.8-2.4
						l-4.8,6.7c-3.2-0.5-6.5-0.6-9.8-0.3l-4.5-6.9c-2.4,0.5-4.7,1.2-6.9,2.1l0,8.2c-2.9,1.5-5.6,3.3-8.1,5.5l-7.7-3
						c-1.6,1.8-3.1,3.7-4.4,5.7l4.8,6.7c-1.5,2.9-2.6,6-3.3,9.2l-7.9,2.1c-0.2,1.6-0.3,3.2-0.3,4.7c0,0.8,0,1.7,0.1,2.5l7.8,2.5
						c0.5,3.2,1.4,6.4,2.8,9.4l-5.2,6.4c1.2,2.1,2.6,4.1,4.1,6l7.8-2.6c2.3,2.3,4.9,4.3,7.7,6l-0.4,8.2c2.2,1,4.5,1.8,6.8,2.4
						l4.8-6.7c3.2,0.5,6.5,0.6,9.8,0.3l4.5,6.9c2.4-0.5,4.7-1.2,6.9-2.1l0-8.2c2.9-1.5,5.6-3.3,8.1-5.5l7.7,3
						c1.6-1.8,3.1-3.7,4.4-5.7l-4.8-6.7c1.5-2.9,2.6-6,3.3-9.2L140.3,217.7z M98.4,229.5c-9.1,0-16.5-7.4-16.5-16.5
						s7.4-16.5,16.5-16.5s16.5,7.4,16.5,16.5l0,0C114.9,222.1,107.5,229.5,98.4,229.5"/>
					<path id="Path_2105" style="fill:#FFFFFF;" d="M121,232.1c-0.5,0-0.9-0.4-0.9-0.9c0-0.2,0.1-0.4,0.2-0.6
						c6.2-7.4,8-17.5,4.9-26.7c-0.2-0.5,0.1-1,0.5-1.2c0.5-0.2,1,0.1,1.2,0.5c0,0,0,0,0,0.1c3.3,9.7,1.4,20.5-5.2,28.4
						C121.5,232,121.2,232.1,121,232.1"/>
					<path id="Path_2106" style="fill:#FFFFFF;" d="M118.6,193.1c-0.2,0-0.4-0.1-0.6-0.2c-2.7-2.6-6-4.6-9.5-5.9
						c-0.5-0.2-0.7-0.7-0.6-1.1c0.2-0.5,0.7-0.7,1.1-0.6l0,0c0,0,0,0,0.1,0c3.8,1.4,7.2,3.5,10.1,6.2c0.4,0.3,0.4,0.9,0,1.3
						C119.1,193,118.8,193.1,118.6,193.1"/>
					<path id="Path_2107" style="fill:#FFFFFF;" d="M92,186.2c-0.5,0-0.9-0.4-0.9-0.9c0-0.4,0.3-0.8,0.7-0.9
						c2.4-0.6,4.8-0.9,7.2-0.9c0.5,0,0.9,0.4,0.9,0.9c0,0.5-0.4,0.8-0.9,0.9c-2.3,0-4.6,0.3-6.8,0.8C92.1,186.2,92.1,186.2,92,186.2
						"/>
					<path id="Path_2108" style="fill:#A1C4E8;" d="M368.7,112c0-0.5,0-0.9,0-1.4l5.9-4.7c-0.5-2.3-1.2-4.6-2.1-6.7l-7.6-0.6
						c-1.7-2.7-3.9-5.1-6.6-7l0-7.5c-2.1-1.1-4.4-2-6.7-2.6l-5.2,5.6c-3.1-0.3-6.3-0.1-9.3,0.7l-5.9-4.7c-2.2,1-4.3,2.2-6.3,3.6
						l1.1,7.5c-2.2,2.2-4,4.8-5.3,7.7l-7.4,1.7c-0.6,2.3-1,4.7-1.1,7.1l6.5,3.8c0.3,3.2,1.3,6.3,2.8,9.2l-3.3,6.8
						c1.4,1.9,3,3.7,4.8,5.2l7-2.7c2.8,1.8,5.9,3.1,9.2,3.6l3.3,6.8c0.4,0,0.8,0,1.2,0c1.9,0,3.9-0.2,5.8-0.5l2.2-7.2
						c3.2-1.1,6.1-2.8,8.7-5l7.3,1.6c1.5-1.8,2.8-3.7,3.9-5.8l-4.2-6.2C368.2,117.7,368.7,114.8,368.7,112 M343.4,123
						c-5.8,0-10.6-4.7-10.5-10.6s4.7-10.6,10.6-10.5c5.8,0,10.5,4.7,10.5,10.6C353.9,118.3,349.2,123,343.4,123
						C343.4,123,343.4,123,343.4,123L343.4,123"/>
					<g id="Group_319" style="opacity:0.8;">
						<g id="Group_318">
							<g>
								<defs>
									<rect id="SVGID_00000163764412906208364310000016071404091349734286_" x="450.8" y="29.4" width="21.8" height="21.8"/>
								</defs>
								<clipPath id="SVGID_00000031168322141683581950000013903420013979006876_">
									<use xlink:href="#SVGID_00000163764412906208364310000016071404091349734286_"  style="overflow:visible;"/>
								</clipPath>
								<g id="Group_317" style="clip-path:url(#SVGID_00000031168322141683581950000013903420013979006876_);">
									<g id="Group_316">
										<g>
											<defs>
												<rect id="SVGID_00000049938494591684833210000003930682709450639249_" x="450.8" y="29.4" width="21.8" height="21.8"/>
											</defs>
											<clipPath id="SVGID_00000062885366781824954950000006285252677181611423_">
												<use xlink:href="#SVGID_00000049938494591684833210000003930682709450639249_"  style="overflow:visible;"/>
											</clipPath>
											<g id="Group_315" style="clip-path:url(#SVGID_00000062885366781824954950000006285252677181611423_);">
												<path id="Path_2109" style="fill:#A1C4E8;" d="M466.3,51.2h-9.1c-3.5,0-6.3-2.8-6.4-6.4v-9.1c0-3.5,2.8-6.3,6.4-6.4h9.1
													c3.5,0,6.3,2.8,6.4,6.4v9.1C472.6,48.3,469.8,51.2,466.3,51.2 M457.2,31.9c-2.1,0-3.8,1.7-3.9,3.9v9.1
													c0,2.1,1.7,3.8,3.9,3.9h9.1c2.1,0,3.8-1.7,3.9-3.9v-9.1c0-2.1-1.7-3.8-3.9-3.9L457.2,31.9z"/>
											</g>
										</g>
									</g>
								</g>
							</g>
						</g>
					</g>
					<g id="Group_324" style="opacity:0.8;">
						<g id="Group_323">
							<g>
								<defs>
									<rect id="SVGID_00000148653843557507031420000007580916924992960682_" x="408.2" y="29.4" width="21.8" height="21.8"/>
								</defs>
								<clipPath id="SVGID_00000127014133955932890610000003048538513283379331_">
									<use xlink:href="#SVGID_00000148653843557507031420000007580916924992960682_"  style="overflow:visible;"/>
								</clipPath>
								<g id="Group_322" style="clip-path:url(#SVGID_00000127014133955932890610000003048538513283379331_);">
									<g id="Group_321">
										<g>
											<defs>
												<rect id="SVGID_00000119115845270255960470000013877884270735551893_" x="408.2" y="29.4" width="21.8" height="21.8"/>
											</defs>
											<clipPath id="SVGID_00000104690924208258545440000005402214002429693854_">
												<use xlink:href="#SVGID_00000119115845270255960470000013877884270735551893_"  style="overflow:visible;"/>
											</clipPath>
											<g id="Group_320" style="clip-path:url(#SVGID_00000104690924208258545440000005402214002429693854_);">
												<path id="Path_2110" style="fill:#A1C4E8;" d="M423.6,51.2h-9.1c-3.5,0-6.3-2.8-6.4-6.4v-9.1c0-3.5,2.8-6.3,6.4-6.4h9.1
													c3.5,0,6.3,2.8,6.4,6.4v9.1C429.9,48.3,427.1,51.2,423.6,51.2 M414.5,31.9c-2.1,0-3.8,1.7-3.9,3.9v9.1
													c0,2.1,1.7,3.8,3.9,3.9h9.1c2.1,0,3.8-1.7,3.9-3.9v-9.1c0-2.1-1.7-3.8-3.9-3.9L414.5,31.9z"/>
											</g>
										</g>
									</g>
								</g>
							</g>
						</g>
					</g>
					<path id="Path_2111" style="fill:#ED7169;" d="M419.6,45.9L419.6,45.9c-0.4,0-0.7-0.2-0.9-0.4l-6.5-8.5
						c-0.4-0.4-0.3-1.1,0.1-1.5s1.1-0.3,1.5,0.1c0,0,0,0,0,0c0,0,0,0,0.1,0.1l5.7,7.5l15-16.1c0.4-0.4,1.1-0.5,1.5-0.1
						c0.4,0.4,0.5,1.1,0.1,1.5l0,0l-15.9,17C420.2,45.8,419.9,45.9,419.6,45.9"/>
					<path id="Path_2112" style="fill:#CCE0F5;" d="M496.2,285.4c-37.1-1.8-163.4,1.3-201.8,2.5s-83-1.6-106.2-5.7
						s-157,0.3-151,11.3s59.6,4.9,120.4,9.3s197.4-0.6,228.2,0s59.1-1.1,98.8-3.3S517.7,286.4,496.2,285.4"/>
					<rect id="Rectangle_273" x="39.1" y="55.5" style="fill:#99B9E2;" width="77.6" height="127.2"/>
					<rect id="Rectangle_274" x="43.2" y="58.1" style="fill:#FFFFFF;" width="71" height="119.8"/>
					<path id="Path_2113" style="fill:#99B9E2;" d="M87.9,121.7H69.7c-1.2,0-2.1-0.9-2.1-2.1c0-1.2,0.9-2.1,2.1-2.1c0,0,0,0,0,0
						h18.2c1.2,0,2.1,0.9,2.1,2.1C90,120.8,89.1,121.7,87.9,121.7C87.9,121.7,87.9,121.7,87.9,121.7"/>
					<path id="Path_2114" style="fill:#99B9E2;" d="M91.3,128.2H66.4c-1.2,0-2.1-0.9-2.1-2.1c0-1.2,0.9-2.1,2.1-2.1c0,0,0,0,0,0
						h24.9c1.2,0,2.1,0.9,2.1,2.1C93.4,127.3,92.4,128.2,91.3,128.2"/>
					<path id="Path_2115" style="fill:#99B9E2;" d="M109.1,151.6H48.5c-0.7,0-1.2-0.5-1.2-1.2c0-0.7,0.5-1.2,1.2-1.2c0,0,0,0,0,0
						h60.5c0.7,0,1.2,0.5,1.2,1.2C110.3,151.1,109.8,151.6,109.1,151.6C109.1,151.6,109.1,151.6,109.1,151.6"/>
					<path id="Path_2116" style="fill:#99B9E2;" d="M109.1,157.3H48.5c-0.7,0-1.2-0.5-1.2-1.2c0-0.7,0.5-1.2,1.2-1.2c0,0,0,0,0,0
						h60.5c0.7,0,1.2,0.5,1.2,1.2C110.3,156.8,109.8,157.3,109.1,157.3C109.1,157.3,109.1,157.3,109.1,157.3"/>
					<path id="Path_2117" style="fill:#99B9E2;" d="M109.1,163.1H48.5c-0.7,0-1.2-0.6-1.2-1.2c0-0.7,0.5-1.2,1.2-1.2h60.5
						c0.7,0,1.2,0.6,1.2,1.2C110.3,162.5,109.8,163.1,109.1,163.1"/>
					<path id="Path_2118" style="fill:#99B9E2;" d="M109.1,102.3H48.5c-0.7,0-1.2-0.6-1.2-1.2c0-0.7,0.6-1.2,1.2-1.2h60.5
						c0.7,0,1.2,0.6,1.2,1.2C110.3,101.7,109.8,102.3,109.1,102.3L109.1,102.3"/>
					<path id="Path_2119" style="fill:#99B9E2;" d="M109.1,108H48.5c-0.7,0-1.2-0.6-1.2-1.2c0-0.7,0.6-1.2,1.2-1.2h60.5
						c0.7,0,1.2,0.6,1.2,1.2C110.3,107.4,109.8,108,109.1,108L109.1,108"/>
					<path id="Path_2120" style="fill:#99B9E2;" d="M109.1,113.7H48.5c-0.7,0-1.2-0.6-1.2-1.2c0-0.7,0.6-1.2,1.2-1.2h60.5
						c0.7,0,1.2,0.6,1.2,1.2C110.3,113.1,109.8,113.7,109.1,113.7L109.1,113.7"/>
					<path id="Path_2121" style="fill:#99B9E2;" d="M109.1,86H48.5c-0.7,0-1.2-0.6-1.2-1.2c0-0.7,0.6-1.2,1.2-1.2h60.5
						c0.7,0,1.2,0.6,1.2,1.2C110.3,85.5,109.8,86,109.1,86L109.1,86"/>
					<path id="Path_2122" style="fill:#99B9E2;" d="M109.1,91.7H48.5c-0.7,0-1.2-0.6-1.2-1.2c0-0.7,0.6-1.2,1.2-1.2h60.5
						c0.7,0,1.2,0.6,1.2,1.2C110.3,91.2,109.8,91.7,109.1,91.7L109.1,91.7"/>
					<path id="Path_2123" style="fill:#99B9E2;" d="M109.1,97.4H48.5c-0.7,0-1.2-0.6-1.2-1.2c0-0.7,0.6-1.2,1.2-1.2h60.5
						c0.7,0,1.2,0.6,1.2,1.2C110.3,96.9,109.8,97.4,109.1,97.4L109.1,97.4"/>
					<path id="Path_2124" style="fill:#99B9E2;" d="M63.3,133.8l1.3,2.6l2.8,0.4l-2,2l0.5,2.8l-2.5-1.3l-2.5,1.3l0.5-2.8l-2-2
						l2.8-0.4L63.3,133.8z"/>
					<path id="Path_2125" style="fill:#99B9E2;" d="M73.6,133.8l1.3,2.6l2.8,0.4l-2,2l0.5,2.8l-2.5-1.3l-2.5,1.3l0.5-2.8l-2-2
						l2.8-0.4L73.6,133.8z"/>
					<path id="Path_2126" style="fill:#99B9E2;" d="M84,133.8l1.3,2.6l2.8,0.4l-2,2l0.5,2.8l-2.5-1.3l-2.5,1.3l0.5-2.8l-2-2l2.8-0.4
						L84,133.8z"/>
					<path id="Path_2127" style="fill:#99B9E2;" d="M94.3,133.8l1.3,2.6l2.8,0.4l-2,2l0.5,2.8l-2.5-1.3l-2.5,1.3l0.5-2.8l-2-2
						l2.8-0.4L94.3,133.8z"/>
					<rect id="Rectangle_275" x="212.2" y="55.5" style="fill:#99B9E2;" width="77.6" height="127.2"/>
					<rect id="Rectangle_276" x="216.2" y="58.1" style="fill:#FFFFFF;" width="71" height="119.8"/>
					<path id="Path_2128" style="fill:#99B9E2;" d="M260.9,121.7h-18.2c-1.2,0-2.1-0.9-2.1-2.1c0-1.2,0.9-2.1,2.1-2.1c0,0,0,0,0,0
						h18.2c1.2,0,2.1,0.9,2.1,2.1C263.1,120.8,262.1,121.7,260.9,121.7"/>
					<path id="Path_2129" style="fill:#99B9E2;" d="M264.3,128.2h-24.9c-1.2,0-2.1-0.9-2.1-2.1c0-1.2,0.9-2.1,2.1-2.1h24.9
						c1.2,0,2.1,0.9,2.1,2.1S265.4,128.2,264.3,128.2C264.3,128.2,264.3,128.2,264.3,128.2"/>
					<path id="Path_2130" style="fill:#99B9E2;" d="M282.1,151.6h-60.5c-0.7,0-1.2-0.5-1.2-1.2s0.5-1.2,1.2-1.2c0,0,0,0,0,0h60.5
						c0.7,0,1.2,0.5,1.2,1.2C283.3,151.1,282.8,151.6,282.1,151.6C282.1,151.6,282.1,151.6,282.1,151.6"/>
					<path id="Path_2131" style="fill:#99B9E2;" d="M282.1,157.3h-60.5c-0.7,0-1.2-0.5-1.2-1.2s0.5-1.2,1.2-1.2c0,0,0,0,0,0h60.5
						c0.7,0,1.2,0.5,1.2,1.2C283.3,156.8,282.8,157.3,282.1,157.3C282.1,157.3,282.1,157.3,282.1,157.3"/>
					<path id="Path_2132" style="fill:#99B9E2;" d="M282.1,163.1h-60.5c-0.7,0-1.2-0.6-1.2-1.2c0-0.7,0.5-1.2,1.2-1.2h60.5
						c0.7,0,1.2,0.6,1.2,1.2C283.3,162.5,282.8,163.1,282.1,163.1"/>
					<path id="Path_2133" style="fill:#99B9E2;" d="M282.1,99.6h-60.5c-0.7,0-1.2-0.6-1.2-1.2c0-0.7,0.6-1.2,1.2-1.2h60.5
						c0.7,0,1.2,0.6,1.2,1.2C283.3,99.1,282.8,99.6,282.1,99.6"/>
					<path id="Path_2134" style="fill:#99B9E2;" d="M282.1,105.4h-60.5c-0.7,0-1.2-0.6-1.2-1.2c0-0.7,0.6-1.2,1.2-1.2h60.5
						c0.7,0,1.2,0.6,1.2,1.2C283.3,104.8,282.8,105.4,282.1,105.4"/>
					<path id="Path_2135" style="fill:#99B9E2;" d="M282.1,111.1h-60.5c-0.7,0-1.2-0.6-1.2-1.2c0-0.7,0.6-1.2,1.2-1.2h60.5
						c0.7,0,1.2,0.6,1.2,1.2C283.3,110.5,282.8,111.1,282.1,111.1"/>
					<path id="Path_2136" style="fill:#99B9E2;" d="M282.1,82.7h-60.5c-0.7,0-1.2-0.6-1.2-1.2c0-0.7,0.6-1.2,1.2-1.2h60.5
						c0.7,0,1.2,0.6,1.2,1.2C283.3,82.1,282.8,82.7,282.1,82.7"/>
					<path id="Path_2137" style="fill:#99B9E2;" d="M282.1,88.4h-60.5c-0.7,0-1.2-0.6-1.2-1.2c0-0.7,0.6-1.2,1.2-1.2h60.5
						c0.7,0,1.2,0.6,1.2,1.2C283.3,87.8,282.8,88.4,282.1,88.4"/>
					<path id="Path_2138" style="fill:#99B9E2;" d="M282.1,94.1h-60.5c-0.7,0-1.2-0.6-1.2-1.2c0-0.7,0.6-1.2,1.2-1.2h60.5
						c0.7,0,1.2,0.6,1.2,1.2C283.3,93.6,282.8,94.1,282.1,94.1"/>
					<path id="Path_2139" style="fill:#99B9E2;" d="M236.3,133.8l1.3,2.6l2.8,0.4l-2,2l0.5,2.8l-2.5-1.3l-2.5,1.3l0.5-2.8l-2-2
						l2.8-0.4L236.3,133.8z"/>
					<path id="Path_2140" style="fill:#99B9E2;" d="M246.7,133.8l1.3,2.6l2.8,0.4l-2,2l0.5,2.8l-2.5-1.3l-2.5,1.3l0.5-2.8l-2-2
						l2.8-0.4L246.7,133.8z"/>
					<path id="Path_2141" style="fill:#99B9E2;" d="M257,133.8l1.3,2.6l2.8,0.4l-2,2l0.5,2.8l-2.5-1.3l-2.5,1.3l0.5-2.8l-2-2
						l2.8-0.4L257,133.8z"/>
					<path id="Path_2142" style="fill:#99B9E2;" d="M267.3,133.8l1.3,2.6l2.8,0.4l-2,2l0.5,2.8l-2.5-1.3l-2.5,1.3l0.5-2.8l-2-2
						l2.8-0.4L267.3,133.8z"/>
					<g id="Group_329" style="opacity:0.2;">
						<g id="Group_328">
							<g>
								<defs>
									<rect id="SVGID_00000041995894373806986190000003995954116813084323_" x="98.4" y="56" width="126.9" height="125.5"/>
								</defs>
								<clipPath id="SVGID_00000062179719279290673400000015340461059676208829_">
									<use xlink:href="#SVGID_00000041995894373806986190000003995954116813084323_"  style="overflow:visible;"/>
								</clipPath>
								<g id="Group_327" style="clip-path:url(#SVGID_00000062179719279290673400000015340461059676208829_);">
									<g id="Group_326">
										<g>
											<defs>
												<rect id="SVGID_00000031908564700694981490000000778027151720328327_" x="98.4" y="56" width="126.9" height="125.5"/>
											</defs>
											<clipPath id="SVGID_00000092431396981664914680000008442995272361216396_">
												<use xlink:href="#SVGID_00000031908564700694981490000000778027151720328327_"  style="overflow:visible;"/>
											</clipPath>
											<g id="Group_325" style="clip-path:url(#SVGID_00000092431396981664914680000008442995272361216396_);">
												<path id="Path_2143" style="fill:#99B9E2;" d="M220.9,181.5H98.4L107.1,56h118.2L220.9,181.5z"/>
											</g>
										</g>
									</g>
								</g>
							</g>
						</g>
					</g>
					<rect id="Rectangle_279" x="111.3" y="32.3" style="fill:#99B9E2;" width="106" height="173.7"/>
					<rect id="Rectangle_280" x="116.8" y="35.8" style="fill:#FFFFFF;" width="97" height="163.6"/>
					<path id="Path_2144" style="fill:#99B9E2;" d="M188.1,122.7h-45.2c-1.6,0-2.9-1.3-2.9-2.9c0-1.6,1.3-2.9,2.9-2.9h45.2
						c1.6,0,2.9,1.3,2.9,2.9C191,121.4,189.7,122.7,188.1,122.7"/>
					<path id="Path_2145" style="fill:#99B9E2;" d="M182.5,131.6h-34c-1.6,0-2.9-1.2-2.9-2.8c0-1.6,1.2-2.9,2.8-2.9h34.1
						c1.6,0,2.9,1.3,2.8,2.9C185.3,130.3,184,131.5,182.5,131.6"/>
					<path id="Path_2146" style="fill:#99B9E2;" d="M206.8,163.5h-82.7c-0.9,0-1.7-0.7-1.7-1.6s0.7-1.7,1.6-1.7c0,0,0,0,0,0h82.8
						c0.9,0,1.7,0.8,1.6,1.7C208.4,162.8,207.7,163.5,206.8,163.5"/>
					<path id="Path_2147" style="fill:#99B9E2;" d="M206.8,171.3h-82.7c-0.9,0-1.7-0.7-1.7-1.6c0-0.9,0.7-1.7,1.6-1.7c0,0,0,0,0,0
						c0,0,0.1,0,0.1,0h82.7c0.9,0,1.7,0.8,1.6,1.7C208.4,170.6,207.7,171.3,206.8,171.3"/>
					<path id="Path_2148" style="fill:#99B9E2;" d="M206.8,179.1h-82.7c-0.9,0-1.7-0.8-1.6-1.7c0-0.9,0.7-1.6,1.6-1.6h82.7
						c0.9,0,1.7,0.8,1.6,1.7C208.4,178.4,207.7,179.1,206.8,179.1"/>
					<path id="Path_2149" style="fill:#99B9E2;" d="M206.8,95.8h-82.7c-0.9,0-1.7-0.7-1.7-1.6c0-0.9,0.7-1.7,1.6-1.7
						c0,0,0.1,0,0.1,0h82.7c0.9,0,1.7,0.8,1.6,1.7C208.4,95,207.7,95.8,206.8,95.8"/>
					<path id="Path_2150" style="fill:#99B9E2;" d="M206.8,103.6h-82.7c-0.9,0-1.7-0.7-1.7-1.6c0-0.9,0.7-1.7,1.6-1.7h82.8
						c0.9,0,1.7,0.8,1.6,1.7C208.4,102.8,207.7,103.6,206.8,103.6"/>
					<path id="Path_2151" style="fill:#99B9E2;" d="M206.8,111.4h-82.7c-0.9,0-1.7-0.8-1.6-1.7c0-0.9,0.7-1.6,1.6-1.6h82.7
						c0.9,0,1.7,0.8,1.6,1.7C208.4,110.6,207.7,111.4,206.8,111.4"/>
					<path id="Path_2152" style="fill:#99B9E2;" d="M206.8,72.4h-82.7c-0.9,0-1.7-0.7-1.7-1.6c0-0.9,0.7-1.7,1.6-1.7
						c0,0,0.1,0,0.1,0h82.7c0.9,0,1.7,0.8,1.6,1.7C208.4,71.6,207.7,72.4,206.8,72.4"/>
					<path id="Path_2153" style="fill:#99B9E2;" d="M206.8,80.2h-82.7c-0.9,0-1.7-0.7-1.7-1.6c0-0.9,0.7-1.7,1.6-1.7h82.8
						c0.9,0,1.7,0.8,1.6,1.7C208.4,79.4,207.7,80.2,206.8,80.2"/>
					<path id="Path_2154" style="fill:#99B9E2;" d="M206.8,88h-82.7c-0.9,0-1.7-0.8-1.6-1.7c0-0.9,0.7-1.6,1.6-1.6h82.7
						c0.9,0,1.7,0.8,1.6,1.7C208.4,87.2,207.7,88,206.8,88"/>
					<path id="Path_2155" style="fill:#99B9E2;" d="M137.1,139.1l1.7,3.5l3.9,0.6l-2.8,2.7l0.7,3.8l-3.4-1.8l-3.4,1.8l0.7-3.8
						l-2.8-2.7l3.9-0.6L137.1,139.1z"/>
					<path id="Path_2156" style="fill:#99B9E2;" d="M151.2,139.1l1.7,3.5l3.9,0.6l-2.8,2.7l0.7,3.8l-3.4-1.8l-3.4,1.8l0.7-3.8
						l-2.8-2.7l3.9-0.6L151.2,139.1z"/>
					<path id="Path_2157" style="fill:#99B9E2;" d="M165.3,139.1l1.7,3.5l3.9,0.6l-2.8,2.7l0.7,3.8l-3.4-1.8l-3.4,1.8l0.7-3.8
						l-2.8-2.7l3.9-0.6L165.3,139.1z"/>
					<path id="Path_2158" style="fill:#99B9E2;" d="M179.5,139.1l1.7,3.5l3.9,0.6l-2.8,2.7l0.7,3.8l-3.4-1.8l-3.4,1.8l0.7-3.8
						l-2.8-2.7l3.9-0.6L179.5,139.1z"/>
					<path id="Path_2159" style="fill:#99B9E2;" d="M193.8,139.1l1.7,3.5l3.9,0.6l-2.8,2.7l0.7,3.8l-3.4-1.8l-3.4,1.8l0.7-3.8
						l-2.8-2.7l3.9-0.6L193.8,139.1z"/>
					<path id="Path_2160" style="fill:#272F65;" d="M387.5,200.4h-136c-0.8,0-1.5-0.7-1.5-1.5v-2.2c0-0.8,0.7-1.5,1.5-1.5h136
						c0.8,0,1.5,0.7,1.5,1.5l0,0v2.2C389,199.7,388.3,200.4,387.5,200.4L387.5,200.4"/>
					<path id="Path_2161" style="fill:#F19959;" d="M422.5,125.8c1.8,6.5-2.7,13.2-7.6,14.6s-8.5-3-10.3-9.5s0.7-12.9,5.6-14.3
						S420.7,119.3,422.5,125.8"/>
					<path id="Path_2162" style="fill:#F19959;" d="M394.7,251.7c0,0,12.7,19.7,14.4,20.6s6,1.1,4.4,4.3s-2.3,15.9-3.8,16.5
						s-14.4,2.1-12.4,0s3.1-1.1,4.1-4.9s2.3-11.2,0.5-12.7s-13-15-13-15L394.7,251.7z"/>
					<path id="Path_2163" style="fill:#F19959;" d="M330.8,260.2c0,0-15.4,25.5-18.3,27.7s-12.3,5.7-4.6,6.3s11.4-2.6,16.3-4
						s10.9-2.3,8.6-6s-1.3-11.8,3.6-17S330.8,260.2,330.8,260.2"/>
					<path id="Path_2164" style="fill:#6690C9;" d="M409.6,201.2c0,0-38.2-1-53.4,11.4c-8.9,13.4-30.3,53.1-32,57.5
						c1.1,1.1,7.6,3.2,10.4,2.9c8.4-10.1,19.6-18.8,24-26.7c5.5-9.7,7.2-14.6,16-15.4s28.9-3.7,34.9-3.7S409.6,201.2,409.6,201.2"/>
					<path id="Path_2165" style="fill:#272F65;" d="M443,294.3h-2l-14.4-60h4.4L443,294.3z"/>
					<path id="Path_2166" style="fill:#272F65;" d="M382.9,294.3h2l16.5-62.1H397L382.9,294.3z"/>
					<path id="Path_2167" style="fill:#779ED3;" d="M431.4,198.5l-22.2,3.8c0,0-29.5,0.3-43.1,2.8c-12.3,2.3-14.1,16.2,0,35.5
						c8,10.9,14.8,19.6,28.6,29.5c3.5-2.6,4.9-3.6,5.8-9.8c-1-1.4-3.6-10-4.4-11.7c-7.7-16-17.9-21.8-18-23.4
						c1.7-2.8,45.5,14.5,54.2,4.3C440.6,219.9,431.4,198.5,431.4,198.5"/>
					<path id="Path_2168" style="fill:#93378B;" d="M432.3,148.2c-6.1-0.9-12.4,0.6-17.4,4.3c-4.9,5-10.4,13.2-10.1,26.7
						c0.4,17.2-2.7,18.3,0.6,23c13.4,5.5,36.4,29.4,31,3.8c-3.9-18.5,8.6-32.3-1.5-52.8C434.1,151.6,433.1,150,432.3,148.2"/>
					<g id="Group_332">
						<g id="Group_331">
							<g>
								<defs>
									<rect id="SVGID_00000019670627162171850310000015429106196118654633_" x="404" y="152.2" width="28.9" height="57.6"/>
								</defs>
								<clipPath id="SVGID_00000057119046866290918030000003776897608957740953_">
									<use xlink:href="#SVGID_00000019670627162171850310000015429106196118654633_"  style="overflow:visible;"/>
								</clipPath>
								<g id="Group_330" style="clip-path:url(#SVGID_00000057119046866290918030000003776897608957740953_);">
									<path id="Path_2169" style="fill:#93378B;" d="M404.9,185.7c-0.3,8.9-1.5,11.6-0.6,14.4c5.5,0.6,15.5,2.7,18,6.2
										c2.9,4,5.7,4.6,4.4,1.6s-4.9-7.2,0.6-21.6s8-24.1,2.7-34.1L404.9,185.7z"/>
								</g>
							</g>
						</g>
					</g>
					<path id="Path_2170" style="fill:#F19959;" d="M432.3,148.2c-2.3-5.8-3.8-11.9-4.5-18.1l-9.4,2.8c0,0,5.4,12,0.2,16.3
						c-1.3,1.1-2.5,2.2-3.7,3.4C419.9,148.8,426.2,147.3,432.3,148.2"/>
					<path id="Path_2171" style="fill:#E38440;" d="M428.1,132.4c-0.6-0.5-1.3-1.1-2-1.8l-7.7,2.3l0,0c1.3,3,2.1,6.2,2.4,9.4
						c3-2,5.7-4.6,7.7-7.6C428.3,133.8,428.2,133,428.1,132.4"/>
					<path id="Path_2172" style="fill:#F19959;" d="M425.7,150.9c-9.7,3.4-8.6,13.6-17.6,28.7c-4.6,7.8-8.9,7.7-8.9,7.7
						c-8,0-16-0.5-24-1.5c-8.2-1-8.7,1.4-3,3.5c11.5,4.1,23.5,8.6,33.2,7.5s26.2-25.7,27-32.1C433.5,155.8,430.6,149.2,425.7,150.9"
						/>
					<path id="Path_2173" style="fill:#272F65;" d="M420.7,236.8c-0.6,0-1.2,0-1.9,0c-5.9-0.2-11.9-0.9-17.7-2.2
						c-5.1-1-7.8-1.6-11.1,0c-1.2,0.6-2.7,0.1-3.4-1.1c-0.6-1.2-0.1-2.7,1.1-3.4c0,0,0.1,0,0.1-0.1c4.8-2.3,8.7-1.5,14.2-0.3
						c5.5,1.2,11.1,1.9,16.8,2.1c8.4,0.2,13.5-1,16.1-3.9c2.3-2.6,3-6.9,2.1-13.5c-0.3-2.3-0.6-4.2-0.8-5.9
						c-0.7-4.7-1.2-7.8-0.6-12.7c0.6-4.5,2-10.4,5.5-22c0.4-1.3,1.7-2.1,3.1-1.8c1.3,0.4,2.1,1.7,1.8,3.1c0,0,0,0.1,0,0.1
						c-6.4,21.6-6.1,23.7-4.7,32.5c0.3,1.7,0.6,3.6,0.9,6c1.1,8.2,0,13.8-3.4,17.5C435.3,235.1,429.7,236.8,420.7,236.8"/>
					<path id="Path_2174" style="fill:#93378B;" d="M331.8,281.7c-10.2,5-15.8,7.9-19.1,7.6c-0.8-0.1-1.4-0.1-2-0.2
						c-3.7,2.2-9.5,4.7-2.9,5.2c7.7,0.6,11.4-2.6,16.3-4s10.9-2.3,8.6-6C332.3,283.4,332,282.6,331.8,281.7"/>
					<path id="Path_2175" style="fill:#93378B;" d="M410.3,272.7c-0.3,8.1-1.4,16.2-6.3,17.7c-1.2,0.4-2.4,0.5-3.6,0.3
						c-0.8,1-1.7,1-3,2.4c-1.9,2.1,10.9,0.6,12.4,0s2.1-13.3,3.8-16.5C414.9,274,412.2,273.4,410.3,272.7"/>
					<path id="Path_2176" style="fill:#779ED3;" d="M370.8,195.9h-32.6c-1,0-1.9-0.6-2.3-1.4l-13.2-28.3c-0.6-1.2-0.1-2.7,1.2-3.3
						c1.2-0.6,2.7-0.1,3.3,1.1c0,0,0,0.1,0.1,0.1l12.5,26.9h31c1.4,0,2.5,1.1,2.5,2.5S372.2,195.9,370.8,195.9"/>
					<path id="Path_2177" style="fill:#F19959;" d="M377.6,186.1c-6.6-0.1-13.1-4-16.3-3.4s-13.8,7.9-12.5,8.2s9.7-4.1,10-4.1
						s2.1,3,6.6,4.1s0-3.4,13.9,0.8C388.3,194.4,377.6,186.1,377.6,186.1"/>
					<path id="Path_2178" style="fill:#EDE5F2;" d="M431.4,140.4l1,7.8c0,0-8.5,0.5-12.8,2.9s-10.5,9.3-10.5,9.3l5.1-8.8l0.7-5.6
						L431.4,140.4z"/>
					<path id="Path_2179" style="fill:#EDE5F2;" d="M427.7,150c-6.3-1.2-9.2,4.5-13.4,13.7s-11.1,20.5-12.5,21.9s-23.5,0-23.5,0
						s-0.7,6.4,0,7.2s4.5,0.7,4.5,0.7s1.5,1.2,3,2.2s13.5,2.8,19.2,2.5s10.8-0.8,11.5-1.6s16.1-24.5,17.1-33S431,150.6,427.7,150"/>
					<path id="Path_2180" style="fill:#272F65;" d="M409.1,111c-12,0.6-10.1,18.6-10.1,18.6s3.1,1,9.6-0.1c-0.5-1.9-0.3-6.9-0.3-6.9
						c0.4,2.2,1,4.3,1.7,6.4c1.4,0.6,2.9,0.1,5.6-0.6c0.8,4.2,3.8,7.6,7.8,9c2.9,0.9,6,2,9.4,0.3s1.5-19.3-0.3-22.8
						c-2.7-5.3-7.3-10-15.2-7.5C414.6,108.4,411.8,109.6,409.1,111"/>
					<path id="Path_2181" style="fill:#272F65;" d="M429.9,132.4l4.9,7.1c0,0-5.4,13.5,10.3,19.7c12.3,4.8,10.9,13.3,5.3,21.8
						s3.3,15.9,3.3,15.9s1.4-9.4,13.4-11.2c16.4-2.4,21-24.4,8.8-35.4c-10.1-9.1-13.2-1.6-20-9.7s-19.8-2.6-19.8-2.6l-4.7-6.9
						L429.9,132.4z"/>
					<path id="Path_2182" style="fill:#272F65;" d="M481.5,172.5c-0.2,0-0.4-0.2-0.4-0.4c0-0.1,0-0.1,0.1-0.2
						c4.1-7.5,0.8-16.6-0.9-19.1c-0.2-0.3-0.3-0.5-0.5-0.8c-1.7-2.6-3.7-5.8-14.7-7.8c-2.7-0.5-4.8-2.1-7.1-3.7
						c-4.7-3.4-10-7.4-21.6-2c-0.2,0.1-0.5,0-0.6-0.2c-0.1-0.2,0-0.5,0.2-0.6c12-5.5,17.6-1.5,22.5,2.1c2.2,1.6,4.3,3.1,6.7,3.6
						c11.4,2.1,13.6,5.4,15.3,8.2c0.2,0.3,0.3,0.5,0.5,0.8c1.8,2.6,5.3,12.1,1,20C481.8,172.4,481.7,172.5,481.5,172.5"/>
					<path id="Path_2183" style="fill:#303C60;" d="M427.3,139.7c-0.9,0-1.7-0.1-2.5-0.2c-4.2-0.6-9.8-3-10.2-16.4
						c0-0.2,0.2-0.4,0.4-0.5c0.2,0,0.4,0.2,0.5,0.4c0,0,0,0,0,0c0.2,5.5,1.3,9.6,3.2,12.1c1.5,1.9,3.8,3.2,6.3,3.4
						c3.9,0.6,6.4-0.1,7.6-2.1c0.1-0.2,0.4-0.3,0.6-0.2c0.2,0.1,0.3,0.4,0.2,0.6l0,0C432.1,138.8,430.1,139.7,427.3,139.7"/>
					<path id="Path_2184" style="fill:#272F65;" d="M264.6,294.3h3.2l12.5-95.6h-7.1L264.6,294.3z"/>
					<path id="Path_2185" style="fill:#272F65;" d="M373.6,294.3h-3.2l-12.5-95.6h7.1L373.6,294.3z"/>
					<path id="Path_2186" style="fill:#73B470;" d="M499.7,213.7c5.6,5.1,3.1,10.2-1,19.6s-4.8,44.2-4.8,44.2l3.4-0.5
						c0,0-0.5-35.8,4.1-45.4s6.5-14.5,10.6-11.4S499.7,213.7,499.7,213.7"/>
					<path id="Path_2187" style="fill:#9CCC97;" d="M496.6,207.1c0.7-3,4.7-6.3,10-9c-0.8,4.4-3.4,11.7-0.7,13.2
						c3.6,2,0.3-8.1,1.7-13.7c5.3-2.6,10.9-4.4,16.7-5.5c0,0,0,0,0,0.1c-3.1,8-7.3,11.1-5.6,12.3c1.3,0.9,5.4-8.3,10.9-13
						c4.1-0.2,7.6,0.3,9.6,2c3.2,2.5,5.3,4.8,2.1,12.4c-2.1,1.4-4.4,2.3-6.9,2.5c-7.3,0.7-10.6,1-5.6,3.4c2.5,1.2,6.7-0.1,10-0.8
						c-1.1,2-2.4,4.3-4.1,6.9c-1,1.6-2.1,3-3.4,4.3c-1.8,0.5-3.7,0.5-5.5,0c-3.4-1.4-12.1-6-14.3-4.1c-2.1,1.9,16.1,3.1,14.9,7.9
						c-8.8,5.1-19,2.7-20.8-2C503.5,217.6,494.6,216.1,496.6,207.1"/>
					<path id="Path_2188" style="fill:#73B470;" d="M514.9,241.5c-9.7-7.3-19.6-0.5-24.7,7.3c-5.1,7.7-1.5,25.1-1.5,25.1
						s1.9,0,1.9-0.7s-5.3-20.5,7.3-29.5c7.9-5.6,13.5-2.9,14.3-0.2s-3.1,7.5-3.1,7.5L514.9,241.5z"/>
					<path id="Path_2189" style="fill:#9CCC97;" d="M492.7,226.5c9.7,0,12.8,15,10.2,23.7s-6.3,24.9-6.3,24.9l-2.4-2.4
						c0,0,9.2-22.7,7-32.9s-7.5-11.8-8.5-11.8S492.7,226.5,492.7,226.5"/>
					<path id="Path_2190" style="fill:#73B470;" d="M500.8,250.3c0.7-0.9,1.5-1.6,2.5-2.1c-0.1,0.7-0.3,1.4-0.5,2.1
						c-1.2,4-2.6,9.5-3.8,14.3l-0.5-3c-0.1-0.3-0.1-0.7-0.1-1.1C499.3,257.1,500.1,253.7,500.8,250.3"/>
					<path id="Path_2191" style="fill:#9CCC97;" d="M503.4,250.4c18.4-7.7,8.7-18.4,24.9-11.3c1.5,0.9,2.9,2,3.9,3.5
						c-1.7,0.5-3.4,0.6-5.1,0.4c-4.8-0.7-3.1,3.1,4.8,4.1c1.3,0.1,2.5,0.4,3.7,0.8c3.8,7.3,5.5,16.9-2.5,20.2
						c-1.8,0.7-3.8,1.1-5.7,1.2c-2.5-2,0.6-13.4-3.2-11.8c-3.7,1.5,1.2,9.8,0.5,11.9c-3.9-0.1-7.7-0.7-11.5-1.6
						c-1.5-0.7-2.6-2-3-3.5c-1.2-5.1,6.8-8.2,7-12.6c0.2-4-2.9,8.8-11.3,10.7C498.4,258.8,494.8,254,503.4,250.4"/>
					<path id="Path_2192" style="fill:#9CCC97;" d="M490.3,236.7c1.9-4.1-3.1-5.1-2.9-1.9c0.2,2.8,0.2,9.6-2.6,11.4
						c-5.9-0.7-11.5-2.6-16.7-5.5c-0.1-0.4,0-0.9,0.2-1.3c2.2-4.4,16.2-8,11.8-9.4c-3.5-1.2-9.5,5.7-14.4,9.1
						c-2.9-2.2-4.9-4.9-4.9-7.9c0-4,4.9-8.6,11.2-10.7c2.8,0.3,5.5,1.8,9.6,4.2c6.1,3.4,4.7-2.1-1.1-5.4c5.4,0.2,10.5,3,13.6,7.5
						c0,0-0.3,2.2,1.9,5.5c6.3,9.1-1,14.5-9.6,14.1C487,243.9,489,239.5,490.3,236.7"/>
					<path id="Path_2193" style="fill:#73B470;" d="M514.3,241c4.7,3.7,10,7.9,16.4,10.8s5.2,12.4,5.2,12.4s1-8.2-4.4-11
						c-5.4-2.8-8.9-6.1-13-6.8c-2.1-0.3-4.3-0.7-6.3-1.3c0,0,1.3-2.6,0.5-3.5S514.3,241,514.3,241"/>
					<path id="Path_2194" style="fill:#73B470;" d="M537.6,198.1c-17.3,4.6-30,15.7-32.3,18.4s-2.4,3.4-2.4,3.4l1.8,3.4l0.9-0.4
						c0,0-1.4-2.9,2.3-6.7c6.3-6.5,14-11.6,19.2-13.9S537.6,198.1,537.6,198.1"/>
					<path id="Path_2195" style="fill:#93378B;" d="M489.9,293.9h6.6c4.7,0,8.5-3.8,8.5-8.5l0,0v-15.2h-23.6v15.2
						C481.4,290.1,485.2,293.9,489.9,293.9L489.9,293.9"/>
					<rect id="Rectangle_282" x="481.4" y="272.9" style="fill:#FFFFFF;" width="23.6" height="1.7"/>
					<rect id="Rectangle_283" x="481.4" y="276" style="fill:#FFFFFF;" width="23.6" height="1"/>
					<path id="Path_2196" style="fill:#A1C4E8;" d="M58.9,273.2h5.6c1.2,0,2.2-1,2.2-2.2l0,0v-4.6c0-1.2-1-2.2-2.2-2.2c0,0,0,0,0,0
						h-5.6c-1.2,0-2.2,1-2.2,2.2l0,0v4.6C56.7,272.3,57.7,273.2,58.9,273.2L58.9,273.2"/>
					<path id="Path_2197" style="fill:#A1C4E8;" d="M40.8,273.2h5.6c1.2,0,2.2-1,2.2-2.2l0,0v-4.6c0-1.2-1-2.2-2.2-2.2c0,0,0,0,0,0
						h-5.6c-1.2,0-2.2,1-2.2,2.2v4.6C38.6,272.3,39.6,273.2,40.8,273.2C40.8,273.2,40.8,273.2,40.8,273.2z"/>
					<path id="Path_2198" style="fill:#A1C4E8;" d="M22.7,273.2h5.6c1.2,0,2.2-1,2.2-2.2l0,0v-4.6c0-1.2-1-2.2-2.2-2.2c0,0,0,0,0,0
						h-5.6c-1.2,0-2.2,1-2.2,2.2v4.6C20.5,272.3,21.5,273.2,22.7,273.2C22.7,273.2,22.7,273.2,22.7,273.2z"/>
					<path id="Path_2199" style="fill:#A1C4E8;" d="M537.5,106.4v-5.6c0-1.2-1-2.2-2.2-2.2l0,0h-4.6c-1.2,0-2.2,1-2.2,2.2
						c0,0,0,0,0,0v5.6c0,1.2,1,2.2,2.2,2.2l0,0h4.6C536.5,108.5,537.5,107.6,537.5,106.4L537.5,106.4L537.5,106.4"/>
					<path id="Path_2200" style="fill:#A1C4E8;" d="M537.5,124.5v-5.6c0-1.2-1-2.2-2.2-2.2h-4.6c-1.2,0-2.2,1-2.2,2.2v0v5.6
						c0,1.2,1,2.2,2.2,2.2h4.6C536.5,126.6,537.5,125.6,537.5,124.5L537.5,124.5L537.5,124.5"/>
					<path id="Path_2201" style="fill:#A1C4E8;" d="M537.5,142.5v-5.6c0-1.2-1-2.2-2.2-2.2h-4.6c-1.2,0-2.2,1-2.2,2.2v0v5.6
						c0,1.2,1,2.2,2.2,2.2h4.6C536.5,144.7,537.5,143.7,537.5,142.5L537.5,142.5L537.5,142.5"/>
				</g>
			</g>
		</g>
	</g>
</g>
</svg>
