<svg version="1.1" id="yearly-subscription" xmlns="http://www.w3.org/2000/svg" xmlns:xlink="http://www.w3.org/1999/xlink" x="0px" y="0px"
	 viewBox="0 0 274.8 276.5" style="enable-background:new 0 0 274.8 276.5;" xml:space="preserve">
	<g>
		<g>
			<defs>
				<polyline id="SVGID_2_" points="0,0 274.8,0 274.8,276.5 0,276.5 0,0 			"/>
			</defs>
			<clipPath id="SVGID_00000172427257948006985640000003678593088399293597_">
				<use xlink:href="#SVGID_2_"  style="overflow:visible;"/>
			</clipPath>
			<g style="clip-path:url(#SVGID_00000172427257948006985640000003678593088399293597_);">
				<path style="fill:#FFF8D3;" d="M260,189.2c-25.5,60.9-93.5,95.1-152.4,85.9c-9.6-1.5-35.9-6-59.1-27
					C3.7,207.5-5.9,127.2,30.2,70.6C56.5,29.5,103.7,6.1,148.5,7.3c9.7,0.2,46.6,1.8,79.1,29c9.7,8.2,18.1,17.8,24.8,28.5
					C274.7,100.2,276.6,149.4,260,189.2L260,189.2"/>
			</g>
			<g style="clip-path:url(#SVGID_00000172427257948006985640000003678593088399293597_);">
				<path style="fill:#AE00A9;" d="M1.5,177.8c6.2-27.1,33.2-44.1,60.4-37.9c3.8,0.9,7.4,2.1,10.9,3.8c2.9,1.4,6.4,0.2,7.8-2.7
					c0.2-0.4,0.3-0.8,0.4-1.2C90,104.3,121.4,78,158.9,78c44.4,0,80.4,36.9,80.4,82.4c0,1.2,0,2.9,0,4.4c0.2,3.4,1.6,4.8,3.8,5.2
					c17.4,1.9,31.1,16.6,31.8,34.7c0.9,20.8-15.7,38.1-36,38.1H50.8C18.7,242.8-6.5,212.2,1.5,177.8L1.5,177.8"/>
			</g>
			<g style="clip-path:url(#SVGID_00000172427257948006985640000003678593088399293597_);">
				<path style="fill:#D44CD8;" d="M16.1,184.8c5.5-24.2,29.7-39.4,53.9-33.9c3.4,0.8,6.6,1.9,9.7,3.4c2.6,1.3,5.7,0.2,7-2.4
					c0.2-0.3,0.3-0.7,0.4-1.1c8-31.7,36.1-55.1,69.5-55.1c39.6,0,71.7,32.9,71.7,73.6c0,1.1,0,2.6,0,4c0.1,3,1.4,4.3,3.4,4.7
					c15.5,1.7,27.7,14.8,28.4,31c0.8,18.6-14,34-32.1,34H60.1C31.4,242.8,8.9,215.4,16.1,184.8L16.1,184.8"/>
			</g>
			<g style="clip-path:url(#SVGID_00000172427257948006985640000003678593088399293597_);">
				<path style="fill:#272F65;" d="M37.9,265.1c0,1.5,1.2,2.8,2.8,2.8h149.9c1.5,0,2.8-1.2,2.8-2.8l1.2-86.1
					c-0.3-2.5-2.5-4.4-5.1-4.3L43,170.9c-3.9-0.1-7.1,2.9-7.2,6.8c0,0.1,0,0.2,0,0.3L37.9,265.1"/>
			</g>
			<g style="clip-path:url(#SVGID_00000172427257948006985640000003678593088399293597_);">
				<path style="fill:#EDE5F2;" d="M40.6,262.4c0,1.4,1.2,2.6,2.6,2.6H187c1.4,0,2.6-1.2,2.6-2.6l1.2-78.2c-0.1-3.6-3-6.4-6.6-6.3
					l-0.2,0l-140.4-3.8c-2.7-0.1-5,2.1-5,4.8l0,0.2L40.6,262.4"/>
			</g>
			<g style="clip-path:url(#SVGID_00000172427257948006985640000003678593088399293597_);">
				<path style="fill:#FFFFFF;" d="M188,225.3L188,225.3c-0.2,0-0.4-0.2-0.4-0.4l0,0l0.1-6.3c0-0.2,0.2-0.4,0.4-0.4
					c0.2,0,0.4,0.2,0.4,0.4l-0.1,6.3C188.4,225.1,188.2,225.3,188,225.3"/>
			</g>
			<g style="clip-path:url(#SVGID_00000172427257948006985640000003678593088399293597_);">
				<path style="fill:#FFFFFF;" d="M188.3,209.7L188.3,209.7c-0.2,0-0.4-0.2-0.4-0.4v0l0.4-24.3c0.1-1.3-0.4-2.5-1.3-3.4
					c-1.2-1-2.7-1.5-4.2-1.4l-44.9-1.2c-0.2,0-0.4-0.2-0.4-0.4c0-0.2,0.2-0.4,0.4-0.4l0,0l44.9,1.2c1.7-0.1,3.5,0.5,4.8,1.7
					c1,1.1,1.6,2.5,1.5,4l-0.4,24.3C188.6,209.6,188.5,209.7,188.3,209.7L188.3,209.7"/>
			</g>
			<g style="clip-path:url(#SVGID_00000172427257948006985640000003678593088399293597_);">
				<path style="fill:#272F65;" d="M29.5,275h169.2c2.1,0,3.8-1.6,3.8-3.7c0-2.1-1.6-3.8-3.7-3.8h-0.1H29.5c-2.1,0-3.8,1.6-3.8,3.7
					c0,2.1,1.6,3.8,3.7,3.8H29.5"/>
			</g>
			<g style="clip-path:url(#SVGID_00000172427257948006985640000003678593088399293597_);">
				<path style="fill:#77AED8;" d="M103,261.2H47.6c-2,0-3.7-1.7-3.7-3.7v-72.2c0-2,1.7-3.7,3.7-3.7l0.1,0l55.3,2.1
					c2,0.1,3.6,1.7,3.6,3.7v70.1C106.7,259.6,105,261.2,103,261.2L103,261.2"/>
			</g>
			<g style="clip-path:url(#SVGID_00000172427257948006985640000003678593088399293597_);">
				<defs>
					<polyline id="SVGID_00000063604966226899637430000011914330972058094758_" points="54.8,210 92.5,210 92.5,214.8 54.8,214.8 
						54.8,210 				"/>
				</defs>
				<clipPath id="SVGID_00000181774420040908482460000014727261413068020357_">
					<use xlink:href="#SVGID_00000063604966226899637430000011914330972058094758_"  style="overflow:visible;"/>
				</clipPath>
				<g style="clip-path:url(#SVGID_00000181774420040908482460000014727261413068020357_);">
					<path style="fill:#BCD7EC;" d="M90.2,210H57.1c-1.2,0.1-2.2,1.1-2.3,2.3v0.3c0.1,1.3,1.1,2.3,2.4,2.3c0,0,0,0,0,0h32.8
						c1.3,0,2.4-1.1,2.4-2.4C92.5,211.1,91.5,210,90.2,210"/>
				</g>
			</g>
			<g style="clip-path:url(#SVGID_00000172427257948006985640000003678593088399293597_);">
				<defs>
					<polyline id="SVGID_00000176012928828025496560000004403611312712425862_" points="54.9,217.7 92.6,217.7 92.6,222.6 
						54.9,222.6 54.9,217.7 				"/>
				</defs>
				<clipPath id="SVGID_00000109016390637909611100000017977865464145646516_">
					<use xlink:href="#SVGID_00000176012928828025496560000004403611312712425862_"  style="overflow:visible;"/>
				</clipPath>
				<g style="clip-path:url(#SVGID_00000109016390637909611100000017977865464145646516_);">
					<path style="fill:#BCD7EC;" d="M90.1,217.7C90.1,217.7,90.1,217.7,90.1,217.7H57.3h0c-1.3,0-2.4,1-2.4,2.3v0.3
						c0.1,1.3,1.1,2.3,2.4,2.3h33c1.3,0,2.3-1,2.4-2.3V220C92.5,218.7,91.4,217.7,90.1,217.7"/>
				</g>
			</g>
			<g style="clip-path:url(#SVGID_00000172427257948006985640000003678593088399293597_);">
				<defs>
					<polyline id="SVGID_00000078739370276818719660000005189198394832980157_" points="55.1,225.7 92.8,225.7 92.8,230.5 
						55.1,230.5 55.1,225.7 				"/>
				</defs>
				<clipPath id="SVGID_00000086671487229820146280000005329971011541786515_">
					<use xlink:href="#SVGID_00000078739370276818719660000005189198394832980157_"  style="overflow:visible;"/>
				</clipPath>
				<g style="clip-path:url(#SVGID_00000086671487229820146280000005329971011541786515_);">
					<path style="fill:#BCD7EC;" d="M90.4,225.7h-33c-1.3,0-2.4,1.1-2.4,2.4c0,1.3,1.1,2.4,2.4,2.4h32.8c1.3,0,2.4-1.1,2.4-2.4
						C92.8,226.8,91.7,225.7,90.4,225.7"/>
				</g>
			</g>
			<g style="clip-path:url(#SVGID_00000172427257948006985640000003678593088399293597_);">
				<defs>
					<polyline id="SVGID_00000013177981500264218770000018111121159691902884_" points="55.2,233.5 92.9,233.5 92.9,238.3 
						55.2,238.3 55.2,233.5 				"/>
				</defs>
				<clipPath id="SVGID_00000142890364623345546690000012230350631185753527_">
					<use xlink:href="#SVGID_00000013177981500264218770000018111121159691902884_"  style="overflow:visible;"/>
				</clipPath>
				<g style="clip-path:url(#SVGID_00000142890364623345546690000012230350631185753527_);">
					<path style="fill:#BCD7EC;" d="M90.4,233.5H57.6c-1.3,0-2.4,1-2.4,2.3v0.3c0.1,1.3,1.1,2.3,2.4,2.3h33c1.3,0,2.3-1,2.4-2.3v-0.3
						C92.8,234.5,91.7,233.5,90.4,233.5"/>
				</g>
			</g>
			<g style="clip-path:url(#SVGID_00000172427257948006985640000003678593088399293597_);">
				<path style="fill:#272F65;" d="M170.4,214.8h-49.3c-1.3,0-2.4-1.1-2.4-2.4c0-1.3,1.1-2.4,2.4-2.4h49.3c1.3,0,2.4,1.1,2.4,2.4
					C172.9,213.7,171.8,214.8,170.4,214.8"/>
			</g>
			<g style="clip-path:url(#SVGID_00000172427257948006985640000003678593088399293597_);">
				<path style="fill:#272F65;" d="M170.6,222.6h-49.3c-1.3,0-2.4-1.1-2.4-2.4c0-1.3,1.1-2.4,2.4-2.4h49.3c1.3,0,2.4,1.1,2.4,2.4
					C173.1,221.5,172,222.6,170.6,222.6L170.6,222.6"/>
			</g>
			<g style="clip-path:url(#SVGID_00000172427257948006985640000003678593088399293597_);">
				<path style="fill:#272F65;" d="M148.5,230.5h-27.2c-1.3,0-2.4-1.1-2.4-2.4c0-1.3,1.1-2.4,2.4-2.4h27.2c1.3,0,2.4,1.1,2.4,2.4
					C151,229.5,149.9,230.5,148.5,230.5"/>
			</g>
			<g style="clip-path:url(#SVGID_00000172427257948006985640000003678593088399293597_);">
				<defs>
					<polyline id="SVGID_00000119105283532511581430000003691586352916218244_" points="133,184.1 150,184.1 150,206.3 133,206.3 
						133,184.1 				"/>
				</defs>
				<clipPath id="SVGID_00000093143652651178997900000016254728337744964538_">
					<use xlink:href="#SVGID_00000119105283532511581430000003691586352916218244_"  style="overflow:visible;"/>
				</clipPath>
				<g style="clip-path:url(#SVGID_00000093143652651178997900000016254728337744964538_);">
					<path style="fill:#8888AA;" d="M144.1,184.1h-5.1c-2.3,0-4.1,1.9-4.1,4.1v2.8c0,0.4,0.3,0.7,0.7,0.7h0.8c0.4,0,0.7-0.3,0.7-0.7
						v-2.8c0-1,0.8-1.8,1.8-1.8h5.1c1,0,1.8,0.8,1.8,1.8v2.8c0,0.4,0.3,0.7,0.7,0.7h0.8h0c0.4,0,0.7-0.3,0.7-0.7v-2.8
						C148.2,185.9,146.3,184.1,144.1,184.1"/>
				</g>
				<g style="clip-path:url(#SVGID_00000093143652651178997900000016254728337744964538_);">
					<path style="fill:#8888AA;" d="M140,203.5c-0.3,0-0.6-0.3-0.6-0.6l0-0.1l0.7-2.8c-1.2-0.7-1.6-2.3-0.9-3.5
						c0.5-0.8,1.3-1.3,2.2-1.3c0.5,0,0.9,0.1,1.3,0.4c1.2,0.7,1.6,2.3,0.9,3.5c-0.2,0.4-0.5,0.7-0.9,0.9l0.7,2.8
						c0.1,0.3-0.1,0.6-0.4,0.7l-0.1,0H140 M148.5,192.5h-14c-0.9,0-1.5,0.7-1.5,1.5v10.7c0,0.9,0.7,1.5,1.5,1.5h14
						c0.9,0,1.5-0.7,1.5-1.5V194C150,193.2,149.3,192.5,148.5,192.5"/>
				</g>
			</g>
			<g style="clip-path:url(#SVGID_00000172427257948006985640000003678593088399293597_);">
				<path style="fill:#2F5B8B;" d="M188.1,66.7l-0.2,0c-0.2-0.1-0.2-0.3-0.1-0.5l0,0c0.2-0.4,0.4-0.8,0.6-1.2
					c0.1-0.2,0.3-0.2,0.4-0.2c0.2,0.1,0.2,0.3,0.2,0.4l0,0c-0.2,0.4-0.4,0.8-0.6,1.2C188.3,66.7,188.2,66.7,188.1,66.7"/>
			</g>
			<g style="clip-path:url(#SVGID_00000172427257948006985640000003678593088399293597_);">
				<path style="fill:#2F5B8B;" d="M149.2,89.6c-0.2,0-0.4,0-0.6,0c-0.2,0-0.3-0.1-0.3-0.3c0-0.2,0.1-0.3,0.3-0.3c0.9,0,1.7,0,2.6,0
					c0.2,0,0.3,0.1,0.3,0.3c0,0.2-0.1,0.3-0.3,0.3C150.5,89.6,149.8,89.6,149.2,89.6 M144.4,89.4L144.4,89.4
					c-0.9-0.1-1.8-0.2-2.6-0.4c-0.2,0-0.3-0.2-0.3-0.4c0-0.2,0.2-0.3,0.4-0.3l0,0c0.8,0.1,1.7,0.3,2.6,0.4c0.2,0,0.3,0.2,0.3,0.4
					C144.7,89.3,144.5,89.4,144.4,89.4 M155.4,89.2c-0.2,0-0.3-0.1-0.3-0.3c0-0.2,0.1-0.3,0.3-0.3c0.9-0.1,1.7-0.3,2.6-0.4
					c0.2,0,0.4,0.1,0.4,0.3c0,0.2-0.1,0.4-0.3,0.4C157.2,88.9,156.3,89.1,155.4,89.2L155.4,89.2 M137.6,88.1L137.6,88.1
					c-0.9-0.2-1.8-0.5-2.6-0.8c-0.2-0.1-0.3-0.2-0.2-0.4s0.2-0.3,0.4-0.2c0.8,0.3,1.6,0.5,2.5,0.7c0.2,0,0.3,0.2,0.2,0.4
					C137.9,88,137.8,88.1,137.6,88.1 M162.1,87.7c-0.2,0-0.3-0.1-0.3-0.3c0-0.1,0.1-0.3,0.2-0.3c0.8-0.2,1.6-0.5,2.5-0.8
					c0.2-0.1,0.4,0,0.4,0.2c0.1,0.2,0,0.3-0.2,0.4C163.9,87.2,163,87.5,162.1,87.7L162.1,87.7 M131.2,85.9l-0.1,0
					c-0.8-0.4-1.6-0.7-2.4-1.1c-0.2-0.1-0.2-0.3-0.1-0.5c0.1-0.1,0.3-0.2,0.4-0.1c0.8,0.4,1.5,0.8,2.3,1.1c0.2,0.1,0.2,0.3,0.2,0.4
					C131.4,85.8,131.3,85.9,131.2,85.9 M168.5,85.2c-0.2,0-0.3-0.1-0.3-0.3c0-0.1,0.1-0.2,0.2-0.3c0.8-0.4,1.5-0.8,2.3-1.2
					c0.2-0.1,0.4,0,0.5,0.1c0.1,0.2,0,0.4-0.1,0.5c-0.8,0.4-1.5,0.8-2.3,1.2L168.5,85.2 M125.2,82.6l-0.2-0.1c-0.7-0.5-1.5-1-2.2-1.5
					c-0.1-0.1-0.2-0.3-0.1-0.5s0.3-0.2,0.5-0.1c0.7,0.5,1.4,1,2.1,1.5c0.2,0.1,0.2,0.3,0.1,0.5C125.4,82.6,125.3,82.6,125.2,82.6
					M174.4,81.8c-0.2,0-0.3-0.1-0.3-0.3c0-0.1,0.1-0.2,0.1-0.3c0.7-0.5,1.4-1,2.1-1.5c0.1-0.1,0.4-0.1,0.5,0.1
					c0.1,0.1,0.1,0.3-0.1,0.4c-0.7,0.5-1.4,1.1-2.1,1.6L174.4,81.8 M119.7,78.5l-0.2-0.1c-0.7-0.6-1.3-1.2-1.9-1.8
					c-0.1-0.1-0.1-0.3,0-0.5s0.3-0.1,0.5,0l0,0c0.6,0.6,1.2,1.2,1.9,1.8c0.1,0.1,0.2,0.3,0,0.5C119.9,78.5,119.8,78.5,119.7,78.5
					M179.7,77.5c-0.2,0-0.3-0.1-0.3-0.3c0-0.1,0-0.2,0.1-0.2c0.6-0.6,1.2-1.2,1.8-1.8c0.1-0.1,0.3-0.2,0.5,0c0.1,0.1,0.2,0.3,0,0.5
					l0,0c-0.6,0.6-1.2,1.3-1.9,1.9L179.7,77.5 M114.9,73.6c-0.1,0-0.2,0-0.3-0.1c-0.6-0.7-1.1-1.4-1.6-2.1c-0.1-0.1-0.1-0.4,0.1-0.5
					c0.1-0.1,0.4-0.1,0.5,0.1c0.5,0.7,1,1.4,1.6,2c0.1,0.1,0.1,0.4,0,0.5L114.9,73.6 M184.3,72.4c-0.2,0-0.3-0.1-0.3-0.3l0.1-0.2
					c0.5-0.7,1-1.4,1.5-2.1c0.1-0.2,0.3-0.2,0.5-0.1c0.2,0.1,0.2,0.3,0.1,0.5c-0.5,0.7-1,1.4-1.6,2.1
					C184.5,72.4,184.4,72.4,184.3,72.4 M111,68c-0.1,0-0.2-0.1-0.3-0.2c-0.4-0.8-0.9-1.5-1.3-2.3c-0.1-0.2,0-0.4,0.1-0.5
					c0.2-0.1,0.4,0,0.5,0.1l0,0c0.4,0.8,0.8,1.5,1.3,2.3c0.1,0.2,0,0.4-0.1,0.5L111,68 M107.9,61.9c-0.1,0-0.3-0.1-0.3-0.2
					c-0.3-0.8-0.6-1.6-0.9-2.5c0-0.2,0.1-0.4,0.2-0.4c0.2,0,0.3,0,0.4,0.2c0.3,0.8,0.6,1.6,0.9,2.4c0.1,0.2,0,0.4-0.2,0.4L107.9,61.9
					"/>
			</g>
			<g style="clip-path:url(#SVGID_00000172427257948006985640000003678593088399293597_);">
				<path style="fill:#2F5B8B;" d="M105.9,55.4c-0.2,0-0.3-0.1-0.3-0.3c-0.1-0.4-0.2-0.9-0.3-1.3c0-0.2,0.1-0.4,0.3-0.4
					c0.2,0,0.3,0.1,0.4,0.3c0.1,0.4,0.2,0.9,0.3,1.3C106.2,55.1,106.1,55.3,105.9,55.4L105.9,55.4"/>
			</g>
			<g style="clip-path:url(#SVGID_00000172427257948006985640000003678593088399293597_);">
				<path style="fill:#2F5B8B;" d="M111.5,21.5c-0.2,0-0.3-0.2-0.3-0.3l0.1-0.2c0.2-0.4,0.5-0.8,0.7-1.1c0.1-0.2,0.3-0.2,0.5-0.1
					c0.2,0.1,0.2,0.3,0.1,0.5c-0.2,0.4-0.5,0.7-0.7,1.1C111.7,21.4,111.6,21.5,111.5,21.5"/>
			</g>
			<g style="clip-path:url(#SVGID_00000172427257948006985640000003678593088399293597_);">
				<path style="fill:#2F5B8B;" d="M191.9,32.6c-0.1,0-0.3-0.1-0.3-0.2c-0.3-0.9-0.5-1.7-0.8-2.6c-0.1-0.2,0-0.4,0.2-0.4
					s0.4,0,0.4,0.2l0,0c0.3,0.9,0.6,1.7,0.9,2.6C192.2,32.3,192.1,32.5,191.9,32.6L191.9,32.6 M189.3,25.9c-0.1,0-0.2-0.1-0.3-0.2
					c-0.4-0.8-0.8-1.6-1.3-2.4c-0.1-0.2,0-0.4,0.1-0.5c0.2-0.1,0.4,0,0.5,0.1c0.4,0.8,0.9,1.6,1.3,2.4c0.1,0.2,0,0.4-0.1,0.4
					L189.3,25.9 M185.7,19.7c-0.1,0-0.2-0.1-0.3-0.1c-0.5-0.7-1.1-1.5-1.6-2.2c-0.1-0.1-0.1-0.3,0-0.5c0.1-0.1,0.3-0.1,0.5,0l0,0
					c0.6,0.7,1.1,1.5,1.7,2.2c0.1,0.1,0.1,0.4-0.1,0.5l0,0L185.7,19.7 M114.9,16.8l-0.2-0.1c-0.1-0.1-0.2-0.3,0-0.5l0,0
					c0.6-0.7,1.2-1.4,1.8-2.1c0.1-0.1,0.3-0.1,0.5,0s0.1,0.3,0,0.5c-0.6,0.7-1.2,1.3-1.8,2C115.1,16.7,115,16.8,114.9,16.8
					M181.1,14.1c-0.1,0-0.2,0-0.2-0.1c-0.6-0.6-1.3-1.3-2-1.9c-0.1-0.1-0.1-0.3,0-0.5c0.1-0.1,0.3-0.1,0.4,0c0.7,0.6,1.3,1.3,2,1.9
					c0.1,0.1,0.1,0.3,0,0.5L181.1,14.1 M119.9,11.6c-0.2,0-0.3-0.1-0.3-0.3c0-0.1,0-0.2,0.1-0.3c0.7-0.6,1.4-1.2,2.1-1.8
					c0.1-0.1,0.4-0.1,0.5,0.1c0.1,0.1,0.1,0.3-0.1,0.5c-0.7,0.6-1.4,1.1-2.1,1.7L119.9,11.6 M175.7,9.4l-0.2-0.1
					c-0.7-0.5-1.5-1.1-2.2-1.6c-0.2-0.1-0.2-0.3-0.1-0.5c0.1-0.2,0.3-0.2,0.5-0.1c0.8,0.5,1.5,1,2.3,1.6c0.1,0.1,0.2,0.3,0.1,0.5
					C175.9,9.4,175.8,9.4,175.7,9.4 M125.7,7.4c-0.2,0-0.3-0.1-0.3-0.3c0-0.1,0.1-0.2,0.2-0.3c0.8-0.5,1.6-1,2.4-1.4
					c0.2-0.1,0.4,0,0.5,0.1c0.1,0.2,0,0.4-0.1,0.5c-0.8,0.4-1.6,0.9-2.4,1.4L125.7,7.4 M169.6,5.6l-0.2,0c-0.8-0.4-1.6-0.8-2.5-1.2
					c-0.2-0.1-0.2-0.3-0.2-0.4c0.1-0.2,0.3-0.2,0.4-0.2c0.8,0.4,1.7,0.8,2.5,1.2c0.2,0.1,0.2,0.3,0.1,0.4
					C169.8,5.5,169.7,5.6,169.6,5.6 M132.1,4.1c-0.2,0-0.3-0.1-0.3-0.3c0-0.1,0.1-0.3,0.2-0.3c0.8-0.4,1.7-0.7,2.6-1
					c0.2-0.1,0.4,0,0.4,0.2c0.1,0.2,0,0.4-0.2,0.4c-0.9,0.3-1.7,0.6-2.5,1L132.1,4.1 M162.9,2.8l-0.1,0c-0.9-0.3-1.7-0.5-2.6-0.8
					c-0.2,0-0.3-0.2-0.2-0.4c0-0.2,0.2-0.3,0.4-0.2c0.9,0.2,1.8,0.5,2.7,0.8c0.2,0.1,0.3,0.2,0.2,0.4C163.2,2.7,163.1,2.8,162.9,2.8
					M138.9,1.9c-0.2,0-0.3-0.1-0.3-0.3c0-0.2,0.1-0.3,0.3-0.3c0.9-0.2,1.8-0.4,2.7-0.6c0.2,0,0.4,0.1,0.4,0.3c0,0.2-0.1,0.4-0.3,0.4
					l0,0C140.8,1.5,139.9,1.6,138.9,1.9L138.9,1.9 M155.9,1.2L155.9,1.2c-0.9-0.1-1.9-0.2-2.8-0.3c-0.2,0-0.3-0.2-0.3-0.4
					c0-0.2,0.2-0.3,0.4-0.3c0.9,0.1,1.8,0.2,2.7,0.3c0.2,0,0.3,0.2,0.3,0.4C156.2,1.1,156.1,1.2,155.9,1.2 M146,0.8
					c-0.2,0-0.3-0.2-0.3-0.3c0-0.2,0.1-0.3,0.3-0.3c0.9-0.1,1.8-0.1,2.8-0.1c0.2,0,0.3,0.1,0.3,0.3c0,0.2-0.1,0.3-0.3,0.3
					C147.9,0.7,147,0.7,146,0.8L146,0.8"/>
			</g>
			<g style="clip-path:url(#SVGID_00000172427257948006985640000003678593088399293597_);">
				<path style="fill:#2F5B8B;" d="M193.1,38.3c-0.2,0-0.3-0.1-0.3-0.3c-0.1-0.4-0.1-0.9-0.2-1.3c0-0.2,0.1-0.4,0.3-0.4
					c0.2,0,0.4,0.1,0.4,0.3c0.1,0.4,0.2,0.9,0.2,1.3C193.5,38.1,193.4,38.2,193.1,38.3L193.1,38.3"/>
			</g>
			<g style="clip-path:url(#SVGID_00000172427257948006985640000003678593088399293597_);">
				<path style="fill:#588BBA;" d="M183.3,43.8c0-0.2-0.1-0.4-0.3-0.5l-6-2.6c-0.5-3-1.4-6-2.8-8.7l3.3-5.6c0.1-0.2,0.1-0.4-0.1-0.6
					l-5.1-5.9c-0.1-0.2-0.4-0.2-0.6-0.2l-6,2.4c-2.5-1.8-5.2-3.2-8.2-4.2l-1.6-6.3c-0.1-0.2-0.2-0.4-0.5-0.4l-7.8-0.6
					c-0.2,0-0.4,0.1-0.5,0.3l-2.6,6c-3,0.5-6,1.4-8.7,2.8l-5.6-3.3c-0.2-0.1-0.4-0.1-0.6,0.1l-5.9,5.1c-0.2,0.1-0.2,0.4-0.2,0.6
					l2.4,6c-1.8,2.5-3.2,5.2-4.2,8.2l-6.3,1.6c-0.2,0.1-0.4,0.2-0.4,0.5l-0.6,7.8c0,0.2,0.1,0.4,0.3,0.5l6,2.6c0.5,3,1.4,6,2.8,8.7
					l-3.3,5.6c-0.1,0.2-0.1,0.4,0.1,0.6l5.1,5.9c0.1,0.2,0.4,0.2,0.6,0.1l6-2.4c2.5,1.8,5.2,3.2,8.2,4.2l1.6,6.3
					c0.1,0.2,0.2,0.4,0.5,0.4l7.8,0.6c0.2,0,0.4-0.1,0.5-0.3l2.6-6c3-0.5,6-1.4,8.7-2.8l5.6,3.3c0.2,0.1,0.4,0.1,0.6-0.1l5.9-5.1
					c0.2-0.1,0.2-0.4,0.1-0.6l-2.4-6c1.8-2.5,3.2-5.2,4.2-8.2l6.3-1.6c0.2-0.1,0.4-0.2,0.4-0.5L183.3,43.8"/>
			</g>
			<g style="clip-path:url(#SVGID_00000172427257948006985640000003678593088399293597_);">
				<defs>
					<polyline id="SVGID_00000181804451740242544790000013287796107016355771_" points="141.5,37.6 156.3,37.6 156.3,52.5 
						141.5,52.5 141.5,37.6 				"/>
				</defs>
				<clipPath id="SVGID_00000119810445833224276610000004855654411617639558_">
					<use xlink:href="#SVGID_00000181804451740242544790000013287796107016355771_"  style="overflow:visible;"/>
				</clipPath>
				<g style="clip-path:url(#SVGID_00000119810445833224276610000004855654411617639558_);">
					<path style="fill:#CDDCEA;" d="M148.9,51.4c-3.1,0-5.8-2.2-6.3-5.3c-0.6-3.5,1.7-6.8,5.2-7.4c0.4-0.1,0.7-0.1,1.1-0.1
						c3.1,0,5.8,2.2,6.3,5.3c0.6,3.5-1.7,6.8-5.2,7.4C149.6,51.4,149.3,51.4,148.9,51.4 M149.8,37.6h-1.9c-3.4,0.4-6.1,3.1-6.5,6.5
						v1.8c0.4,3.6,3.5,6.4,7.2,6.6h0.5c0.3,0,0.7,0,1-0.1c3.4-0.6,6-3.5,6.2-6.9v-0.9C156.1,41,153.4,38.1,149.8,37.6"/>
				</g>
			</g>
			<g style="clip-path:url(#SVGID_00000172427257948006985640000003678593088399293597_);">
				<defs>
					<polyline id="SVGID_00000085955500895607788720000002264386956341364665_" points="129.4,25.7 167,25.7 167,64.4 129.4,64.4 
						129.4,25.7 				"/>
				</defs>
				<clipPath id="SVGID_00000014613706885374882200000017574662133725379986_">
					<use xlink:href="#SVGID_00000085955500895607788720000002264386956341364665_"  style="overflow:visible;"/>
				</clipPath>
				<g style="clip-path:url(#SVGID_00000014613706885374882200000017574662133725379986_);">
					<path style="fill:#CDDCEA;" d="M148.7,25.8c-10,0-18.4,7.7-19.2,17.8c0,0.5-0.1,1-0.1,1.5c0,10.1,7.8,18.4,17.8,19.2
						c0.5,0,1,0.1,1.5,0.1c8.3,0,15.6-5.3,18.3-13.2v0l-0.9-0.3c-2.5,7.4-9.5,12.5-17.3,12.5c0,0,0,0,0,0c-10.1,0-18.3-8.2-18.3-18.3
						c0-0.5,0-1,0.1-1.5c0.4-4.8,2.7-9.3,6.4-12.5c3.5-3,7.7-4.4,11.9-4.4c5.2,0,10.3,2.2,13.9,6.4c0.8,1,1.6,2.1,2.2,3.2l0.9-0.5
						c-3.1-5.8-8.9-9.6-15.5-10.1C149.7,25.8,149.2,25.8,148.7,25.8"/>
				</g>
			</g>
			<g style="clip-path:url(#SVGID_00000172427257948006985640000003678593088399293597_);">
				<path style="fill:#2F5B8B;" d="M225.6,77.7c-0.2,0-0.3-0.1-0.3-0.3l0-0.2c0.2-0.4,0.4-0.8,0.6-1.1c0.1-0.2,0.3-0.2,0.4-0.1
					c0.2,0.1,0.2,0.3,0.1,0.4c-0.2,0.4-0.4,0.8-0.7,1.2C225.8,77.6,225.7,77.7,225.6,77.7"/>
			</g>
			<g style="clip-path:url(#SVGID_00000172427257948006985640000003678593088399293597_);">
				<path style="fill:#2F5B8B;" d="M204.1,88.8L204.1,88.8c-0.9-0.1-1.8-0.2-2.7-0.4c-0.2,0-0.3-0.2-0.3-0.4c0-0.2,0.2-0.3,0.4-0.3
					c0.9,0.2,1.7,0.3,2.6,0.4c0.2,0,0.3,0.2,0.3,0.4C204.4,88.6,204.3,88.8,204.1,88.8 M208.5,88.7c-0.2,0-0.3-0.2-0.3-0.3
					c0-0.2,0.1-0.3,0.3-0.3c0.9-0.1,1.7-0.2,2.6-0.4c0.2,0,0.4,0.1,0.4,0.2s-0.1,0.4-0.2,0.4C210.3,88.5,209.4,88.6,208.5,88.7
					L208.5,88.7 M197.3,87.2l-0.1,0c-0.8-0.3-1.7-0.7-2.5-1.2c-0.2-0.1-0.2-0.3-0.1-0.5c0.1-0.2,0.3-0.2,0.5-0.1
					c0.8,0.4,1.6,0.8,2.4,1.1c0.2,0.1,0.3,0.3,0.2,0.4C197.6,87.1,197.4,87.2,197.3,87.2 M215.2,86.9c-0.2,0-0.3-0.2-0.3-0.3
					c0-0.1,0.1-0.2,0.2-0.3c0.8-0.4,1.6-0.8,2.3-1.2c0.2-0.1,0.4,0,0.4,0.1c0.1,0.2,0,0.3-0.1,0.4c-0.8,0.5-1.6,0.9-2.4,1.3
					L215.2,86.9 M191.3,83.6l-0.2-0.1c-0.7-0.6-1.4-1.2-2-1.9c-0.1-0.1-0.1-0.3,0-0.5c0.1-0.1,0.3-0.1,0.5,0c0.6,0.6,1.2,1.2,1.9,1.8
					c0.1,0.1,0.2,0.3,0,0.5l0,0C191.5,83.5,191.4,83.6,191.3,83.6 M221.1,83.1c-0.2,0-0.3-0.1-0.3-0.3c0-0.1,0-0.2,0.1-0.3l0.2-0.2
					c0.6-0.5,1.1-1.1,1.7-1.7c0.1-0.1,0.3-0.2,0.5,0c0.1,0.1,0.2,0.3,0,0.5c-0.5,0.6-1.1,1.2-1.7,1.7l-0.2,0.2L221.1,83.1
					M186.7,78.3c-0.1,0-0.2-0.1-0.3-0.2c-0.5-0.8-0.9-1.6-1.3-2.4c-0.1-0.2,0-0.4,0.2-0.4c0.2-0.1,0.4,0,0.4,0.2
					c0.4,0.8,0.8,1.6,1.3,2.3c0.1,0.2,0.1,0.4-0.1,0.5l0,0L186.7,78.3"/>
			</g>
			<g style="clip-path:url(#SVGID_00000172427257948006985640000003678593088399293597_);">
				<path style="fill:#2F5B8B;" d="M183.8,71.9c-0.2,0-0.3-0.1-0.3-0.2c-0.1-0.4-0.2-0.9-0.3-1.3c0-0.2,0.1-0.4,0.2-0.4
					c0.2,0,0.4,0.1,0.4,0.2l0,0c0.1,0.4,0.2,0.9,0.3,1.3C184.2,71.6,184.1,71.8,183.8,71.9L183.8,71.9L183.8,71.9"/>
			</g>
			<g style="clip-path:url(#SVGID_00000172427257948006985640000003678593088399293597_);">
				<path style="fill:#2F5B8B;" d="M186.6,53.8c-0.2,0-0.3-0.2-0.3-0.3l0.1-0.2c0.2-0.4,0.5-0.8,0.8-1.1c0.1-0.1,0.3-0.2,0.5-0.1
					c0.1,0.1,0.2,0.3,0.1,0.5l0,0c-0.3,0.4-0.5,0.7-0.7,1.1C186.8,53.8,186.7,53.8,186.6,53.8"/>
			</g>
			<g style="clip-path:url(#SVGID_00000172427257948006985640000003678593088399293597_);">
				<path style="fill:#2F5B8B;" d="M227,57.1c-0.1,0-0.3-0.1-0.3-0.2c-0.3-0.8-0.7-1.6-1.2-2.3c-0.1-0.2,0-0.4,0.1-0.5s0.4,0,0.5,0.1
					c0.4,0.8,0.8,1.6,1.2,2.4c0.1,0.2,0,0.4-0.2,0.4L227,57.1 M223.3,51.2c-0.1,0-0.2,0-0.3-0.1c-0.2-0.2-0.3-0.4-0.5-0.6
					c-0.4-0.4-0.8-0.9-1.3-1.3c-0.1-0.1-0.1-0.3,0-0.5c0.1-0.1,0.3-0.1,0.5,0c0.5,0.4,0.9,0.9,1.3,1.3c0.2,0.2,0.4,0.4,0.5,0.6
					c0.1,0.1,0.1,0.3,0,0.5L223.3,51.2 M190.1,49.5c-0.1,0-0.2,0-0.2-0.1c-0.1-0.1-0.1-0.3,0-0.5c0.1-0.1,0.3-0.3,0.4-0.4
					c0.5-0.5,1.1-0.9,1.6-1.4c0.2-0.1,0.4-0.1,0.5,0.1c0.1,0.1,0.1,0.3-0.1,0.4c-0.5,0.4-1.1,0.9-1.6,1.3c-0.1,0.1-0.3,0.2-0.4,0.4
					L190.1,49.5 M218.1,46.7l-0.2-0.1c-0.7-0.5-1.5-0.9-2.3-1.3c-0.2-0.1-0.2-0.3-0.1-0.4c0.1-0.2,0.3-0.2,0.4-0.2
					c0.8,0.4,1.6,0.8,2.3,1.3c0.2,0.1,0.2,0.3,0.1,0.5C218.3,46.6,218.2,46.7,218.1,46.7 M195.8,45.5c-0.2,0-0.3-0.1-0.3-0.3
					c0-0.1,0.1-0.2,0.2-0.3c0.8-0.4,1.6-0.7,2.5-1.1c0.2-0.1,0.4,0,0.4,0.2c0.1,0.2,0,0.4-0.2,0.4c-0.8,0.3-1.6,0.6-2.4,1L195.8,45.5
					M211.8,43.9L211.8,43.9c-0.9-0.2-1.8-0.4-2.6-0.5c-0.2,0-0.3-0.2-0.3-0.4l0,0c0-0.2,0.2-0.3,0.4-0.3l0,0
					c0.9,0.1,1.8,0.3,2.6,0.5c0.2,0,0.3,0.2,0.2,0.4C212.1,43.8,212,43.9,211.8,43.9 M202.3,43.4c-0.2,0-0.3-0.1-0.3-0.3
					c0-0.2,0.1-0.3,0.3-0.3c0.9-0.1,1.8-0.2,2.7-0.3c0.2,0,0.3,0.1,0.3,0.3c0,0.2-0.1,0.3-0.3,0.3C204.1,43.2,203.2,43.3,202.3,43.4
					L202.3,43.4"/>
			</g>
			<g style="clip-path:url(#SVGID_00000172427257948006985640000003678593088399293597_);">
				<path style="fill:#2F5B8B;" d="M228.5,62.5c-0.2,0-0.3-0.1-0.3-0.3c-0.1-0.4-0.1-0.9-0.2-1.3c0-0.2,0.1-0.4,0.2-0.4
					c0.2,0,0.4,0.1,0.4,0.2l0,0c0.1,0.4,0.2,0.9,0.2,1.3C228.8,62.3,228.7,62.4,228.5,62.5L228.5,62.5"/>
			</g>
			<g style="clip-path:url(#SVGID_00000172427257948006985640000003678593088399293597_);">
				<path style="fill:#588BBA;" d="M223.5,65.2c0-0.1-0.1-0.2-0.2-0.3l-3.1-1.3c-0.2-1.6-0.7-3.1-1.5-4.5l1.7-2.9
					c0.1-0.1,0-0.2,0-0.3l-2.6-3c-0.1-0.1-0.2-0.1-0.3-0.1l-3.1,1.2c-1.3-0.9-2.7-1.7-4.2-2.1l-0.8-3.2c0-0.1-0.1-0.2-0.2-0.2l-4-0.3
					c-0.1,0-0.2,0.1-0.3,0.2l-1.3,3.1c-1.6,0.2-3.1,0.7-4.5,1.5l-2.9-1.7c-0.1-0.1-0.2,0-0.3,0l-3,2.6c-0.1,0.1-0.1,0.2-0.1,0.3
					l1.2,3.1c-0.9,1.3-1.7,2.7-2.1,4.2l-3.2,0.8c-0.1,0-0.2,0.1-0.2,0.2l-0.3,4c0,0.1,0.1,0.2,0.2,0.3l3.1,1.3
					c0.2,1.6,0.7,3.1,1.5,4.5l-1.7,2.9c-0.1,0.1,0,0.2,0,0.3l2.6,3c0.1,0.1,0.2,0.1,0.3,0.1l3.1-1.2c1.3,0.9,2.7,1.7,4.2,2.1l0.8,3.2
					c0,0.1,0.1,0.2,0.2,0.2l4,0.3c0.1,0,0.2-0.1,0.3-0.2l1.3-3.1c1.6-0.2,3.1-0.7,4.5-1.5l2.9,1.7c0.1,0.1,0.2,0,0.3,0l3-2.6
					c0.1-0.1,0.1-0.2,0.1-0.3l-1.2-3.1c0.9-1.3,1.7-2.7,2.1-4.2l3.2-0.8c0.1,0,0.2-0.1,0.2-0.2L223.5,65.2"/>
			</g>
			<g style="clip-path:url(#SVGID_00000172427257948006985640000003678593088399293597_);">
				<defs>
					<polyline id="SVGID_00000061446446571244233330000016666592205593662123_" points="201.7,61.7 209.8,61.7 209.8,69.8 
						201.7,69.8 201.7,61.7 				"/>
				</defs>
				<clipPath id="SVGID_00000010990504201564802800000014643666111614550947_">
					<use xlink:href="#SVGID_00000061446446571244233330000016666592205593662123_"  style="overflow:visible;"/>
				</clipPath>
				<g style="clip-path:url(#SVGID_00000010990504201564802800000014643666111614550947_);">
					<path style="fill:#CDDCEA;" d="M205.8,68.8C205.8,68.8,205.8,68.8,205.8,68.8c-1.7,0-3.1-1.4-3.1-3.1c0-1.7,1.4-3.1,3.1-3.1
						c0,0,0,0,0,0c0.6,0,1.2,0.2,1.8,0.6c0.8,0.6,1.3,1.5,1.3,2.5C208.8,67.5,207.5,68.8,205.8,68.8 M206.2,61.7h-0.8
						c-1.9,0.2-3.5,1.7-3.7,3.7v0.8c0.2,2.1,1.9,3.7,4,3.7l0,0h0c0.2,0,0.5,0,0.7-0.1c1.9-0.3,3.3-1.9,3.4-3.8v-0.3
						C209.8,63.6,208.2,61.9,206.2,61.7"/>
				</g>
			</g>
			<g style="clip-path:url(#SVGID_00000172427257948006985640000003678593088399293597_);">
				<defs>
					<polyline id="SVGID_00000094610955031304625450000002839962204675021502_" points="195.5,55.6 215.3,55.6 215.3,76 195.5,76 
						195.5,55.6 				"/>
				</defs>
				<clipPath id="SVGID_00000129919434260798423040000011099129564196824247_">
					<use xlink:href="#SVGID_00000094610955031304625450000002839962204675021502_"  style="overflow:visible;"/>
				</clipPath>
				<g style="clip-path:url(#SVGID_00000129919434260798423040000011099129564196824247_);">
					<path style="fill:#CDDCEA;" d="M206,55.6h-0.6c-5.1,0.2-9.4,4.1-9.8,9.4c0,0.2,0,0.3,0,0.5v0.6c0.2,5.1,4.1,9.4,9.4,9.8
						c0.2,0,0.4,0,0.7,0h0.3c4.3-0.1,8.1-2.8,9.5-6.9l-0.9-0.3c-1,3-3.4,5.2-6.5,6c-0.7,0.2-1.5,0.3-2.2,0.3c-4.1,0-7.8-2.8-8.9-7
						c-1.2-4.9,1.8-9.9,6.7-11.1c0.7-0.2,1.5-0.3,2.2-0.3c3.3,0,6.4,1.8,8.1,4.8l0.9-0.5l0-0.1l0,0l0,0l0,0v0c-0.3-0.5-0.7-1-1-1.5
						l-0.1-0.1c-1.8-2-4.2-3.3-6.9-3.5C206.3,55.6,206.2,55.6,206,55.6"/>
				</g>
			</g>
			<g style="clip-path:url(#SVGID_00000172427257948006985640000003678593088399293597_);">
				<path style="fill:#33AE00;" d="M141,111.6c0.8-0.8,1.9-1.2,3-1.1c12,1.1,34.3-4.7,48.9-19.6c1-1,2.9-0.4,4,0.4
					c16.2,12.1,43.1,14.6,52.5,15.2c1.9,0.1,3.5,1.6,3.7,3.5c8.5,82-44.9,111.7-56,117c-1.2,0.6-2.6,0.5-3.8-0.2
					c-55.2-34.4-52.8-79.1-53.6-112.2C139.7,113.5,140.2,112.4,141,111.6L141,111.6"/>
			</g>
			<g style="clip-path:url(#SVGID_00000172427257948006985640000003678593088399293597_);">
				<defs>
					<polyline id="SVGID_00000036248906945656634110000008191569646319556516_" points="145.7,97.5 248.1,97.5 248.1,221.1 
						145.7,221.1 145.7,97.5 				"/>
				</defs>
				<clipPath id="SVGID_00000002352535753114058040000002970590820456764556_">
					<use xlink:href="#SVGID_00000036248906945656634110000008191569646319556516_"  style="overflow:visible;"/>
				</clipPath>
				<g style="clip-path:url(#SVGID_00000002352535753114058040000002970590820456764556_);">
					<path style="fill:#B0E09C;" d="M147,117.1c13.2,0,33-5.8,47.6-18.9c0.1-0.1,0.3-0.2,0.5-0.2c0.1,0,0.3,0,0.4,0.1
						c16,10.6,38.7,13.7,50.8,14.6c0.4,0,0.7,0.3,0.7,0.7c2.8,31.9-3.8,58.8-19.7,80.1c-8.3,11.2-19,20.4-31.3,27l0.1,0.2l-0.1-0.2
						l0,0c-0.1,0.1-0.2,0.1-0.4,0.1c-0.1,0-0.3,0-0.4-0.1c-21.1-13.5-34.8-29.5-42-49.2c-6.4-17.5-6.7-35.5-7-51.3l0-2.1
						c0-0.2,0.1-0.4,0.2-0.5C146.6,117.2,146.8,117.1,147,117.1C147,117.1,147,117.1,147,117.1 M195.1,97.5H195
						c-0.3,0-0.6,0.1-0.8,0.3c-14.4,12.9-34.1,18.7-47.2,18.7c0,0,0,0,0,0c-0.4,0-0.7,0.1-0.9,0.4c-0.2,0.2-0.4,0.6-0.4,0.9l0,2.1
						c0.3,15.8,0.6,33.8,7,51.4c7.2,19.7,21,35.9,42.2,49.4c0.2,0.1,0.5,0.2,0.7,0.2h0l0,0l0,0h0c0.2,0,0.4-0.1,0.6-0.1
						c12.4-6.6,23.1-15.9,31.5-27.1c13.3-17.9,20.2-39.8,20.4-65.2V126c0-4.1-0.2-8.3-0.6-12.6c-0.1-0.6-0.6-1.1-1.2-1.2
						c-12.1-0.9-34.7-4-50.5-14.5C195.6,97.6,195.4,97.5,195.1,97.5"/>
				</g>
			</g>
			<g style="clip-path:url(#SVGID_00000172427257948006985640000003678593088399293597_);">
				<defs>
					<polyline id="SVGID_00000150819758841659309690000011602553777333632175_" points="176.6,119.3 217.1,119.3 217.1,142.6 
						176.6,142.6 176.6,119.3 				"/>
				</defs>
				<clipPath id="SVGID_00000085962548223958026500000017469988908132318349_">
					<use xlink:href="#SVGID_00000150819758841659309690000011602553777333632175_"  style="overflow:visible;"/>
				</clipPath>
				<g style="clip-path:url(#SVGID_00000085962548223958026500000017469988908132318349_);">
					<path style="fill:#B0E09C;" d="M204.6,119.3h-15.5c-6.8,0-12.4,5.5-12.5,12.3v8.9c0,1.2,1,2.1,2.2,2.1h2.6c1.2,0,2.2-1,2.2-2.2
						v-8.5v0c0-3.1,2.5-5.5,5.5-5.5h15.5h0c3.1,0,5.5,2.5,5.5,5.5v8.5c0,1.2,1,2.2,2.2,2.2h2.6c1.2,0,2.2-1,2.2-2.2v-8.5
						C217.1,124.9,211.5,119.3,204.6,119.3"/>
				</g>
			</g>
			<g style="clip-path:url(#SVGID_00000172427257948006985640000003678593088399293597_);">
				<defs>
					<polyline id="SVGID_00000051379527898866208640000009808040781437662876_" points="171.1,144.6 222.7,144.6 222.7,186.3 
						171.1,186.3 171.1,144.6 				"/>
				</defs>
				<clipPath id="SVGID_00000085213014928189648110000015378243020763056031_">
					<use xlink:href="#SVGID_00000051379527898866208640000009808040781437662876_"  style="overflow:visible;"/>
				</clipPath>
				<g style="clip-path:url(#SVGID_00000085213014928189648110000015378243020763056031_);">
					<path style="fill:#B0E09C;" d="M192.5,178c-1,0-1.7-0.8-1.7-1.7c0-0.1,0-0.3,0-0.4l2-8.5c-3.7-2.2-4.9-7-2.7-10.7
						c1.5-2.5,4.1-3.8,6.7-3.8c1.4,0,2.7,0.4,4,1.1c3.7,2.2,4.9,7,2.7,10.7c-0.7,1.1-1.6,2-2.7,2.7l2,8.5c0.2,0.9-0.4,1.9-1.3,2.1
						c-0.1,0-0.3,0-0.4,0H192.5C192.5,178,192.5,178,192.5,178 M218,144.6h-42.3c-2.5,0.1-4.4,2-4.5,4.5v32.8
						c0.1,2.5,2.2,4.5,4.7,4.5H218c2.6,0,4.7-2.1,4.7-4.7v-32.4C222.7,146.7,220.6,144.6,218,144.6L218,144.6L218,144.6"/>
				</g>
			</g>
			<g style="clip-path:url(#SVGID_00000172427257948006985640000003678593088399293597_);">
				<path style="fill:#272F65;" d="M35.1,134c0,0,3.4,0.2,3.8,7.2c0,0-7.9,7.1-18.6,8.8c-0.8,0.1,1.1-5.5,1.4-6.2
					C23.1,140.2,27.5,137.8,35.1,134"/>
			</g>
			<g style="clip-path:url(#SVGID_00000172427257948006985640000003678593088399293597_);">
				<path style="fill:#7D97F4;" d="M73.6,125.7h-7.2c0,0-22.1-24.4-36.7-26.9c0,0-10.1,12.9,0.5,37c0.8,1.8,2.8,2.6,4.6,1.9
					c0.1-0.1,0.3-0.1,0.4-0.2c0.5-0.3,0.9-0.8,1.2-1.4l-0.9-20.6c0,0,18.9,16.5,22.2,19.7S77.8,136.5,73.6,125.7"/>
			</g>
			<g style="clip-path:url(#SVGID_00000172427257948006985640000003678593088399293597_);">
				<path style="fill:#272F65;" d="M3.9,177.1c4.2-3.6,9.3-5.9,14.8-6.5L21,172c-1.2,1.7-2.6,3.2-4.2,4.5c-2.5,1.5-6.4,3.4-9.6,3.9
					C4.1,180.9,3.6,179,3.9,177.1"/>
			</g>
			<g style="clip-path:url(#SVGID_00000172427257948006985640000003678593088399293597_);">
				<path style="fill:#91B3FA;" d="M21.8,143.8c1.9,0.6,2.7,3.2,7.4,1.5c3.4-1.3,6.7-3,9.7-5.1c0,0.3,0.1,0.7,0.1,1.1
					c0,0-8.4,7.9-19.1,9.6c-0.6,0.1-1.1-0.3-1.2-0.9c0-0.2,0-0.4,0.1-0.5C19.5,147.4,20.5,145.5,21.8,143.8"/>
			</g>
			<g style="clip-path:url(#SVGID_00000172427257948006985640000003678593088399293597_);">
				<path style="fill:#91B3FA;" d="M1.6,179.3c0.7-0.8,1.5-1.6,2.3-2.3c-0.3,1.9,0.1,3.8,3.3,3.4c3.2-0.4,7.1-2.4,9.6-3.9
					C13,180.1,8,182,2.8,182c-0.9,0-1.6-0.7-1.6-1.6C1.3,180,1.4,179.6,1.6,179.3"/>
			</g>
			<g style="clip-path:url(#SVGID_00000172427257948006985640000003678593088399293597_);">
				<path style="fill:#7D97F4;" d="M73.4,131l-33.8,0.4c0,0-19.3,16-22.8,40.3c0,0-0.6,1.8,2.9,2.1c7.9-5.6,14.4-12.8,19.3-21.1
					c9.3-16.5,27.8-9.1,27.8-9.1c8.9,2,15.9,1.2,21.1-6.7L73.4,131z"/>
			</g>
		</g>
		<g>
			<defs>
				<path id="SVGID_00000028323867513475010870000005015797020234058919_" d="M51.1,129.2l-6.3-0.7l-1.5,2.4l14.9,0.5
					c8.4-3.9,15.3-10.5,19.4-18.7c0.2-0.5,3.9-8.1-5-8.8C72.6,103.8,68.9,122,51.1,129.2L51.1,129.2"/>
			</defs>
			<clipPath id="SVGID_00000067919895123282522550000001589381475140529577_">
				<use xlink:href="#SVGID_00000028323867513475010870000005015797020234058919_"  style="overflow:visible;"/>
			</clipPath>
			<g style="clip-path:url(#SVGID_00000067919895123282522550000001589381475140529577_);">
				<g>
					<defs>
						
							<rect id="SVGID_00000167380931349234632620000009124036291353677745_" x="38.9" y="94.7" transform="matrix(0.765 -0.644 0.644 0.765 -61.0112 67.8045)" width="47" height="45.7"/>
					</defs>
					<clipPath id="SVGID_00000061432235022092869320000004779469811006857118_">
						<use xlink:href="#SVGID_00000167380931349234632620000009124036291353677745_"  style="overflow:visible;"/>
					</clipPath>
					<polygon style="clip-path:url(#SVGID_00000061432235022092869320000004779469811006857118_);fill:#FF928E;" points="29.7,111.6 
						61.4,84.9 95.1,84.9 95.1,123.4 63.4,150.1 29.7,150.1 				"/>
				</g>
			</g>
		</g>
		<g>
			<defs>
				<polyline id="SVGID_00000125573410200556992510000004015048500081231259_" points="0,0 274.8,0 274.8,276.5 0,276.5 0,0 			"/>
			</defs>
			<clipPath id="SVGID_00000109748661685938577420000010074031557681493424_">
				<use xlink:href="#SVGID_00000125573410200556992510000004015048500081231259_"  style="overflow:visible;"/>
			</clipPath>
			<g style="clip-path:url(#SVGID_00000109748661685938577420000010074031557681493424_);">
				<path style="fill:#EDE5F2;" d="M70.6,130.7c2.5-7.2,4.2-14.6,5-22.2c-1.6-1.3-3.2-2.6-4.9-3.7c-0.6-0.4-0.8-1.1-0.5-1.8
					c1.4-2.9,9.8-14.2,10.4-14.3c3.4-0.9,17.5-7.5,27.3,6c4.2,5.8-0.8,23.7-20.1,42.2C81.7,137.8,75.9,136.1,70.6,130.7"/>
			</g>
		</g>
		<g>
			<defs>
				<path id="SVGID_00000124882264603406579790000001228798021216900741_" d="M60.4,126.6c0,0-3.8-3.5-6.6-2.2
					c-2.8,1.2-6.7,6.7-6.7,6.7h18.9c0,0,17.8-0.6,26.7-11.4c-0.7-3.8-2.9-6-6.1-8.6C86.6,111,75.1,124.6,60.4,126.6L60.4,126.6"/>
			</defs>
			<clipPath id="SVGID_00000086679870532521588470000001523700938466858933_">
				<use xlink:href="#SVGID_00000124882264603406579790000001228798021216900741_"  style="overflow:visible;"/>
			</clipPath>
			<g style="clip-path:url(#SVGID_00000086679870532521588470000001523700938466858933_);">
				<g>
					<defs>
						
							<rect id="SVGID_00000076568502890023592870000003225055609500247961_" x="45.5" y="99.4" transform="matrix(0.8073 -0.5902 0.5902 0.8073 -57.9422 64.5513)" width="48.6" height="43.1"/>
					</defs>
					<clipPath id="SVGID_00000086651971436433724770000010514314251612306878_">
						<use xlink:href="#SVGID_00000076568502890023592870000003225055609500247961_"  style="overflow:visible;"/>
					</clipPath>
					<polygon style="clip-path:url(#SVGID_00000086651971436433724770000010514314251612306878_);fill:#FF928E;" points="37.5,114.9 
						72.5,89.2 102.2,89.2 102.2,127.1 67.2,152.7 37.5,152.7 				"/>
				</g>
			</g>
		</g>
		<g>
			<defs>
				<path id="SVGID_00000089532157768954282170000013599361395852515000_" d="M85.2,80.9l0.6,7.3c0,0.5,0.4,1,0.9,1.2
					c2.9,1.2,6.1,0.8,8.7-0.9c0.3-0.2,0.5-0.6,0.4-1l-2.5-8.4L85.2,80.9"/>
			</defs>
			<clipPath id="SVGID_00000173868172369551551420000008053033698342339468_">
				<use xlink:href="#SVGID_00000089532157768954282170000013599361395852515000_"  style="overflow:visible;"/>
			</clipPath>
			<g style="clip-path:url(#SVGID_00000173868172369551551420000008053033698342339468_);">
				<g>
					<defs>
						
							<rect id="SVGID_00000145041686769603263310000001279628593043709631_" x="84.6" y="78.6" transform="matrix(0.9939 -0.1104 0.1104 0.9939 -8.8404 10.5203)" width="11.9" height="13"/>
					</defs>
					<clipPath id="SVGID_00000111902886726990727900000007662500112254364599_">
						<use xlink:href="#SVGID_00000145041686769603263310000001279628593043709631_"  style="overflow:visible;"/>
					</clipPath>
					
						<rect x="83.9" y="78" style="clip-path:url(#SVGID_00000111902886726990727900000007662500112254364599_);fill:#FF928E;" width="13.3" height="14.2"/>
				</g>
			</g>
		</g>
		<g>
			<defs>
				<path id="SVGID_00000107558446770393130060000013158402157815078579_" d="M78.5,72.3c0,0,1.2,8.7,4.6,11.4
					c3.3,2.7,9.8,0.7,12-5.9l-4.4-11.2L78.5,72.3"/>
			</defs>
			<clipPath id="SVGID_00000047030541789168298780000014971911921974887863_">
				<use xlink:href="#SVGID_00000107558446770393130060000013158402157815078579_"  style="overflow:visible;"/>
			</clipPath>
			<g style="clip-path:url(#SVGID_00000047030541789168298780000014971911921974887863_);">
				<g>
					<defs>
						
							<rect id="SVGID_00000072243014126354104850000016622866336557075627_" x="75" y="65.7" transform="matrix(0.29 -0.957 0.957 0.29 -11.542 137.4202)" width="23.7" height="21.6"/>
					</defs>
					<clipPath id="SVGID_00000083775431553135219600000017401139089894560152_">
						<use xlink:href="#SVGID_00000072243014126354104850000016622866336557075627_"  style="overflow:visible;"/>
					</clipPath>
					<polygon style="clip-path:url(#SVGID_00000083775431553135219600000017401139089894560152_);fill:#FF928E;" points="73.1,75.8 
						77.2,62 100.6,62 100.6,77.2 96.5,91 73.1,91 				"/>
				</g>
			</g>
		</g>
		<g>
			<defs>
				<polyline id="SVGID_00000021835292512639837410000010127414801527102625_" points="0,0 274.8,0 274.8,276.5 0,276.5 0,0 			"/>
			</defs>
			<clipPath id="SVGID_00000137112540538579034910000006044511657465505712_">
				<use xlink:href="#SVGID_00000021835292512639837410000010127414801527102625_"  style="overflow:visible;"/>
			</clipPath>
			<g style="clip-path:url(#SVGID_00000137112540538579034910000006044511657465505712_);">
				<path style="fill:#272F65;" d="M91.3,73.9c-0.2,0.1-0.5,0-0.5-0.3l0-0.1c-0.2-1.2-0.5-2.4-1-3.5c0,0,0.3-1.1-2.9,0.6
					s-8,4.3-10.8,2.7c-2.8-1.5-5.6-8.9,1.7-7.5c0.2,0,0.5-0.1,0.5-0.3l0-0.1c-0.1-1.2,0-4,2.9-4.9c2.6-0.8,4.1,0.4,4.7,1.1
					c0.2,0.2,0.4,0.2,0.6,0.1l0.1-0.1c1.3-2,3.9-2.8,6.1-1.8c2.6,1.2,3,2.8,3,3.8c0,0.2,0.2,0.4,0.4,0.5l0.2,0c1.2-0.6,2.6-0.1,3.3,1
					c1.7,2.1-0.7,4-1.5,4.5c-0.1,0.1-0.2,0.2-0.2,0.4c0,1.1-0.2,6-2.6,8.7c-0.2,0.2-0.4,0.2-0.6,0l-0.1-0.2l-1.9-4.5
					c-0.1-0.2-0.3-0.3-0.5-0.2L91.3,73.9z"/>
			</g>
		</g>
		<g>
			<defs>
				<path id="SVGID_00000108288056850390591130000013609154210677644682_" d="M91.2,74.8l0.4,2.3c2-0.6,4.2-4,2.4-5.5
					c-0.2-0.2-0.4-0.3-0.7-0.3C92.1,71.3,91.2,74.8,91.2,74.8L91.2,74.8"/>
			</defs>
			<clipPath id="SVGID_00000006689967972125170300000000131644748744882341_">
				<use xlink:href="#SVGID_00000108288056850390591130000013609154210677644682_"  style="overflow:visible;"/>
			</clipPath>
			<g style="clip-path:url(#SVGID_00000006689967972125170300000000131644748744882341_);">
				<g>
					<defs>
						
							<rect id="SVGID_00000020393119033252373540000013501081028777109178_" x="90.1" y="71.2" transform="matrix(0.2902 -0.957 0.957 0.2902 -4.6162 142.1842)" width="6.9" height="6.1"/>
					</defs>
					<clipPath id="SVGID_00000162322605830145498480000006774497134386997655_">
						<use xlink:href="#SVGID_00000020393119033252373540000013501081028777109178_"  style="overflow:visible;"/>
					</clipPath>
					
						<rect x="89.6" y="70" style="clip-path:url(#SVGID_00000162322605830145498480000006774497134386997655_);fill:#FF928E;" width="7.8" height="8.3"/>
				</g>
			</g>
		</g>
		<g>
			<path style="fill:#272F65;" d="M48,132.1l-8.5-28.2c-0.3-1.2-1.4-2-2.6-2.1L25.6,101c-0.9-0.1-1.7,0.6-1.7,1.5
				c0,0.2,0,0.4,0.1,0.6l9.5,27c0.3,0.9,1.1,1.5,2,1.6l11.3,1.2L48,132.1z"/>
		</g>
		<g>
			<path style="fill:#91B3FA;" d="M32.4,113.4c0.6,1.3,1.7,2,2.4,1.7c0.7-0.4,0.8-1.7,0.1-3c-0.6-1.3-1.7-2-2.4-1.7
				C31.8,110.8,31.8,112.1,32.4,113.4"/>
		</g>
		<g>
			<defs>
				<path id="SVGID_00000151540977189917553050000008021135997315869056_" d="M70.6,129.6l-24,1.2c-0.6,0-1,0.5-1,1.1
					c0,0.6,0.5,1,1.1,1h0.1l24-1.2c0.6,0,1.1-0.5,1-1.1C71.7,130,71.2,129.6,70.6,129.6L70.6,129.6L70.6,129.6"/>
			</defs>
			<clipPath id="SVGID_00000061438303585589042330000005268540265894358444_">
				<use xlink:href="#SVGID_00000151540977189917553050000008021135997315869056_"  style="overflow:visible;"/>
			</clipPath>
			<g style="clip-path:url(#SVGID_00000061438303585589042330000005268540265894358444_);">
				<g>
					<defs>
						
							<rect id="SVGID_00000174601472013651011420000013264275111273907073_" x="53.5" y="118.2" transform="matrix(0.2643 -0.9644 0.9644 0.2643 -83.4649 153.1167)" width="10.2" height="26.1"/>
					</defs>
					<clipPath id="SVGID_00000016777531354901292770000009920411021422984379_">
						<use xlink:href="#SVGID_00000174601472013651011420000013264275111273907073_"  style="overflow:visible;"/>
					</clipPath>
					
						<rect x="44.7" y="122.9" style="clip-path:url(#SVGID_00000016777531354901292770000009920411021422984379_);fill:#1A0F91;" width="27.9" height="16.7"/>
				</g>
			</g>
		</g>
		<g>
			<path style="fill:#272F65;" d="M75.6,108.7c-0.1,0-0.2-0.1-0.2-0.2c0-5.1,1.9-11.8,2-11.8l0.2-0.1l0.1,0.2c0,0.1-2,6.7-1.9,11.7
				C75.8,108.6,75.7,108.7,75.6,108.7z"/>
		</g>
		<g>
			<path style="fill:#272F65;" d="M86.6,111.1c-0.1,0-0.2-0.1-0.2-0.2l0-0.1c0.1-0.1,5.3-6.7,7.1-11.2l0.2-0.1l0,0l0.1,0.2
				c-1.8,4.6-7,11.2-7.1,11.3L86.6,111.1"/>
		</g>
		<g>
			<path style="fill:#272F65;" d="M94,121.3L93,120l0-0.2l0.2,0l0.8,1.1c7.4-3.2,12-12.1,12-12.2l0.2-0.1l0.1,0.2
				c0,0.1-4.7,9.1-12.3,12.4L94,121.3z"/>
		</g>
	</g>
</svg>
