<?xml version="1.0" encoding="utf-8"?>
<!-- Generator: Adobe Illustrator 26.2.1, SVG Export Plug-In . SVG Version: 6.00 Build 0)  -->
<svg version="1.1" id="Layer_1" xmlns="http://www.w3.org/2000/svg" xmlns:xlink="http://www.w3.org/1999/xlink" x="0px" y="0px"
	 viewBox="0 0 274.8 276.5" style="enable-background:new 0 0 274.8 276.5;" xml:space="preserve">
<g>
	<defs>
		<rect id="SVGID_1_" y="0" width="274.8" height="276.5"/>
	</defs>
	<clipPath id="SVGID_00000061440397059099333710000017184240257677661601_">
		<use xlink:href="#SVGID_1_"  style="overflow:visible;"/>
	</clipPath>
	<g style="clip-path:url(#SVGID_00000061440397059099333710000017184240257677661601_);">
		<g>
			<defs>
				<rect id="SVGID_00000010273124472392316460000012565553643768578487_" y="0" width="274.8" height="276.5"/>
			</defs>
			<clipPath id="SVGID_00000069365284539607711300000005041404480658639292_">
				<use xlink:href="#SVGID_00000010273124472392316460000012565553643768578487_"  style="overflow:visible;"/>
			</clipPath>
			<g style="clip-path:url(#SVGID_00000069365284539607711300000005041404480658639292_);">
				<path style="fill:#FFF8D3;" d="M260,189.2c-25.5,60.9-93.5,95.1-152.4,85.9c-9.6-1.5-35.9-6-59.1-27
					C3.7,207.5-5.9,127.2,30.2,70.6C56.5,29.5,103.7,6.1,148.5,7.3c9.7,0.2,46.6,1.8,79.1,29c9.7,8.2,18.1,17.8,24.8,28.5
					C274.7,100.2,276.6,149.4,260,189.2"/>
				<path style="fill:#AE00A9;" d="M1.5,177.8c6.2-27.1,33.2-44.1,60.4-37.9c3.8,0.9,7.4,2.1,10.9,3.8c2.9,1.4,6.4,0.2,7.8-2.7
					c0.2-0.4,0.3-0.8,0.4-1.2C90,104.3,121.4,78,158.9,78c44.4,0,80.4,36.9,80.4,82.4c0,1.2,0,2.9,0,4.4c0.2,3.4,1.6,4.8,3.8,5.2
					c17.4,1.9,31.1,16.6,31.8,34.7c0.9,20.8-15.7,38.1-36,38.1H50.8C18.7,242.8-6.5,212.2,1.5,177.8"/>
				<path style="fill:#D44CD8;" d="M16.1,184.8c5.5-24.2,29.7-39.4,53.9-33.9c3.4,0.8,6.6,1.9,9.7,3.4c2.6,1.3,5.7,0.2,7-2.4
					c0.2-0.3,0.3-0.7,0.4-1.1c8-31.7,36.1-55.1,69.5-55.1c39.6,0,71.7,32.9,71.7,73.6c0,1.1,0,2.6,0,4c0.1,3,1.4,4.3,3.4,4.7
					c15.5,1.7,27.7,14.8,28.4,31c0.8,18.6-14,34-32.1,34H60.1C31.4,242.8,8.9,215.4,16.1,184.8"/>
				<path style="fill:#272F65;" d="M37.9,265.1c0,1.5,1.2,2.8,2.8,2.8h149.9c1.5,0,2.8-1.2,2.8-2.8l1.2-86.2
					c-0.3-2.5-2.5-4.4-5.1-4.3L43,170.9c-3.9-0.1-7.1,2.9-7.2,6.8c0,0.1,0,0.2,0,0.3L37.9,265.1z"/>
				<path style="fill:#EDE5F2;" d="M40.6,262.4c0,1.4,1.2,2.6,2.6,2.6H187c1.4,0,2.6-1.2,2.6-2.6l1.2-78.2c-0.1-3.6-3-6.4-6.6-6.3
					c-0.1,0-0.1,0-0.2,0l-140.4-3.8c-2.7-0.1-5,2.1-5,4.8c0,0.1,0,0.2,0,0.2L40.6,262.4z"/>
				<path style="fill:#FFFFFF;" d="M188,225.3L188,225.3c-0.2,0-0.4-0.2-0.4-0.4c0,0,0,0,0,0l0.1-6.3c0-0.2,0.2-0.4,0.4-0.4l0,0
					c0.2,0,0.4,0.2,0.4,0.4l-0.1,6.3C188.4,225.1,188.2,225.3,188,225.3"/>
				<path style="fill:#FFFFFF;" d="M188.3,209.7L188.3,209.7c-0.2,0-0.4-0.2-0.4-0.4c0,0,0,0,0,0l0.4-24.3c0.1-1.3-0.4-2.5-1.3-3.4
					c-1.2-1-2.7-1.5-4.2-1.4l-44.9-1.2c-0.2,0-0.4-0.2-0.4-0.4c0-0.2,0.2-0.4,0.4-0.4c0,0,0,0,0,0l44.9,1.2c1.7-0.1,3.5,0.5,4.8,1.7
					c1,1.1,1.6,2.5,1.5,4l-0.4,24.3C188.6,209.6,188.5,209.7,188.3,209.7"/>
				<path style="fill:#272F65;" d="M29.5,275h169.2c2.1,0,3.8-1.6,3.8-3.7c0-2.1-1.6-3.8-3.7-3.8c0,0-0.1,0-0.1,0H29.5
					c-2.1,0-3.8,1.6-3.8,3.7c0,2.1,1.6,3.8,3.7,3.8C29.4,275,29.5,275,29.5,275"/>
				<path style="fill:#77AED8;" d="M103,261.2H47.6c-2,0-3.7-1.7-3.7-3.7v-72.2c0-2,1.7-3.7,3.7-3.7c0,0,0.1,0,0.1,0l55.3,2.1
					c2,0.1,3.6,1.7,3.6,3.7v70.1C106.7,259.6,105,261.2,103,261.2"/>
				<g transform="translate(54.794 209.957)" style="opacity:0.51;">
					<g>
						<defs>
							<rect id="SVGID_00000023965200519515030170000003024670643414875809_" x="0" y="0" width="37.7" height="4.9"/>
						</defs>
						<clipPath id="SVGID_00000085247049576752778940000001354112367856663960_">
							<use xlink:href="#SVGID_00000023965200519515030170000003024670643414875809_"  style="overflow:visible;"/>
						</clipPath>
						<g style="clip-path:url(#SVGID_00000085247049576752778940000001354112367856663960_);">
							<path style="fill:#FFFFFF;" d="M35.3,4.9H2.4C1.1,4.9,0,3.8,0,2.4C0,1.1,1.1,0,2.4,0c0,0,0,0,0,0h32.8c1.3,0,2.4,1.1,2.4,2.4
								C37.7,3.8,36.6,4.9,35.3,4.9"/>
						</g>
					</g>
				</g>
				<g transform="translate(54.868 217.736)" style="opacity:0.51;">
					<g>
						<defs>
							<rect id="SVGID_00000040535982931711397070000006057033882347067303_" x="0" y="0" width="37.7" height="4.9"/>
						</defs>
						<clipPath id="SVGID_00000037660156291607857120000005539083136782886570_">
							<use xlink:href="#SVGID_00000040535982931711397070000006057033882347067303_"  style="overflow:visible;"/>
						</clipPath>
						<g style="clip-path:url(#SVGID_00000037660156291607857120000005539083136782886570_);">
							<path style="fill:#FFFFFF;" d="M35.3,4.9H2.4C1.1,4.9,0,3.8,0,2.4C0,1.1,1.1,0,2.4,0c0,0,0,0,0,0h32.8c1.3,0,2.4,1.1,2.4,2.4
								C37.7,3.8,36.6,4.9,35.3,4.9C35.3,4.9,35.3,4.9,35.3,4.9"/>
						</g>
					</g>
				</g>
				<g transform="translate(55.089 225.677)" style="opacity:0.51;">
					<g>
						<defs>
							<rect id="SVGID_00000124124591062610141000000007471915647309997972_" x="0" y="0" width="37.7" height="4.9"/>
						</defs>
						<clipPath id="SVGID_00000052083018986497127020000006010477227400436127_">
							<use xlink:href="#SVGID_00000124124591062610141000000007471915647309997972_"  style="overflow:visible;"/>
						</clipPath>
						<g style="clip-path:url(#SVGID_00000052083018986497127020000006010477227400436127_);">
							<path style="fill:#FFFFFF;" d="M35.3,4.9H2.4C1.1,4.9,0,3.8,0,2.4C0,1.1,1.1,0,2.4,0h32.8c1.3,0,2.4,1.1,2.4,2.4
								C37.7,3.8,36.6,4.9,35.3,4.9"/>
						</g>
					</g>
				</g>
				<g transform="translate(55.163 233.456)" style="opacity:0.51;">
					<g>
						<defs>
							<rect id="SVGID_00000158017883564885507070000010155875818360524435_" x="0" y="0" width="37.7" height="4.9"/>
						</defs>
						<clipPath id="SVGID_00000036956440081892780760000003270766237358211760_">
							<use xlink:href="#SVGID_00000158017883564885507070000010155875818360524435_"  style="overflow:visible;"/>
						</clipPath>
						<g style="clip-path:url(#SVGID_00000036956440081892780760000003270766237358211760_);">
							<path style="fill:#FFFFFF;" d="M35.3,4.9H2.4C1.1,4.9,0,3.8,0,2.4C0,1.1,1.1,0,2.4,0c0,0,0,0,0,0h32.8c1.3,0,2.4,1.1,2.4,2.4
								C37.7,3.8,36.6,4.9,35.3,4.9C35.3,4.9,35.3,4.9,35.3,4.9"/>
						</g>
					</g>
				</g>
				<path style="fill:#272F65;" d="M170.4,214.8h-49.3c-1.3,0-2.4-1.1-2.4-2.4c0-1.3,1.1-2.4,2.4-2.4h49.3c1.3,0,2.4,1.1,2.4,2.4
					C172.9,213.7,171.8,214.8,170.4,214.8"/>
				<path style="fill:#272F65;" d="M170.6,222.6h-49.3c-1.3,0-2.4-1.1-2.4-2.4c0-1.3,1.1-2.4,2.4-2.4h49.3c1.3,0,2.4,1.1,2.4,2.4
					C173.1,221.5,172,222.6,170.6,222.6C170.6,222.6,170.6,222.6,170.6,222.6"/>
				<path style="fill:#272F65;" d="M148.5,230.5h-27.2c-1.3,0-2.4-1.1-2.4-2.4c0-1.3,1.1-2.4,2.4-2.4h27.2c1.3,0,2.4,1.1,2.4,2.4
					C151,229.5,149.9,230.5,148.5,230.5"/>
				<g transform="translate(132.962 184.094)" style="opacity:0.51;">
					<g>
						<defs>
							<rect id="SVGID_00000024702943426095447610000016075326211740816056_" x="0" y="0" width="17.1" height="22.2"/>
						</defs>
						<clipPath id="SVGID_00000141434564496501514530000012834829100265464723_">
							<use xlink:href="#SVGID_00000024702943426095447610000016075326211740816056_"  style="overflow:visible;"/>
						</clipPath>
						<g style="clip-path:url(#SVGID_00000141434564496501514530000012834829100265464723_);">
							<path style="fill:#272F65;" d="M14.5,7.7h-0.8c-0.4,0-0.7-0.3-0.7-0.7l0,0V4.1c0-1-0.8-1.8-1.8-1.8H6c-1,0-1.8,0.8-1.8,1.8V7
								c0,0.4-0.3,0.7-0.7,0.7l0,0H2.6C2.2,7.7,1.8,7.4,1.8,7l0,0V4.1C1.8,1.9,3.7,0,6,0c0,0,0,0,0,0h5.1c2.3,0,4.1,1.9,4.1,4.1V7
								C15.2,7.4,14.9,7.7,14.5,7.7L14.5,7.7"/>
							<path style="fill:#272F65;" d="M15.5,8.4h-14C0.7,8.4,0,9.1,0,9.9v10.7c0,0.9,0.7,1.5,1.5,1.5h14c0.9,0,1.5-0.7,1.5-1.5V9.9
								C17.1,9.1,16.4,8.4,15.5,8.4 M10.5,18.7c0.1,0.3-0.1,0.6-0.4,0.7c0,0-0.1,0-0.1,0H7.1c-0.3,0-0.6-0.3-0.6-0.6
								c0,0,0-0.1,0-0.1l0.7-2.8c-1.2-0.7-1.6-2.3-0.9-3.5c0.7-1.2,2.3-1.6,3.5-0.9s1.6,2.3,0.9,3.5c-0.2,0.4-0.5,0.7-0.9,0.9
								L10.5,18.7z"/>
						</g>
					</g>
				</g>
				<path style="fill:#2F5B8B;" d="M188.1,66.7c-0.1,0-0.1,0-0.2,0c-0.2-0.1-0.2-0.3-0.1-0.5c0,0,0,0,0,0c0.2-0.4,0.4-0.8,0.6-1.2
					c0.1-0.2,0.3-0.2,0.4-0.2c0.2,0.1,0.2,0.3,0.2,0.4c0,0,0,0,0,0c-0.2,0.4-0.4,0.8-0.6,1.2C188.3,66.7,188.2,66.7,188.1,66.7"/>
				<path style="fill:#2F5B8B;" d="M149.2,89.6c-0.2,0-0.4,0-0.6,0c-0.2,0-0.3-0.1-0.3-0.3c0-0.2,0.1-0.3,0.3-0.3l0,0l0,0
					c0.9,0,1.7,0,2.6,0c0.2,0,0.3,0.1,0.3,0.3c0,0.2-0.1,0.3-0.3,0.3C150.5,89.6,149.8,89.6,149.2,89.6 M144.4,89.4L144.4,89.4
					c-0.9-0.1-1.8-0.2-2.6-0.4c-0.2,0-0.3-0.2-0.3-0.4c0-0.2,0.2-0.3,0.4-0.3c0,0,0,0,0,0c0.8,0.1,1.7,0.3,2.6,0.4
					c0.2,0,0.3,0.2,0.3,0.4C144.7,89.3,144.5,89.4,144.4,89.4 M155.4,89.2c-0.2,0-0.3-0.1-0.3-0.3c0-0.2,0.1-0.3,0.3-0.3
					c0.9-0.1,1.7-0.3,2.6-0.4c0.2,0,0.4,0.1,0.4,0.3c0,0.2-0.1,0.4-0.3,0.4C157.2,88.9,156.3,89.1,155.4,89.2L155.4,89.2
					 M137.6,88.1C137.6,88.1,137.6,88.1,137.6,88.1c-0.9-0.2-1.8-0.5-2.6-0.8c-0.2-0.1-0.3-0.2-0.2-0.4s0.2-0.3,0.4-0.2l0,0
					c0.8,0.3,1.6,0.5,2.5,0.7c0.2,0,0.3,0.2,0.2,0.4C137.9,88,137.8,88.1,137.6,88.1 M162.1,87.7c-0.2,0-0.3-0.1-0.3-0.3
					c0-0.1,0.1-0.3,0.2-0.3c0.8-0.2,1.6-0.5,2.5-0.8c0.2-0.1,0.4,0,0.4,0.2c0.1,0.2,0,0.3-0.2,0.4C163.9,87.2,163,87.5,162.1,87.7
					C162.2,87.7,162.1,87.7,162.1,87.7 M131.2,85.9c0,0-0.1,0-0.1,0c-0.8-0.4-1.6-0.7-2.4-1.1c-0.2-0.1-0.2-0.3-0.1-0.5
					c0.1-0.1,0.3-0.2,0.4-0.1c0.8,0.4,1.5,0.8,2.3,1.1c0.2,0.1,0.2,0.3,0.2,0.4C131.4,85.8,131.3,85.9,131.2,85.9 M168.5,85.2
					c-0.2,0-0.3-0.1-0.3-0.3c0-0.1,0.1-0.2,0.2-0.3c0.8-0.4,1.5-0.8,2.3-1.2c0.2-0.1,0.4,0,0.5,0.1c0.1,0.2,0,0.4-0.1,0.5
					c-0.8,0.4-1.5,0.8-2.3,1.2C168.6,85.2,168.5,85.2,168.5,85.2 M125.2,82.6c-0.1,0-0.1,0-0.2-0.1c-0.7-0.5-1.5-1-2.2-1.5
					c-0.1-0.1-0.2-0.3-0.1-0.5s0.3-0.2,0.5-0.1c0.7,0.5,1.4,1,2.1,1.5c0.2,0.1,0.2,0.3,0.1,0.5C125.4,82.6,125.3,82.6,125.2,82.6
					 M174.4,81.8c-0.2,0-0.3-0.1-0.3-0.3c0-0.1,0.1-0.2,0.1-0.3c0.7-0.5,1.4-1,2.1-1.5c0.1-0.1,0.4-0.1,0.5,0.1
					c0.1,0.1,0.1,0.3-0.1,0.4c-0.7,0.5-1.4,1.1-2.1,1.6C174.5,81.8,174.4,81.8,174.4,81.8 M119.7,78.5c-0.1,0-0.2,0-0.2-0.1
					c-0.7-0.6-1.3-1.2-1.9-1.8c-0.1-0.1-0.1-0.3,0-0.5c0.1-0.1,0.3-0.1,0.5,0c0,0,0,0,0,0c0.6,0.6,1.2,1.2,1.9,1.8
					c0.1,0.1,0.2,0.3,0,0.5C119.9,78.5,119.8,78.5,119.7,78.5 M179.7,77.5c-0.2,0-0.3-0.1-0.3-0.3c0-0.1,0-0.2,0.1-0.2
					c0.6-0.6,1.2-1.2,1.8-1.8c0.1-0.1,0.3-0.2,0.5,0s0.2,0.3,0,0.5c0,0,0,0,0,0c-0.6,0.6-1.2,1.3-1.9,1.9
					C179.9,77.5,179.8,77.5,179.7,77.5 M114.9,73.6c-0.1,0-0.2,0-0.3-0.1c-0.6-0.7-1.1-1.4-1.6-2.1c-0.1-0.1-0.1-0.4,0.1-0.5
					c0.1-0.1,0.4-0.1,0.5,0.1c0.5,0.7,1,1.4,1.6,2c0.1,0.1,0.1,0.4,0,0.5C115.1,73.6,115,73.6,114.9,73.6 M184.3,72.4
					c-0.2,0-0.3-0.1-0.3-0.3c0-0.1,0-0.1,0.1-0.2c0.5-0.7,1-1.4,1.5-2.1c0.1-0.2,0.3-0.2,0.5-0.1c0.2,0.1,0.2,0.3,0.1,0.5l0,0
					c-0.5,0.7-1,1.4-1.6,2.1C184.5,72.4,184.4,72.4,184.3,72.4 M111,68c-0.1,0-0.2-0.1-0.3-0.2c-0.4-0.8-0.9-1.5-1.3-2.3
					c-0.1-0.2,0-0.4,0.1-0.5c0.2-0.1,0.4,0,0.5,0.1c0,0,0,0,0,0c0.4,0.8,0.8,1.5,1.3,2.3c0.1,0.2,0,0.4-0.1,0.5
					C111.1,68,111,68,111,68 M107.9,61.9c-0.1,0-0.3-0.1-0.3-0.2c-0.3-0.8-0.6-1.6-0.9-2.5c0-0.2,0.1-0.4,0.2-0.4
					c0.2,0,0.3,0,0.4,0.2c0.3,0.8,0.6,1.6,0.9,2.4c0.1,0.2,0,0.4-0.2,0.4C108,61.9,108,61.9,107.9,61.9"/>
				<path style="fill:#2F5B8B;" d="M105.9,55.4c-0.2,0-0.3-0.1-0.3-0.3c-0.1-0.4-0.2-0.9-0.3-1.3c0-0.2,0.1-0.4,0.3-0.4
					c0.2,0,0.3,0.1,0.4,0.3c0.1,0.4,0.2,0.9,0.3,1.3C106.2,55.1,106.1,55.3,105.9,55.4C105.9,55.4,105.9,55.4,105.9,55.4"/>
				<path style="fill:#2F5B8B;" d="M111.5,21.5c-0.2,0-0.3-0.2-0.3-0.3c0-0.1,0-0.1,0.1-0.2c0.2-0.4,0.5-0.8,0.7-1.1
					c0.1-0.2,0.3-0.2,0.5-0.1c0.2,0.1,0.2,0.3,0.1,0.5l0,0c-0.2,0.4-0.5,0.7-0.7,1.1C111.7,21.4,111.6,21.5,111.5,21.5"/>
				<path style="fill:#2F5B8B;" d="M191.9,32.6c-0.1,0-0.3-0.1-0.3-0.2c-0.3-0.9-0.5-1.7-0.8-2.6c-0.1-0.2,0-0.4,0.2-0.4
					s0.4,0,0.4,0.2c0,0,0,0,0,0c0.3,0.9,0.6,1.7,0.9,2.6C192.2,32.3,192.1,32.5,191.9,32.6C191.9,32.6,191.9,32.6,191.9,32.6
					 M189.3,25.9c-0.1,0-0.2-0.1-0.3-0.2c-0.4-0.8-0.8-1.6-1.3-2.4c-0.1-0.2,0-0.4,0.1-0.5c0.2-0.1,0.4,0,0.5,0.1
					c0.4,0.8,0.9,1.6,1.3,2.5c0.1,0.2,0,0.4-0.1,0.4C189.4,25.9,189.3,25.9,189.3,25.9 M185.7,19.7c-0.1,0-0.2-0.1-0.3-0.1
					c-0.5-0.7-1.1-1.5-1.6-2.2c-0.1-0.1-0.1-0.3,0-0.5c0.1-0.1,0.3-0.1,0.5,0c0,0,0,0,0,0c0.6,0.7,1.1,1.5,1.7,2.2
					c0.1,0.1,0.1,0.4-0.1,0.5c0,0,0,0,0,0C185.8,19.7,185.7,19.7,185.7,19.7 M114.9,16.8c-0.1,0-0.2,0-0.2-0.1
					c-0.1-0.1-0.2-0.3,0-0.5c0,0,0,0,0,0c0.6-0.7,1.2-1.4,1.8-2.1c0.1-0.1,0.3-0.1,0.5,0s0.1,0.3,0,0.5l0,0c-0.6,0.7-1.2,1.3-1.8,2
					C115.1,16.7,115,16.8,114.9,16.8 M181.1,14.1c-0.1,0-0.2,0-0.2-0.1c-0.6-0.6-1.3-1.3-2-1.9c-0.1-0.1-0.1-0.3,0-0.5
					c0.1-0.1,0.3-0.1,0.4,0c0.7,0.6,1.3,1.3,2,1.9c0.1,0.1,0.1,0.3,0,0.5C181.2,14.1,181.2,14.2,181.1,14.1 M119.9,11.6
					c-0.2,0-0.3-0.1-0.3-0.3c0-0.1,0-0.2,0.1-0.3c0.7-0.6,1.4-1.2,2.1-1.8c0.1-0.1,0.4-0.1,0.5,0.1c0.1,0.1,0.1,0.3-0.1,0.5
					c-0.7,0.6-1.4,1.1-2.1,1.7C120.1,11.6,120,11.6,119.9,11.6 M175.7,9.4c-0.1,0-0.1,0-0.2-0.1c-0.7-0.5-1.5-1.1-2.2-1.6
					c-0.2-0.1-0.2-0.3-0.1-0.5c0.1-0.2,0.3-0.2,0.5-0.1l0,0c0.8,0.5,1.5,1,2.3,1.6c0.1,0.1,0.2,0.3,0.1,0.5
					C175.9,9.4,175.8,9.4,175.7,9.4 M125.7,7.4c-0.2,0-0.3-0.1-0.3-0.3c0-0.1,0.1-0.2,0.2-0.3c0.8-0.5,1.6-1,2.4-1.4
					c0.2-0.1,0.4,0,0.5,0.1c0.1,0.2,0,0.4-0.1,0.5c-0.8,0.4-1.6,0.9-2.4,1.4C125.8,7.3,125.8,7.4,125.7,7.4 M169.6,5.6
					c-0.1,0-0.1,0-0.2,0c-0.8-0.4-1.6-0.8-2.5-1.2c-0.2-0.1-0.2-0.3-0.2-0.4s0.3-0.2,0.4-0.2l0,0c0.8,0.4,1.7,0.8,2.5,1.2
					c0.2,0.1,0.2,0.3,0.1,0.4C169.8,5.5,169.7,5.6,169.6,5.6 M132.1,4.1c-0.2,0-0.3-0.1-0.3-0.3c0-0.1,0.1-0.3,0.2-0.3
					c0.8-0.4,1.7-0.7,2.6-1c0.2-0.1,0.4,0,0.4,0.2c0.1,0.2,0,0.4-0.2,0.4c-0.9,0.3-1.7,0.6-2.5,1C132.2,4.1,132.1,4.1,132.1,4.1
					 M162.9,2.8c0,0-0.1,0-0.1,0c-0.9-0.3-1.7-0.5-2.6-0.8c-0.2,0-0.3-0.2-0.2-0.4c0-0.2,0.2-0.3,0.4-0.2c0.9,0.2,1.8,0.5,2.7,0.8
					c0.2,0.1,0.3,0.2,0.2,0.4C163.2,2.7,163.1,2.8,162.9,2.8 M138.9,1.9c-0.2,0-0.3-0.1-0.3-0.3c0-0.2,0.1-0.3,0.3-0.3
					c0.9-0.2,1.8-0.4,2.7-0.6c0.2,0,0.4,0.1,0.4,0.3c0,0.2-0.1,0.4-0.3,0.4c0,0,0,0,0,0C140.8,1.5,139.9,1.6,138.9,1.9
					C139,1.8,139,1.9,138.9,1.9 M155.9,1.2C155.9,1.2,155.9,1.2,155.9,1.2c-0.9-0.1-1.9-0.2-2.8-0.3c-0.2,0-0.3-0.2-0.3-0.4
					c0-0.2,0.2-0.3,0.4-0.3c0.9,0.1,1.8,0.2,2.7,0.3c0.2,0,0.3,0.2,0.3,0.4C156.2,1.1,156.1,1.2,155.9,1.2 M146,0.8
					c-0.2,0-0.3-0.2-0.3-0.3c0-0.2,0.1-0.3,0.3-0.3c0.9-0.1,1.8-0.1,2.8-0.1l0,0c0.2,0,0.3,0.1,0.3,0.3s-0.1,0.3-0.3,0.3
					C147.9,0.7,147,0.7,146,0.8L146,0.8"/>
				<path style="fill:#2F5B8B;" d="M193.1,38.3c-0.2,0-0.3-0.1-0.3-0.3c-0.1-0.4-0.1-0.9-0.2-1.3c0-0.2,0.1-0.4,0.3-0.4
					c0.2,0,0.4,0.1,0.4,0.3c0.1,0.4,0.2,0.9,0.2,1.3C193.5,38.1,193.4,38.2,193.1,38.3C193.2,38.3,193.1,38.3,193.1,38.3"/>
				<path style="fill:#588BBA;" d="M183.3,43.8c0-0.2-0.1-0.4-0.3-0.5l-6-2.6c-0.5-3-1.4-6-2.8-8.7l3.3-5.6c0.1-0.2,0.1-0.4-0.1-0.6
					l-5.1-5.9c-0.1-0.2-0.4-0.2-0.6-0.1l-6,2.4c-2.5-1.8-5.2-3.2-8.2-4.2l-1.6-6.3c-0.1-0.2-0.2-0.4-0.5-0.4l-7.8-0.6
					c-0.2,0-0.4,0.1-0.5,0.3l-2.6,6c-3,0.5-6,1.4-8.7,2.8l-5.6-3.3c-0.2-0.1-0.4-0.1-0.6,0.1l-5.9,5.1c-0.2,0.1-0.2,0.4-0.2,0.6
					l2.4,6c-1.8,2.5-3.2,5.2-4.2,8.2l-6.3,1.6c-0.2,0.1-0.4,0.2-0.4,0.5l-0.6,7.8c0,0.2,0.1,0.4,0.3,0.5l6,2.6c0.5,3,1.4,6,2.8,8.7
					l-3.3,5.6c-0.1,0.2-0.1,0.4,0.1,0.6l5.1,5.9c0.1,0.2,0.4,0.2,0.6,0.2l6-2.4c2.5,1.8,5.2,3.2,8.2,4.2l1.6,6.3
					c0.1,0.2,0.2,0.4,0.5,0.4l7.8,0.6c0.2,0,0.4-0.1,0.5-0.3l2.6-6c3-0.5,6-1.4,8.7-2.8l5.6,3.3c0.2,0.1,0.4,0.1,0.6-0.1l5.9-5.1
					c0.2-0.1,0.2-0.4,0.1-0.6l-2.4-6c1.8-2.5,3.2-5.2,4.2-8.2l6.3-1.6c0.2-0.1,0.4-0.2,0.4-0.5L183.3,43.8z"/>
				<g transform="translate(141.488 37.627)" style="opacity:0.7;">
					<g>
						<defs>
							<rect id="SVGID_00000000938163287353047310000008981587306081358236_" x="0" y="0" width="14.8" height="14.8"/>
						</defs>
						<clipPath id="SVGID_00000016072024347982142300000013762830481732126865_">
							<use xlink:href="#SVGID_00000000938163287353047310000008981587306081358236_"  style="overflow:visible;"/>
						</clipPath>
						<g style="clip-path:url(#SVGID_00000016072024347982142300000013762830481732126865_);">
							<path style="fill:#FFFFFF;" d="M7.4,14.8c-4.1,0-7.5-3.3-7.5-7.5c0-4.1,3.3-7.5,7.5-7.5c4.1,0,7.5,3.3,7.5,7.5
								c0,3.6-2.6,6.7-6.2,7.3C8.3,14.8,7.8,14.8,7.4,14.8 M7.4,1C7.1,1,6.7,1,6.3,1.1C2.8,1.7,0.5,5,1.1,8.5
								C1.7,12,5,14.3,8.5,13.7s5.8-3.9,5.2-7.4C13.2,3.2,10.5,1,7.4,1"/>
						</g>
					</g>
				</g>
				<g transform="translate(129.432 25.742)" style="opacity:0.7;">
					<g>
						<defs>
							<rect id="SVGID_00000148663239000655924050000011747442405711075210_" x="0" y="0" width="37.6" height="38.6"/>
						</defs>
						<clipPath id="SVGID_00000027599546163911872740000011515666924282938788_">
							<use xlink:href="#SVGID_00000148663239000655924050000011747442405711075210_"  style="overflow:visible;"/>
						</clipPath>
						<g style="clip-path:url(#SVGID_00000027599546163911872740000011515666924282938788_);">
							<path style="fill:#FFFFFF;" d="M19.3,38.6c-0.5,0-1,0-1.5-0.1C7.8,37.8,0,29.4,0,19.3c0-0.5,0-1,0.1-1.5
								C0.9,7.2,10.2-0.8,20.8,0.1c6.5,0.5,12.4,4.3,15.5,10.1l-0.9,0.5c-0.6-1.1-1.4-2.2-2.2-3.2c-6.6-7.7-18.1-8.6-25.8-2
								c-3.7,3.2-6,7.6-6.4,12.5c0,0.5-0.1,1-0.1,1.5c0,10.1,8.2,18.3,18.3,18.3c7.9,0,14.8-5,17.3-12.5l0.9,0.3
								C35,33.3,27.6,38.6,19.3,38.6"/>
						</g>
					</g>
				</g>
				<path style="fill:#2F5B8B;" d="M225.6,77.7c-0.2,0-0.3-0.1-0.3-0.3c0-0.1,0-0.1,0-0.2c0.2-0.4,0.4-0.8,0.6-1.1
					c0.1-0.2,0.3-0.2,0.4-0.1c0.2,0.1,0.2,0.3,0.1,0.4l0,0c-0.2,0.4-0.4,0.8-0.7,1.2C225.8,77.6,225.7,77.7,225.6,77.7"/>
				<path style="fill:#2F5B8B;" d="M204.1,88.8L204.1,88.8c-0.9-0.1-1.8-0.2-2.7-0.4c-0.2,0-0.3-0.2-0.3-0.4c0-0.2,0.2-0.3,0.4-0.3
					l0,0c0.9,0.2,1.7,0.3,2.6,0.4c0.2,0,0.3,0.2,0.3,0.4C204.4,88.6,204.3,88.8,204.1,88.8 M208.5,88.7c-0.2,0-0.3-0.2-0.3-0.3
					c0-0.2,0.1-0.3,0.3-0.3c0.9-0.1,1.7-0.2,2.6-0.4c0.2,0,0.4,0.1,0.4,0.2s-0.1,0.4-0.2,0.4l0,0C210.3,88.5,209.4,88.6,208.5,88.7
					L208.5,88.7 M197.3,87.2c0,0-0.1,0-0.1,0c-0.8-0.3-1.7-0.7-2.5-1.2c-0.2-0.1-0.2-0.3-0.1-0.5c0.1-0.2,0.3-0.2,0.5-0.1
					c0.8,0.4,1.6,0.8,2.4,1.1c0.2,0.1,0.3,0.3,0.2,0.4C197.6,87.1,197.4,87.2,197.3,87.2 M215.2,86.9c-0.2,0-0.3-0.2-0.3-0.3
					c0-0.1,0.1-0.2,0.2-0.3c0.8-0.4,1.6-0.8,2.3-1.2c0.2-0.1,0.4,0,0.4,0.1c0.1,0.2,0,0.3-0.1,0.4c-0.8,0.5-1.6,0.9-2.4,1.3
					C215.3,86.9,215.3,86.9,215.2,86.9 M191.3,83.6c-0.1,0-0.2,0-0.2-0.1c-0.7-0.6-1.4-1.2-2-1.9c-0.1-0.1-0.1-0.3,0-0.5
					s0.3-0.1,0.5,0c0.6,0.6,1.2,1.2,1.9,1.8c0.1,0.1,0.2,0.3,0,0.5c0,0,0,0,0,0C191.5,83.5,191.4,83.6,191.3,83.6 M221.1,83.1
					c-0.2,0-0.3-0.1-0.3-0.3c0-0.1,0-0.2,0.1-0.3l0.2-0.2c0.6-0.5,1.1-1.1,1.7-1.7c0.1-0.1,0.3-0.2,0.5,0c0.1,0.1,0.2,0.3,0,0.5l0,0
					c-0.5,0.6-1.1,1.2-1.7,1.7l-0.2,0.2C221.3,83,221.2,83.1,221.1,83.1 M186.7,78.3c-0.1,0-0.2-0.1-0.3-0.2
					c-0.5-0.8-0.9-1.6-1.3-2.4c-0.1-0.2,0-0.4,0.2-0.4c0.2-0.1,0.4,0,0.4,0.2c0.4,0.8,0.8,1.6,1.3,2.3c0.1,0.2,0.1,0.4-0.1,0.5
					c0,0,0,0,0,0C186.8,78.3,186.7,78.3,186.7,78.3"/>
				<path style="fill:#2F5B8B;" d="M183.8,71.9c-0.2,0-0.3-0.1-0.3-0.2c-0.1-0.4-0.2-0.9-0.3-1.3c0-0.2,0.1-0.4,0.2-0.4
					c0.2,0,0.4,0.1,0.4,0.2c0,0,0,0,0,0c0.1,0.4,0.2,0.9,0.3,1.3C184.2,71.6,184.1,71.8,183.8,71.9
					C183.9,71.9,183.9,71.9,183.8,71.9C183.9,71.9,183.9,71.9,183.8,71.9"/>
				<path style="fill:#2F5B8B;" d="M186.6,53.8c-0.2,0-0.3-0.2-0.3-0.3c0-0.1,0-0.1,0.1-0.2c0.2-0.4,0.5-0.8,0.8-1.1
					c0.1-0.1,0.3-0.2,0.5-0.1c0.1,0.1,0.2,0.3,0.1,0.5c0,0,0,0,0,0c-0.3,0.4-0.5,0.7-0.7,1.1C186.8,53.8,186.7,53.8,186.6,53.8"/>
				<path style="fill:#2F5B8B;" d="M227,57.1c-0.1,0-0.3-0.1-0.3-0.2c-0.3-0.8-0.7-1.6-1.2-2.3c-0.1-0.2,0-0.4,0.1-0.5
					c0.2-0.1,0.4,0,0.5,0.1c0.4,0.8,0.8,1.6,1.2,2.4c0.1,0.2,0,0.4-0.2,0.4C227,57.1,227,57.1,227,57.1 M223.3,51.2
					c-0.1,0-0.2,0-0.3-0.1c-0.2-0.2-0.3-0.4-0.5-0.6c-0.4-0.4-0.8-0.9-1.3-1.3c-0.1-0.1-0.1-0.3,0-0.5c0.1-0.1,0.3-0.1,0.5,0
					c0.5,0.4,0.9,0.9,1.3,1.3c0.2,0.2,0.4,0.4,0.5,0.6c0.1,0.1,0.1,0.3,0,0.5C223.5,51.2,223.4,51.2,223.3,51.2 M190.1,49.5
					c-0.1,0-0.2,0-0.2-0.1c-0.1-0.1-0.1-0.3,0-0.5c0.1-0.1,0.3-0.3,0.4-0.4c0.5-0.5,1.1-0.9,1.6-1.4c0.2-0.1,0.4-0.1,0.5,0.1
					c0.1,0.1,0.1,0.3-0.1,0.4c-0.5,0.4-1.1,0.9-1.6,1.3c-0.1,0.1-0.3,0.2-0.4,0.4C190.3,49.5,190.2,49.5,190.1,49.5 M218.1,46.7
					c-0.1,0-0.1,0-0.2-0.1c-0.7-0.5-1.5-0.9-2.3-1.3c-0.2-0.1-0.2-0.3-0.1-0.4c0.1-0.2,0.3-0.2,0.4-0.2c0.8,0.4,1.6,0.8,2.3,1.3
					c0.2,0.1,0.2,0.3,0.1,0.5C218.3,46.6,218.2,46.7,218.1,46.7 M195.8,45.5c-0.2,0-0.3-0.1-0.3-0.3c0-0.1,0.1-0.2,0.2-0.3
					c0.8-0.4,1.6-0.7,2.5-1c0.2-0.1,0.4,0,0.4,0.2c0.1,0.2,0,0.4-0.2,0.4l0,0c-0.8,0.3-1.6,0.6-2.4,1
					C195.9,45.5,195.8,45.5,195.8,45.5 M211.8,43.9C211.8,43.9,211.7,43.9,211.8,43.9c-0.9-0.2-1.8-0.4-2.6-0.5
					c-0.2,0-0.3-0.2-0.3-0.4c0,0,0,0,0,0c0-0.2,0.2-0.3,0.4-0.3c0,0,0,0,0,0c0.9,0.1,1.8,0.3,2.6,0.5c0.2,0,0.3,0.2,0.2,0.4
					C212.1,43.8,212,43.9,211.8,43.9 M202.3,43.4c-0.2,0-0.3-0.1-0.3-0.3c0-0.2,0.1-0.3,0.3-0.3c0.9-0.1,1.8-0.2,2.7-0.3
					c0.2,0,0.3,0.1,0.3,0.3c0,0.2-0.1,0.3-0.3,0.3C204.1,43.2,203.2,43.3,202.3,43.4C202.4,43.4,202.3,43.4,202.3,43.4"/>
				<path style="fill:#2F5B8B;" d="M228.5,62.5c-0.2,0-0.3-0.1-0.3-0.3c-0.1-0.4-0.1-0.9-0.2-1.3c0-0.2,0.1-0.4,0.2-0.4
					c0.2,0,0.4,0.1,0.4,0.2c0,0,0,0,0,0c0.1,0.4,0.2,0.9,0.2,1.3C228.8,62.3,228.7,62.4,228.5,62.5
					C228.5,62.5,228.5,62.5,228.5,62.5"/>
				<path style="fill:#588BBA;" d="M223.5,65.2c0-0.1-0.1-0.2-0.2-0.3l-3.1-1.3c-0.2-1.6-0.7-3.1-1.5-4.5l1.7-2.9
					c0.1-0.1,0-0.2,0-0.3l-2.6-3c-0.1-0.1-0.2-0.1-0.3-0.1l-3.1,1.2c-1.3-0.9-2.7-1.7-4.2-2.1l-0.8-3.2c0-0.1-0.1-0.2-0.2-0.2
					l-4-0.3c-0.1,0-0.2,0.1-0.3,0.2l-1.3,3.1c-1.6,0.2-3.1,0.7-4.5,1.5l-2.9-1.7c-0.1-0.1-0.2,0-0.3,0l-3,2.6
					c-0.1,0.1-0.1,0.2-0.1,0.3l1.2,3.1c-0.9,1.3-1.7,2.7-2.1,4.2l-3.2,0.8c-0.1,0-0.2,0.1-0.2,0.2l-0.3,4c0,0.1,0.1,0.2,0.2,0.3
					l3.1,1.3c0.2,1.6,0.7,3.1,1.5,4.5l-1.7,2.9c-0.1,0.1,0,0.2,0,0.3l2.6,3c0.1,0.1,0.2,0.1,0.3,0.1l3.1-1.2
					c1.3,0.9,2.7,1.7,4.2,2.1l0.8,3.2c0,0.1,0.1,0.2,0.2,0.2l4,0.3c0.1,0,0.2-0.1,0.3-0.2l1.3-3.1c1.6-0.2,3.1-0.7,4.5-1.5l2.9,1.7
					c0.1,0.1,0.2,0,0.3,0l3-2.6c0.1-0.1,0.1-0.2,0.1-0.3l-1.2-3.1c0.9-1.3,1.7-2.7,2.1-4.2l3.2-0.8c0.1,0,0.2-0.1,0.2-0.2
					L223.5,65.2z"/>
				<g transform="translate(201.725 61.735)" style="opacity:0.7;">
					<g>
						<defs>
							<rect id="SVGID_00000052098301156058066230000012968896806745515400_" x="0" y="0" width="8.1" height="8.1"/>
						</defs>
						<clipPath id="SVGID_00000048468898664559269370000007147969039790338176_">
							<use xlink:href="#SVGID_00000052098301156058066230000012968896806745515400_"  style="overflow:visible;"/>
						</clipPath>
						<g style="clip-path:url(#SVGID_00000048468898664559269370000007147969039790338176_);">
							<path style="fill:#FFFFFF;" d="M4,8.1C1.8,8.1,0,6.3,0,4C0,1.8,1.8,0,4,0C6.3,0,8.1,1.8,8.1,4c0,2-1.4,3.7-3.4,4
								C4.5,8.1,4.3,8.1,4,8.1 M4.1,1C2.4,1,1,2.4,1,4.1C1,5.7,2.4,7.1,4,7.1c1.7,0,3.1-1.4,3.1-3.1c0-1-0.5-1.9-1.3-2.5
								C5.3,1.2,4.7,1,4.1,1"/>
						</g>
					</g>
				</g>
				<g transform="translate(195.537 55.635)" style="opacity:0.7;">
					<g>
						<defs>
							<rect id="SVGID_00000142897060245625461940000000516470092774728068_" x="0" y="0" width="19.8" height="20.3"/>
						</defs>
						<clipPath id="SVGID_00000008114188806948389960000007561677170284100529_">
							<use xlink:href="#SVGID_00000142897060245625461940000000516470092774728068_"  style="overflow:visible;"/>
						</clipPath>
						<g style="clip-path:url(#SVGID_00000008114188806948389960000007561677170284100529_);">
							<path style="fill:#FFFFFF;" d="M10.2,20.3c-0.3,0-0.5,0-0.8,0C3.8,19.8-0.4,15,0,9.4C0.5,3.8,5.4-0.4,10.9,0
								c2.7,0.2,5.2,1.5,6.9,3.5c0,0,0.1,0.1,0.1,0.1c0.4,0.5,0.7,1,1,1.5v0l0,0l0,0l0,0c0,0,0,0,0,0.1l-0.9,0.5
								c-2-3.7-6.2-5.5-10.3-4.5C3,2.5,0,7.5,1.3,12.4s6.2,7.9,11.1,6.7c3-0.8,5.5-3,6.5-6l0.9,0.3C18.4,17.5,14.5,20.3,10.2,20.3"
								/>
						</g>
					</g>
				</g>
				<path style="fill:#33AE00;" d="M141,111.6c0.8-0.8,1.9-1.2,3-1.1c12,1.1,34.3-4.7,48.9-19.6c1-1,2.9-0.5,4,0.4
					c16.2,12.1,43.1,14.6,52.5,15.2c1.9,0.1,3.5,1.6,3.7,3.5c8.5,82-44.9,111.7-56,117c-1.2,0.6-2.6,0.5-3.8-0.2
					c-55.2-34.4-52.8-79.1-53.6-112.2C139.7,113.5,140.2,112.4,141,111.6"/>
				<g transform="translate(145.656 97.516)" style="opacity:0.61;">
					<g>
						<defs>
							<rect id="SVGID_00000030448444613843848800000001338642466750625416_" x="0" y="0" width="102.5" height="123.6"/>
						</defs>
						<clipPath id="SVGID_00000085210315083097799040000012580758727553512841_">
							<use xlink:href="#SVGID_00000030448444613843848800000001338642466750625416_"  style="overflow:visible;"/>
						</clipPath>
						<g style="clip-path:url(#SVGID_00000085210315083097799040000012580758727553512841_);">
							<path style="fill:#FFFFFF;" d="M49.9,123.6c-0.3,0-0.5-0.1-0.7-0.2c-21.2-13.5-35-29.7-42.2-49.4C0.6,56.3,0.3,38.3,0,22.5
								l0-2.1c0-0.4,0.1-0.7,0.4-0.9C0.6,19.2,1,19,1.3,19c13.1,0,32.8-5.8,47.2-18.7c0.4-0.4,1.1-0.4,1.6-0.1
								C66,10.7,88.6,13.8,100.7,14.7c0.6,0,1.2,0.6,1.2,1.2c2.8,32-3.9,59.1-19.8,80.4c-8.4,11.3-19.1,20.5-31.5,27.1
								C50.4,123.5,50.2,123.6,49.9,123.6 M50.3,122.9l0.1,0.2L50.3,122.9c12.3-6.6,23-15.8,31.3-27c15.9-21.3,22.5-48.2,19.7-80.1
								c0-0.4-0.3-0.7-0.7-0.7c-12.1-0.9-34.8-4-50.8-14.6c-0.3-0.2-0.7-0.2-0.9,0.1c-14.5,13-34.4,18.9-47.6,18.9
								c-0.2,0-0.4,0.1-0.6,0.2c-0.1,0.1-0.2,0.3-0.2,0.6l0,2.1c0.3,15.8,0.6,33.7,7,51.3c7.2,19.6,20.9,35.7,42,49.2
								C49.8,123.1,50.1,123.1,50.3,122.9"/>
						</g>
					</g>
				</g>
				<g transform="translate(176.647 119.292)" style="opacity:0.61;">
					<g>
						<defs>
							<rect id="SVGID_00000057866885060539020990000007852901654903395716_" x="0" y="0" width="40.5" height="23.3"/>
						</defs>
						<clipPath id="SVGID_00000121992206954002383060000010272514777173548478_">
							<use xlink:href="#SVGID_00000057866885060539020990000007852901654903395716_"  style="overflow:visible;"/>
						</clipPath>
						<g style="clip-path:url(#SVGID_00000121992206954002383060000010272514777173548478_);">
							<path style="fill:#FFFFFF;" d="M38.3,23.3h-2.5c-1.2,0-2.2-1-2.2-2.2v0v-8.5C33.5,9.5,31,7,28,7c0,0,0,0,0,0H12.5
								C9.5,7,7,9.5,7,12.5c0,0,0,0,0,0V21c0,1.2-1,2.2-2.2,2.2H2.2C1,23.3,0,22.3,0,21v0v-8.5C0,5.6,5.6,0,12.5,0c0,0,0,0,0,0H28
								c6.9,0,12.5,5.6,12.5,12.5c0,0,0,0,0,0V21C40.5,22.3,39.5,23.3,38.3,23.3L38.3,23.3"/>
						</g>
					</g>
				</g>
				<g transform="translate(171.116 144.597)" style="opacity:0.61;">
					<g>
						<defs>
							<rect id="SVGID_00000177446006115648062050000002102912762924851609_" x="0" y="0" width="51.6" height="41.7"/>
						</defs>
						<clipPath id="SVGID_00000107587023155378812770000005508165585238073736_">
							<use xlink:href="#SVGID_00000177446006115648062050000002102912762924851609_"  style="overflow:visible;"/>
						</clipPath>
						<g style="clip-path:url(#SVGID_00000107587023155378812770000005508165585238073736_);">
							<path style="fill:#FFFFFF;" d="M46.9,0H4.7C2.1,0,0,2.1,0,4.7v32.4c0,2.6,2.1,4.7,4.7,4.7h0h42.2c2.6,0,4.7-2.1,4.7-4.7
								c0,0,0,0,0,0V4.7C51.6,2.1,49.5,0,46.9,0C46.9,0,46.9,0,46.9,0 M31.8,31.3c0.2,0.9-0.4,1.9-1.3,2.1c-0.1,0-0.3,0-0.4,0h-8.7
								c-1,0-1.7-0.8-1.7-1.7c0-0.1,0-0.3,0-0.4l2-8.5c-3.7-2.2-4.9-7-2.7-10.7c2.2-3.7,7-4.9,10.7-2.7s4.9,7,2.7,10.7
								c-0.7,1.1-1.6,2-2.7,2.7L31.8,31.3z"/>
						</g>
					</g>
				</g>
				<path style="fill:#272F65;" d="M35.1,134c0,0,3.4,0.2,3.8,7.2c0,0-7.9,7.1-18.6,8.8c-0.8,0.1,1.1-5.5,1.4-6.2
					C23.1,140.2,27.5,137.8,35.1,134"/>
				<path style="fill:#7D97F4;" d="M73.6,125.7h-7.2c0,0-22.1-24.4-36.7-26.9c0,0-10.1,12.9,0.5,37c0.8,1.8,2.8,2.6,4.6,1.9
					c0.1-0.1,0.3-0.1,0.4-0.2c0.5-0.3,0.9-0.8,1.2-1.4l-0.9-20.6c0,0,18.9,16.5,22.2,19.7S77.8,136.5,73.6,125.7"/>
				<path style="fill:#272F65;" d="M3.9,177.1c4.2-3.6,9.3-5.9,14.8-6.5L21,172c-1.2,1.7-2.6,3.2-4.2,4.5c-2.5,1.5-6.4,3.4-9.6,3.9
					C4.1,180.9,3.6,179,3.9,177.1"/>
				<path style="fill:#91B3FA;" d="M21.8,143.8c1.9,0.6,2.7,3.2,7.4,1.5c3.4-1.3,6.7-3,9.7-5.1c0,0.3,0.1,0.7,0.1,1.1
					c0,0-8.4,7.9-19.1,9.6c-0.6,0.1-1.1-0.3-1.2-0.9c0-0.2,0-0.4,0.1-0.5C19.5,147.4,20.5,145.5,21.8,143.8"/>
				<path style="fill:#91B3FA;" d="M1.6,179.3c0.7-0.8,1.5-1.6,2.3-2.3c-0.3,1.9,0.1,3.8,3.3,3.4c3.2-0.4,7.1-2.4,9.6-3.9
					C13,180.1,8,182,2.8,182c-0.9,0-1.6-0.7-1.6-1.6C1.3,180,1.4,179.6,1.6,179.3"/>
				<path style="fill:#7D97F4;" d="M73.4,131l-33.8,0.4c0,0-19.3,16-22.8,40.3c0,0-0.6,1.8,2.9,2.1c7.9-5.6,14.4-12.8,19.3-21.1
					c9.3-16.5,27.8-9.1,27.8-9.1c8.9,2,15.9,1.2,21.1-6.7L73.4,131z"/>
			</g>
		</g>
		<g transform="translate(43.293 103.755)">
			<g>
				<defs>
					<path id="SVGID_00000141413733929725043100000002125710552786250122_" d="M7.8,25.4l-6.3-0.7L0,27.1l14.9,0.5
						c8.4-3.9,15.3-10.5,19.4-18.7c0.2-0.5,3.9-8.1-5-8.8C29.3,0,25.6,18.2,7.8,25.4"/>
				</defs>
				<clipPath id="SVGID_00000028296188466997444370000010446725780859161245_">
					<use xlink:href="#SVGID_00000141413733929725043100000002125710552786250122_"  style="overflow:visible;"/>
				</clipPath>
				<g style="clip-path:url(#SVGID_00000028296188466997444370000010446725780859161245_);">
					
						<linearGradient id="SVGID_00000132078970443300800760000015922363336418618024_" gradientUnits="userSpaceOnUse" x1="-205.3949" y1="447.6401" x2="-205.3649" y2="447.6401" gradientTransform="matrix(35.9435 -30.2583 -29.4199 -34.9475 20523.5039 9482.9268)">
						<stop  offset="0" style="stop-color:#FEBBBA"/>
						<stop  offset="1" style="stop-color:#FF928E"/>
					</linearGradient>
					<polygon style="fill:url(#SVGID_00000132078970443300800760000015922363336418618024_);" points="-13.6,11.4 22.4,-18.9 
						51.8,16.1 15.9,46.4 					"/>
				</g>
			</g>
		</g>
		<g>
			<defs>
				<rect id="SVGID_00000043418267866629254330000016269754587702780040_" y="0" width="274.8" height="276.5"/>
			</defs>
			<clipPath id="SVGID_00000148659271639450104460000011070420651212580531_">
				<use xlink:href="#SVGID_00000043418267866629254330000016269754587702780040_"  style="overflow:visible;"/>
			</clipPath>
			<g style="clip-path:url(#SVGID_00000148659271639450104460000011070420651212580531_);">
				<path style="fill:#EDE5F2;" d="M70.6,130.7c2.5-7.2,4.2-14.6,5-22.2c-1.6-1.3-3.2-2.6-4.9-3.7c-0.6-0.4-0.8-1.1-0.5-1.8
					c1.4-2.9,9.8-14.2,10.4-14.3c3.4-0.9,17.5-7.5,27.3,6c4.2,5.8-0.8,23.7-20.1,42.2C81.7,137.8,75.9,136.1,70.6,130.7"/>
			</g>
		</g>
		<g transform="translate(47.074 110.966)">
			<g>
				<defs>
					<path id="SVGID_00000036248595597405293020000001753353915788196012_" d="M13.3,15.6c0,0-3.8-3.5-6.6-2.2S0,20.1,0,20.1h18.9
						c0,0,17.8-0.6,26.7-11.4c-0.7-3.8-2.9-6-6.1-8.6C39.5,0,28,13.6,13.3,15.6"/>
				</defs>
				<clipPath id="SVGID_00000171714158407707624510000005812911769606819246_">
					<use xlink:href="#SVGID_00000036248595597405293020000001753353915788196012_"  style="overflow:visible;"/>
				</clipPath>
				<g style="clip-path:url(#SVGID_00000171714158407707624510000005812911769606819246_);">
					
						<linearGradient id="SVGID_00000036253703523659104420000007247958238491625354_" gradientUnits="userSpaceOnUse" x1="-208.7886" y1="439.9297" x2="-208.7596" y2="439.9297" gradientTransform="matrix(39.2565 -28.7005 -25.4278 -34.7801 19349.1797 9359.6807)">
						<stop  offset="0" style="stop-color:#FEBBBA"/>
						<stop  offset="1" style="stop-color:#FF928E"/>
					</linearGradient>
					<polygon style="fill:url(#SVGID_00000036253703523659104420000007247958238491625354_);" points="-9.6,7 29.7,-21.7 55.1,13.1 
						15.9,41.8 					"/>
				</g>
			</g>
		</g>
		<g transform="translate(85.228 79.128)">
			<g>
				<defs>
					<path id="SVGID_00000013885405650294470980000001288714299612425657_" d="M0,1.8l0.6,7.3c0,0.5,0.4,1,0.9,1.2
						c2.9,1.2,6.1,0.8,8.7-0.9c0.3-0.2,0.5-0.6,0.4-1L8,0L0,1.8z"/>
				</defs>
				<clipPath id="SVGID_00000131355151618943627370000000406104442614619838_">
					<use xlink:href="#SVGID_00000013885405650294470980000001288714299612425657_"  style="overflow:visible;"/>
				</clipPath>
				<g style="clip-path:url(#SVGID_00000131355151618943627370000000406104442614619838_);">
					
						<linearGradient id="SVGID_00000003804012955783148200000000389211455614645915_" gradientUnits="userSpaceOnUse" x1="-241.6023" y1="456.2491" x2="-241.4823" y2="456.2491" gradientTransform="matrix(11.8342 -1.3149 -1.4345 -12.9106 3428.967 5588.6958)">
						<stop  offset="0" style="stop-color:#FEBBBA"/>
						<stop  offset="1" style="stop-color:#FF928E"/>
					</linearGradient>
					<polygon style="fill:url(#SVGID_00000003804012955783148200000000389211455614645915_);" points="-1.3,0.1 10.5,-1.2 12,11.7 
						0.1,13.1 					"/>
				</g>
			</g>
		</g>
		<g transform="translate(78.541 66.609)">
			<g>
				<defs>
					<path id="SVGID_00000096031047572479722400000013504690460573595040_" d="M0,5.7c0,0,1.2,8.7,4.6,11.4c3.3,2.7,9.8,0.7,12-5.9
						L12.2,0L0,5.7z"/>
				</defs>
				<clipPath id="SVGID_00000133522316932733845230000014709319826118810549_">
					<use xlink:href="#SVGID_00000096031047572479722400000013504690460573595040_"  style="overflow:visible;"/>
				</clipPath>
				<g style="clip-path:url(#SVGID_00000133522316932733845230000014709319826118810549_);">
					
						<linearGradient id="SVGID_00000016762973383751373200000015336388065489479078_" gradientUnits="userSpaceOnUse" x1="-251.1566" y1="480.9086" x2="-251.0966" y2="480.9086" gradientTransform="matrix(6.8829 -22.7134 -20.7028 -6.2736 11667.9414 -2594.627)">
						<stop  offset="0" style="stop-color:#FEBBBA"/>
						<stop  offset="1" style="stop-color:#FF928E"/>
					</linearGradient>
					<polygon style="fill:url(#SVGID_00000016762973383751373200000015336388065489479078_);" points="-5.5,18.1 1.4,-4.6 22.1,1.7 
						15.2,24.4 					"/>
				</g>
			</g>
		</g>
		<g>
			<defs>
				<rect id="SVGID_00000094601801529313408800000015491762110380179127_" y="0" width="274.8" height="276.5"/>
			</defs>
			<clipPath id="SVGID_00000013889815449252417450000017791209414159593127_">
				<use xlink:href="#SVGID_00000094601801529313408800000015491762110380179127_"  style="overflow:visible;"/>
			</clipPath>
			<g style="clip-path:url(#SVGID_00000013889815449252417450000017791209414159593127_);">
				<path style="fill:#272F65;" d="M91.3,73.9c-0.2,0.1-0.5,0-0.5-0.3c0,0,0,0,0-0.1c-0.2-1.2-0.5-2.4-1-3.5c0,0,0.3-1.1-2.9,0.6
					s-8,4.3-10.8,2.7c-2.8-1.5-5.6-8.9,1.7-7.5c0.2,0,0.5-0.1,0.5-0.3c0,0,0-0.1,0-0.1c-0.1-1.2,0-4,2.9-4.9
					c2.6-0.8,4.1,0.4,4.7,1.1c0.2,0.2,0.4,0.2,0.6,0.1c0,0,0,0,0.1-0.1c1.3-2,3.9-2.8,6.1-1.8c2.6,1.2,3,2.8,3,3.8
					c0,0.2,0.2,0.4,0.4,0.5c0.1,0,0.1,0,0.2,0c1.2-0.6,2.6-0.1,3.3,1c1.7,2.1-0.7,4-1.5,4.5c-0.1,0.1-0.2,0.2-0.2,0.4
					c0,1.1-0.2,6-2.6,8.7c-0.2,0.2-0.4,0.2-0.6,0c0,0-0.1-0.1-0.1-0.2l-1.9-4.5c-0.1-0.2-0.3-0.3-0.5-0.2L91.3,73.9z"/>
			</g>
		</g>
		<g transform="translate(91.23 71.32)">
			<g>
				<defs>
					<path id="SVGID_00000096055635464814687180000015613483819587012742_" d="M0,3.4l0.4,2.3c2-0.6,4.2-4,2.4-5.5
						C2.7,0.1,2.4,0,2.2,0C0.8,0,0,3.4,0,3.4"/>
				</defs>
				<clipPath id="SVGID_00000015332060726522129750000010218058830765138331_">
					<use xlink:href="#SVGID_00000096055635464814687180000015613483819587012742_"  style="overflow:visible;"/>
				</clipPath>
				<g style="clip-path:url(#SVGID_00000015332060726522129750000010218058830765138331_);">
					
						<linearGradient id="SVGID_00000123440295818267475440000008391505448646822587_" gradientUnits="userSpaceOnUse" x1="-297.0959" y1="448.4127" x2="-296.8869" y2="448.4127" gradientTransform="matrix(1.9896 -6.562 -5.8232 -1.7656 3177.468 -1065.4553)">
						<stop  offset="0" style="stop-color:#FEBBBA"/>
						<stop  offset="1" style="stop-color:#FF928E"/>
					</linearGradient>
					<polygon style="fill:url(#SVGID_00000123440295818267475440000008391505448646822587_);" points="-1.6,5.3 0.4,-1.3 6.2,0.5 
						4.2,7 					"/>
				</g>
			</g>
		</g>
		<g>
			<defs>
				<rect id="SVGID_00000168079844176709100180000011094020598608074153_" y="0" width="274.8" height="276.5"/>
			</defs>
			<clipPath id="SVGID_00000038402135656573036780000018373994072385210786_">
				<use xlink:href="#SVGID_00000168079844176709100180000011094020598608074153_"  style="overflow:visible;"/>
			</clipPath>
			<g style="clip-path:url(#SVGID_00000038402135656573036780000018373994072385210786_);">
				<path style="fill:#272F65;" d="M48,132.1l-8.5-28.2c-0.3-1.2-1.4-2-2.6-2.1L25.6,101c-0.9-0.1-1.7,0.6-1.7,1.5
					c0,0.2,0,0.4,0.1,0.6l9.5,27c0.3,0.9,1.1,1.5,2,1.6l11.3,1.2L48,132.1z"/>
				<path style="fill:#91B3FA;" d="M32.4,113.4c0.6,1.3,1.7,2,2.4,1.7c0.7-0.4,0.8-1.7,0.1-3s-1.7-2-2.4-1.7S31.8,112.1,32.4,113.4"
					/>
			</g>
		</g>
		<g transform="translate(45.565 129.587)">
			<g>
				<defs>
					<path id="SVGID_00000063605749268560954360000014228295507632119176_" d="M25,0L1,1.2c-0.6,0-1,0.5-1,1.1c0,0.6,0.5,1,1.1,1
						h0.1l24-1.2c0.6,0,1.1-0.5,1-1.1C26.1,0.5,25.7,0,25,0L25,0"/>
				</defs>
				<clipPath id="SVGID_00000053519152645194774930000010589972678982642336_">
					<use xlink:href="#SVGID_00000063605749268560954360000014228295507632119176_"  style="overflow:visible;"/>
				</clipPath>
				<g style="clip-path:url(#SVGID_00000053519152645194774930000010589972678982642336_);">
					
						<linearGradient id="SVGID_00000060032525183377453470000010339943357059645576_" gradientUnits="userSpaceOnUse" x1="-233.5196" y1="420.0411" x2="-233.3786" y2="420.0411" gradientTransform="matrix(2.6872 -9.8044 -25.219 -6.9119 11218.0732 671.9808)">
						<stop  offset="0" style="stop-color:#09005D"/>
						<stop  offset="1" style="stop-color:#1A0F91"/>
					</linearGradient>
					<polygon style="fill:url(#SVGID_00000060032525183377453470000010339943357059645576_);" points="-0.9,3.1 1.8,-6.7 27,0.2 
						24.3,10 					"/>
				</g>
			</g>
		</g>
		<g>
			<defs>
				<rect id="SVGID_00000001629079114816179050000017072970260963196306_" y="0" width="274.8" height="276.5"/>
			</defs>
			<clipPath id="SVGID_00000153691302417030270680000010748159343467490993_">
				<use xlink:href="#SVGID_00000001629079114816179050000017072970260963196306_"  style="overflow:visible;"/>
			</clipPath>
			<g style="clip-path:url(#SVGID_00000153691302417030270680000010748159343467490993_);">
				<path style="fill:#272F65;" d="M75.6,108.7c-0.1,0-0.2-0.1-0.2-0.2c0-5.1,1.9-11.8,2-11.8c0-0.1,0.1-0.1,0.2-0.1
					c0.1,0,0.1,0.1,0.1,0.2c0,0.1-2,6.7-1.9,11.7C75.8,108.6,75.7,108.7,75.6,108.7z"/>
				<path style="fill:#272F65;" d="M86.6,111.1c-0.1,0-0.2-0.1-0.2-0.2c0,0,0-0.1,0-0.1c0.1-0.1,5.3-6.7,7.1-11.2
					c0-0.1,0.1-0.1,0.2-0.1c0,0,0,0,0,0c0.1,0,0.1,0.1,0.1,0.2c-1.8,4.6-7,11.2-7.1,11.3C86.7,111.1,86.6,111.1,86.6,111.1"/>
				<path style="fill:#272F65;" d="M94,121.3L93,120c-0.1-0.1,0-0.2,0-0.2c0.1,0,0.2,0,0.2,0l0.8,1.1c7.4-3.2,12-12.1,12-12.2
					c0-0.1,0.1-0.1,0.2-0.1s0.1,0.1,0.1,0.2l0,0c0,0.1-4.7,9.1-12.3,12.4L94,121.3z"/>
			</g>
		</g>
	</g>
</g>
</svg>
