<?xml version="1.0" encoding="utf-8"?>
<!-- Generator: Adobe Illustrator 26.2.1, SVG Export Plug-In . SVG Version: 6.00 Build 0)  -->
<svg version="1.1" id="Layer_1" xmlns="http://www.w3.org/2000/svg" xmlns:xlink="http://www.w3.org/1999/xlink" x="0px" y="0px"
	 viewBox="0 0 50.9 83.4" style="enable-background:new 0 0 50.9 83.4;" xml:space="preserve">
<g transform="translate(-113.452 -15.257)">
	<rect x="113.5" y="15.3" style="fill:#99B9E2;" width="50.9" height="83.4"/>
	<rect x="116.1" y="17" style="fill:#FFFFFF;" width="46.6" height="78.5"/>
	<path style="fill:#99B9E2;" d="M145.4,58.7h-11.9c-0.8,0-1.4-0.6-1.4-1.4c0-0.8,0.6-1.4,1.4-1.4c0,0,0,0,0,0h11.9
		c0.8,0,1.4,0.6,1.4,1.4C146.8,58,146.2,58.7,145.4,58.7"/>
	<path style="fill:#99B9E2;" d="M147.6,62.9h-16.3c-0.8,0-1.4-0.6-1.4-1.4c0-0.8,0.6-1.4,1.4-1.4c0,0,0,0,0,0h16.3
		c0.8,0,1.4,0.6,1.4,1.4C149,62.3,148.4,62.9,147.6,62.9C147.6,62.9,147.6,62.9,147.6,62.9"/>
	<path style="fill:#99B9E2;" d="M159.3,78.3h-39.7c-0.4,0-0.8-0.4-0.8-0.8c0-0.4,0.4-0.8,0.8-0.8h39.7c0.4,0,0.8,0.4,0.8,0.8
		C160.1,77.9,159.8,78.3,159.3,78.3C159.3,78.3,159.3,78.3,159.3,78.3"/>
	<path style="fill:#99B9E2;" d="M159.3,82h-39.7c-0.4,0-0.8-0.4-0.8-0.8c0-0.4,0.4-0.8,0.8-0.8c0,0,0,0,0,0h39.7
		c0.4,0,0.8,0.4,0.8,0.8C160.1,81.7,159.8,82,159.3,82C159.3,82,159.3,82,159.3,82"/>
	<path style="fill:#99B9E2;" d="M159.3,85.8h-39.7c-0.4,0-0.8-0.4-0.8-0.8c0-0.4,0.4-0.8,0.8-0.8h39.7c0.4,0,0.8,0.4,0.8,0.8
		C160.1,85.4,159.8,85.8,159.3,85.8C159.3,85.8,159.3,85.8,159.3,85.8"/>
	<path style="fill:#99B9E2;" d="M159.3,44.2h-39.7c-0.4,0-0.8-0.4-0.8-0.8c0-0.4,0.4-0.8,0.8-0.8h39.7c0.4,0,0.8,0.4,0.8,0.8
		C160.1,43.8,159.8,44.2,159.3,44.2"/>
	<path style="fill:#99B9E2;" d="M159.3,47.9h-39.7c-0.4,0-0.8-0.4-0.8-0.8c0-0.4,0.4-0.8,0.8-0.8h39.7c0.4,0,0.8,0.4,0.8,0.8
		C160.1,47.6,159.8,47.9,159.3,47.9C159.3,47.9,159.3,47.9,159.3,47.9"/>
	<path style="fill:#99B9E2;" d="M159.3,51.7h-39.7c-0.4,0-0.8-0.4-0.8-0.8c0-0.4,0.4-0.8,0.8-0.8h39.7c0.4,0,0.8,0.4,0.8,0.8
		C160.1,51.3,159.8,51.7,159.3,51.7C159.3,51.7,159.3,51.7,159.3,51.7"/>
	<path style="fill:#99B9E2;" d="M159.3,33.1h-39.7c-0.4,0-0.8-0.4-0.8-0.8c0-0.4,0.4-0.8,0.8-0.8c0,0,0,0,0,0h39.7
		c0.4,0,0.8,0.4,0.8,0.8C160.1,32.7,159.8,33.1,159.3,33.1C159.3,33.1,159.3,33.1,159.3,33.1"/>
	<path style="fill:#99B9E2;" d="M159.3,36.8h-39.7c-0.4,0-0.8-0.4-0.8-0.8c0-0.4,0.4-0.8,0.8-0.8h39.7c0.4,0,0.8,0.4,0.8,0.8
		C160.1,36.5,159.8,36.8,159.3,36.8"/>
	<path style="fill:#99B9E2;" d="M159.3,40.6h-39.7c-0.4,0-0.8-0.4-0.8-0.8c0-0.4,0.4-0.8,0.8-0.8h39.7c0.4,0,0.8,0.4,0.8,0.8
		C160.1,40.2,159.8,40.6,159.3,40.6"/>
	<path style="fill:#99B9E2;" d="M129.3,66.6l0.8,1.7l1.9,0.3l-1.3,1.3l0.3,1.8l-1.7-0.9l-1.7,0.9l0.3-1.8l-1.3-1.3l1.9-0.3
		L129.3,66.6z"/>
	<path style="fill:#99B9E2;" d="M136.1,66.6l0.8,1.7l1.9,0.3l-1.3,1.3l0.3,1.8l-1.7-0.9l-1.7,0.9l0.3-1.8l-1.3-1.3l1.9-0.3
		L136.1,66.6z"/>
	<path style="fill:#99B9E2;" d="M142.9,66.6l0.8,1.7l1.9,0.3l-1.3,1.3l0.3,1.8l-1.7-0.9l-1.7,0.9l0.3-1.8l-1.3-1.3l1.9-0.3
		L142.9,66.6z"/>
	<path style="fill:#99B9E2;" d="M149.6,66.6l0.8,1.7l1.9,0.3l-1.3,1.3l0.3,1.8l-1.7-0.9l-1.7,0.9l0.3-1.8l-1.3-1.3l1.9-0.3
		L149.6,66.6z"/>
</g>
</svg>
