<?xml version="1.0" encoding="utf-8"?>
<!-- Generator: Adobe Illustrator 26.2.1, SVG Export Plug-In . SVG Version: 6.00 Build 0)  -->
<svg version="1.1" id="Layer_1" xmlns="http://www.w3.org/2000/svg" xmlns:xlink="http://www.w3.org/1999/xlink" x="0px" y="0px"
	 viewBox="0 0 83.2 113.9" style="enable-background:new 0 0 83.2 113.9;" xml:space="preserve">
<g transform="translate(-38.862)">
	<g transform="translate(38.862 15.566)" style="opacity:0.2;">
		<g>
			<defs>
				<rect id="SVGID_1_" y="0" width="83.2" height="82.3"/>
			</defs>
			<clipPath id="SVGID_00000093149380299208840860000013120743951438776204_">
				<use xlink:href="#SVGID_1_"  style="overflow:visible;"/>
			</clipPath>
			<g style="clip-path:url(#SVGID_00000093149380299208840860000013120743951438776204_);">
				<g transform="translate(0)">
					<g>
						<defs>
							<rect id="SVGID_00000022551989868495334680000008069151321916691628_" y="0" width="83.2" height="82.3"/>
						</defs>
						<clipPath id="SVGID_00000158030274479497816730000004759581936041273746_">
							<use xlink:href="#SVGID_00000022551989868495334680000008069151321916691628_"  style="overflow:visible;"/>
						</clipPath>
						<g style="clip-path:url(#SVGID_00000158030274479497816730000004759581936041273746_);">
							<path style="fill:#99B9E2;" d="M80.3,82.3H0L5.7,0h77.5L80.3,82.3z"/>
						</g>
					</g>
				</g>
			</g>
		</g>
	</g>
	<rect x="47.3" style="fill:#99B9E2;" width="69.5" height="113.9"/>
	<rect x="50.9" y="2.3" style="fill:#FFFFFF;" width="63.6" height="107.3"/>
	<path style="fill:#99B9E2;" d="M97.7,59.3H68c-1-0.1-1.8-1-1.8-2c0.1-1,0.8-1.7,1.8-1.8h29.7c1,0.1,1.8,1,1.8,2
		C99.4,58.5,98.6,59.2,97.7,59.3"/>
	<path style="fill:#99B9E2;" d="M94,65.1H71.7c-1,0.1-2-0.7-2-1.7c-0.1-1,0.7-2,1.7-2c0.1,0,0.1,0,0.2,0H94c1,0.1,1.8,1,1.8,2
		C95.7,64.3,94.9,65.1,94,65.1"/>
	<path style="fill:#99B9E2;" d="M109.9,86.1H55.7c-0.6,0-1.1-0.5-1.1-1.1s0.5-1.1,1.1-1.1l0,0h54.3c0.6,0,1.1,0.5,1.1,1.1
		C111,85.6,110.5,86.1,109.9,86.1"/>
	<path style="fill:#99B9E2;" d="M109.9,91.2H55.7c-0.6,0-1.1-0.5-1.1-1.1s0.5-1.1,1.1-1.1l0,0h54.3c0.6,0,1.1,0.5,1.1,1.1
		C111,90.7,110.5,91.2,109.9,91.2"/>
	<path style="fill:#99B9E2;" d="M109.9,96.3H55.7c-0.6,0-1.1-0.5-1.1-1.1c0-0.6,0.5-1.1,1.1-1.1h54.2c0.6,0,1.1,0.5,1.1,1.1
		C111,95.8,110.5,96.3,109.9,96.3"/>
	<path style="fill:#99B9E2;" d="M109.9,41.7H55.7c-0.6,0-1.1-0.5-1.1-1.1s0.5-1.1,1.1-1.1l0,0h54.3c0.6,0,1.1,0.5,1.1,1.1
		C111,41.2,110.5,41.7,109.9,41.7"/>
	<path style="fill:#99B9E2;" d="M109.9,46.8H55.7c-0.6,0-1.1-0.5-1.1-1.1s0.5-1.1,1.1-1.1h54.3c0.6,0,1.1,0.5,1.1,1.1
		C111,46.3,110.5,46.8,109.9,46.8"/>
	<path style="fill:#99B9E2;" d="M109.9,51.9H55.7c-0.6,0-1.1-0.5-1.1-1.1c0-0.6,0.5-1.1,1.1-1.1h54.2c0.6,0,1.1,0.5,1.1,1.1
		C111,51.4,110.5,51.9,109.9,51.9"/>
	<path style="fill:#99B9E2;" d="M109.9,26.3H55.7c-0.6,0-1.1-0.5-1.1-1.1s0.5-1.1,1.1-1.1h54.3c0.6,0,1.1,0.5,1.1,1.1
		C111,25.8,110.5,26.3,109.9,26.3"/>
	<path style="fill:#99B9E2;" d="M109.9,31.4H55.7c-0.6,0-1.1-0.5-1.1-1.1s0.5-1.1,1.1-1.1l0,0h54.3c0.6,0,1.1,0.5,1.1,1.1
		C111,30.9,110.5,31.4,109.9,31.4"/>
	<path style="fill:#99B9E2;" d="M109.9,36.5H55.7c-0.6,0-1.1-0.5-1.1-1.1c0-0.6,0.5-1.1,1.1-1.1h54.2c0.6,0,1.1,0.5,1.1,1.1
		C111,36.1,110.5,36.5,109.9,36.5"/>
	<path style="fill:#99B9E2;" d="M64.2,70.1l1.1,2.3l2.5,0.4l-1.8,1.8l0.4,2.5l-2.3-1.2L62,77l0.4-2.5l-1.8-1.8l2.5-0.4L64.2,70.1z"
		/>
	<path style="fill:#99B9E2;" d="M73.5,70.1l1.1,2.3l2.5,0.4l-1.8,1.8l0.4,2.5l-2.3-1.2L71.2,77l0.4-2.5l-1.8-1.8l2.5-0.4L73.5,70.1z
		"/>
	<path style="fill:#99B9E2;" d="M82.8,70.1l1.1,2.3l2.5,0.4l-1.8,1.8L85,77l-2.3-1.2L80.5,77l0.4-2.5l-1.8-1.8l2.5-0.4L82.8,70.1z"
		/>
	<path style="fill:#99B9E2;" d="M92,70.1l1.1,2.3l2.5,0.4l-1.8,1.8l0.4,2.5L92,75.8L89.8,77l0.4-2.5l-1.8-1.8l2.5-0.4L92,70.1z"/>
	<path style="fill:#99B9E2;" d="M101.4,70.1l1.1,2.3l2.5,0.4l-1.8,1.8l0.4,2.5l-2.3-1.2L99.2,77l0.4-2.5l-1.8-1.8l2.5-0.4
		L101.4,70.1z"/>
</g>
</svg>
