<svg version="1.1" id="Layer_1" xmlns="http://www.w3.org/2000/svg" xmlns:xlink="http://www.w3.org/1999/xlink" x="0px" y="0px"
	 viewBox="0 0 362.7 285.7" style="enable-background:new 0 0 362.7 285.7;" xml:space="preserve">
<g id="search-tenant-information" transform="translate(-487 -769.308)">
	<g id="Group_102" transform="translate(-176.316 -972.26)">
		<g id="Group_99" transform="translate(704.691 1741.568)">
			<g id="Group_98" transform="translate(0)">
				
					<rect id="Rectangle_93" x="57.7" y="242.9" transform="matrix(0.7071 -0.7071 0.7071 0.7071 -160.5737 131.2969)" style="fill:#F8F8F8;" width="40.9" height="33.2"/>
				<g id="Group_97">
					<g>
						<defs>
							<rect id="SVGID_1_" x="0" y="0" width="275.2" height="285.7"/>
						</defs>
						<clipPath id="SVGID_00000006702644257098118040000010533441288893802925_">
							<use xlink:href="#SVGID_1_"  style="overflow:visible;"/>
						</clipPath>
						<g id="Group_96" style="clip-path:url(#SVGID_00000006702644257098118040000010533441288893802925_);">
							<path id="Path_1025" style="fill:#F8F8F8;" d="M184.6,0C134.5,0,94,40.6,93.9,90.6c0,17.2,4.9,34,14.1,48.5L0,247.2
								l30.5,30.5l76-76l0,0l32.7-32.7c43.3,25.1,98.8,10.3,123.9-33c25.1-43.3,10.3-98.8-33-123.9C216.2,4.2,200.6,0,184.6,0
								 M184.6,135.4c-24.7,0-44.7-20-44.7-44.7c0-24.7,20-44.7,44.7-44.7s44.7,20,44.7,44.7c0,0,0,0,0,0
								C229.3,115.4,209.3,135.4,184.6,135.4"/>
						</g>
					</g>
				</g>
			</g>
		</g>
	</g>
	<g id="Group_908" transform="translate(487 815)">
		<g>
			<defs>
				<rect id="SVGID_00000039107904730850278280000003461580909613276315_" x="0" y="0" width="362.7" height="194.2"/>
			</defs>
			<clipPath id="SVGID_00000055678673315398661190000015973506862498296211_">
				<use xlink:href="#SVGID_00000039107904730850278280000003461580909613276315_"  style="overflow:visible;"/>
			</clipPath>
			<g id="Group_907" style="clip-path:url(#SVGID_00000055678673315398661190000015973506862498296211_);">
				<g id="Group_881">
					<g>
						<defs>
							<rect id="SVGID_00000051370219640358672160000012213335099570694554_" x="0" y="0" width="362.7" height="194.2"/>
						</defs>
						<clipPath id="SVGID_00000001649334894270116060000010617906248525130127_">
							<use xlink:href="#SVGID_00000051370219640358672160000012213335099570694554_"  style="overflow:visible;"/>
						</clipPath>
						<g id="Group_880" style="clip-path:url(#SVGID_00000001649334894270116060000010617906248525130127_);">
							<path id="Path_2761" style="fill:#FFF8D3;" d="M56.4,190.5c0,0-39.5,7.3-52.1-20.2c-16.3-35.6,17.2-62.6,42.9-57.6
								c56.1,11,42.6-110,132.5-85.3c25.3,6.9,93.6-34.3,112.7,31.8c4.5,15.7,20.6,17.5,43.9,27.4c45.6,19.5,24.8,104.2-7.8,104.5
								S56.4,190.5,56.4,190.5"/>
							<rect id="Rectangle_490" x="320.4" y="104.3" style="fill:#EDE5F2;" width="23.3" height="86.8"/>
							<g id="Group_865">
								<g id="Group_864">
									<g>
										<defs>
											<rect id="SVGID_00000155832569307978351460000012220594606098570682_" x="320.4" y="104.3" width="23.3" height="86.8"/>
										</defs>
										<clipPath id="SVGID_00000054976300617534405910000009268216862419294382_">
											<use xlink:href="#SVGID_00000155832569307978351460000012220594606098570682_"  style="overflow:visible;"/>
										</clipPath>
										<g id="Group_863" style="clip-path:url(#SVGID_00000054976300617534405910000009268216862419294382_);">
											<rect id="Rectangle_491" x="320.4" y="104.3" style="fill:#EDE5F2;" width="23.3" height="86.8"/>
										</g>
									</g>
								</g>
							</g>
							<rect id="Rectangle_493" x="252.5" y="104.3" style="fill:#81B379;" width="23.3" height="86.8"/>
							<rect id="Rectangle_494" x="241.6" y="104.3" style="fill:#A7D19F;" width="17.1" height="86.8"/>
							<path id="Path_2762" style="fill:#81B379;" d="M254.2,181.8c0,2.1-1.7,3.8-3.8,3.8s-3.8-1.7-3.8-3.8c0-2.1,1.7-3.8,3.8-3.8
								C252.5,178,254.2,179.7,254.2,181.8L254.2,181.8"/>
							<rect id="Rectangle_495" x="286.6" y="104.3" style="fill:#6F98D0;" width="23.3" height="86.8"/>
							<rect id="Rectangle_496" x="275.7" y="104.3" style="fill:#B0CAEB;" width="17.1" height="86.8"/>
							<path id="Path_2763" style="fill:#6F98D0;" d="M288.4,181.8c0,2.1-1.7,3.8-3.8,3.8s-3.8-1.7-3.8-3.8c0-2.1,1.7-3.8,3.8-3.8
								l0,0C286.7,178,288.4,179.7,288.4,181.8"/>
							<rect id="Rectangle_497" x="280.8" y="113.1" style="fill:#FFFFFF;" width="7.6" height="45.5"/>
							<rect id="Rectangle_498" x="309.5" y="104.3" style="fill:#EDE5F2;" width="17.1" height="86.8"/>
							<g id="Group_868">
								<g id="Group_867">
									<g>
										<defs>
											<rect id="SVGID_00000026144762914347357680000008458822381221851266_" x="314.5" y="178" width="7.6" height="7.6"/>
										</defs>
										<clipPath id="SVGID_00000042717613741515154000000014605904337616777129_">
											<use xlink:href="#SVGID_00000026144762914347357680000008458822381221851266_"  style="overflow:visible;"/>
										</clipPath>
										<g id="Group_866" style="clip-path:url(#SVGID_00000042717613741515154000000014605904337616777129_);">
											<path id="Path_2764" style="fill:#EDE5F2;" d="M322.1,181.8c0,2.1-1.7,3.8-3.8,3.8s-3.8-1.7-3.8-3.8
												c0-2.1,1.7-3.8,3.8-3.8c0,0,0,0,0,0l0,0C320.4,178,322.1,179.7,322.1,181.8L322.1,181.8"/>
										</g>
									</g>
								</g>
							</g>
							<rect id="Rectangle_500" x="314.5" y="113.1" style="fill:#FFFFFF;" width="7.6" height="45.5"/>
							<rect id="Rectangle_501" x="246.3" y="113.7" style="fill:#FFFFFF;" width="7.6" height="45.5"/>
							<path id="Path_2765" style="fill:#4B72B6;" d="M196.6,87.5l8.2,97.6c0,0,0.9,5.9-3.5,5.9c-7.2,0-36,0-36,0s5.4-1.2,5.4-4
								c-0.1-3.3-9.6-100.5-9.6-100.5L196.6,87.5z"/>
							<path id="Path_2766" style="fill:#AACAEC;" d="M162.9,189.2c1.4,0,28.9,0.1,36,0c3.1,0,3.6-2.7,3.6-4.5c0-0.5,0-1-0.1-1.5
								l-0.2-2.5l-0.5-6.5l-0.5-5.7l-0.6-7.3L200,155l-5.8-69.4l-35.6-0.9c0,0,4,40.7,6.8,70.3c0.3,3.3,0.6,6.5,0.9,9.4
								c0.1,0.9,0.2,1.9,0.3,2.8c0.3,2.8,0.5,5.4,0.7,7.6c0.1,1.2,0.2,2.3,0.3,3.3c0.4,4,0.6,6.5,0.6,7c0,0.3,0,0.5-0.1,0.8
								C167.5,189.1,163.4,189.2,162.9,189.2"/>
							<path id="Path_2767" style="fill:#AACAEC;" d="M112.2,34.3h170.7l-20,80.3l-2.7,11l-9.3,37.4h-173L112.2,34.3z"/>
							<g id="Group_873">
								<g id="Group_872">
									<g>
										<defs>
											<rect id="SVGID_00000106848941944197657370000003935711340113762440_" x="177.1" y="137.8" width="80.1" height="25.3"/>
										</defs>
										<clipPath id="SVGID_00000127726275473648240660000014742250822605188011_">
											<use xlink:href="#SVGID_00000106848941944197657370000003935711340113762440_"  style="overflow:visible;"/>
										</clipPath>
										<g id="Group_871" style="clip-path:url(#SVGID_00000127726275473648240660000014742250822605188011_);">
											<path id="Path_2768" style="fill:#AACAEC;" d="M177.1,137.8h80.1l-4.7,25.3L177.1,137.8z"/>
											<g id="Group_870">
												<g>
													<defs>
														<polygon id="SVGID_00000047768495273868235130000011603472177125569696_" points="177.1,137.8 257.2,137.8 
															252.5,163.1 														"/>
													</defs>
													<clipPath id="SVGID_00000088813363543777877720000005283819893499002544_">
														<use xlink:href="#SVGID_00000047768495273868235130000011603472177125569696_"  style="overflow:visible;"/>
													</clipPath>
													<g id="Group_869" style="clip-path:url(#SVGID_00000088813363543777877720000005283819893499002544_);">
														<path id="Path_2769" style="fill:#AACAEC;" d="M177.1,137.8l73.8,25.3l6.3-25.3L177.1,137.8z"/>
													</g>
												</g>
											</g>
										</g>
									</g>
								</g>
							</g>
							<path id="Path_2771" style="fill:#4B72B6;" d="M282.9,34.3l2.8,0.9l-31.1,130.6l-3.7-2.8L282.9,34.3z"/>
							<path id="Path_2772" style="fill:#4B72B6;" d="M254.6,165.9H82.6l-4.7-2.8h173L254.6,165.9z"/>
							<rect id="Rectangle_503" x="157" y="189.2" style="fill:#E8F2FB;" width="37.2" height="1.8"/>
							<path id="Path_2773" style="fill:#272F65;" d="M166.4,165.9l0.2,1.4l35,7.1l-0.5-5.7l-0.2-2.7H166.4z"/>
							<path id="Path_2774" style="fill:#AACAEC;" d="M112.2,34.3h170.7l-25.7,103.4l-172.7,0L112.2,34.3z"/>
							<g id="Group_876">
								<g id="Group_875">
									<g>
										<defs>
											<rect id="SVGID_00000060708997290358186070000003168834406098689942_" x="159.7" y="146.3" width="9.4" height="9.2"/>
										</defs>
										<clipPath id="SVGID_00000178910074558402667740000013768247403297043094_">
											<use xlink:href="#SVGID_00000060708997290358186070000003168834406098689942_"  style="overflow:visible;"/>
										</clipPath>
										<g id="Group_874" style="clip-path:url(#SVGID_00000178910074558402667740000013768247403297043094_);">
											<path id="Path_2775" style="fill:#B0CAEB;" d="M159.8,150.9c0.6-2.6,2.8-4.5,5.5-4.6c2-0.1,3.7,1.5,3.8,3.5
												c0,0.4,0,0.7-0.1,1.1c-0.6,2.6-2.8,4.5-5.5,4.6c-2,0.1-3.7-1.5-3.8-3.5C159.7,151.6,159.7,151.2,159.8,150.9"/>
										</g>
									</g>
								</g>
							</g>
							<path id="Path_2776" style="fill:#E8F2FB;" d="M92.5,133.3h159.9l18.1-72.1l1.4-5.5l1.2-4.7l2.8-11.1H118.3l-3,11.1l-1.3,4.7
								l-1.5,5.5L92.5,133.3z"/>
							<path id="Path_2777" style="fill:#A7D19F;" d="M118.3,39.9h157.6l-2.8,11.1H115.3L118.3,39.9z"/>
							<path id="Path_2778" style="fill:#E8F2FB;" d="M268.3,43.5c0.6,0,1.1,0.4,1.1,1c0,0.1,0,0.3-0.1,0.4
								c-0.2,0.8-0.9,1.3-1.7,1.4c-0.6,0-1.1-0.4-1.1-1c0,0,0,0,0,0c0-0.1,0-0.3,0.1-0.4C266.8,44.1,267.5,43.5,268.3,43.5"/>
							<path id="Path_2779" style="fill:#E8F2FB;" d="M263.7,43.5c0.6,0,1.1,0.4,1.1,1c0,0.1,0,0.3-0.1,0.4
								c-0.2,0.8-0.9,1.3-1.7,1.4c-0.6,0-1.1-0.4-1.1-1c0-0.1,0-0.3,0.1-0.4C262.2,44.1,262.9,43.5,263.7,43.5"/>
							<path id="Path_2780" style="fill:#E8F2FB;" d="M257,44.9c0.2-0.8,0.9-1.3,1.7-1.4c0.6,0,1.1,0.4,1.1,1c0,0.1,0,0.3-0.1,0.4
								c-0.2,0.8-0.9,1.3-1.7,1.4c-0.6,0-1.1-0.4-1.1-1c0,0,0,0,0,0C257,45.1,257,45,257,44.9"/>
							<path id="Path_2781" style="fill:#233862;" d="M34.8,181.1c0,0-2,1.9-1.6,3.2s2.2,2.2,2.5,3.9s1.2,2.5,2.1,2.5h4.3
								c0,0,0.7-1.2-0.9-1.5s-2.2-2.3-2.1-4.1c0-1.4,0-2.8-0.1-4.2l-3.4-0.8L34.8,181.1z"/>
							<path id="Path_2782" style="fill:#233862;" d="M71.7,190.7H60.4c-0.1,0-0.2,0-0.2-0.1c-0.8-0.4-0.5-3.3-0.4-4.2
								c0-0.2,0-0.3,0-0.3s4-3.2,4.5-0.7c0,0.1,0,0.1,0.1,0.2c0.7,2.3,3.8,3.3,5.6,3.6C70.8,189.3,71.5,189.9,71.7,190.7"/>
							<path id="Path_2783" style="fill:#6F98D0;" d="M69.5,125.6c0,0-0.6,7.5-1.3,16.6c-1,12.3-2.1,27.4-2.2,30.2
								c-0.2,5-1,12.9-1,12.9s-1.9,1.9-5.7,1.1c-2.1-7.6-3.6-15.4-4.3-23.3c0-0.2,0-0.4,0-0.6c-0.9-12.2-2.3-37.9-2.3-37.9
								L69.5,125.6z"/>
							<path id="Path_2784" style="fill:#4B72B6;" d="M69.5,125.6c0,0-0.6,7.5-1.3,16.6l-13.2,20.9c0-0.2,0-0.4,0-0.6
								c-0.9-12.2-2.3-37.9-2.3-37.9L69.5,125.6z"/>
							<path id="Path_2785" style="fill:#6F98D0;" d="M66.7,126.5c0,0-10.9,27.2-18,40.1s-9.4,16.4-9.4,16.4s-4.1-1.6-4.5-2.8
								c0,0,2.7-24.7,7.5-30.7c2.7-3.4,5.9-13.6,6-17.2s1-10.6,1-10.6L66.7,126.5z"/>
							<path id="Path_2786" style="fill:#F6B07E;" d="M77.7,119l0.6,1.2c1.5,0.2,2.6,1.6,2.4,3.1c0,0.2-0.1,0.4-0.2,0.6
								c0,0-0.5,1.4-1.3,0.9s-0.4-0.4-1.7-1c-1.1-0.4-1.9-1.5-1.7-2.7l-0.2-1.1L77.7,119z"/>
							<path id="Path_2787" style="fill:#F6B07E;" d="M61.1,84.4c0.3-1.5,0.4-3,0.5-4.5l-5.5-4.4c0.2,3.4-1.1,6.8-3.7,9.1
								c0,0,7.3,3.6,11.6,2.3C63.2,85.8,62.2,85,61.1,84.4"/>
							<path id="Path_2788" style="fill:#F6B07E;" d="M62.9,79.8c0,0-7,1.2-7.7-3.2s-2-7.2,2.4-8.1s5.6,0.6,6.2,2
								C64.4,71.9,64.7,79.4,62.9,79.8"/>
							<path id="Path_2789" style="fill:#1A355E;" d="M55.3,76.9c0.2-3.6,3-6.5,6.5-6.8c4.4-0.6,1.7-4.3,1.2-4.9
								c0,0-3.3,0.6-6.8,1.4C49.1,68.1,54.5,76,55.3,76.9"/>
							<path id="Path_2790" style="fill:#81B379;" d="M77,120.7c0.6-0.7,1.2-1.4,1.6-2.2c0,0-8-9.9-8.6-10.9S64.5,90,64.5,90
								l-12.2-2.5c0,0,10.2,21.1,11.9,23.7c2.8,4.2,11.2,10.6,11.2,10.6C75.9,121.5,76.5,121.1,77,120.7"/>
							<path id="Path_2791" style="fill:#A7D19F;" d="M69.9,126.2c-0.1,0.1-0.3,0.2-0.4,0.2c-1.6,0-6.2,0.9-10.2,0.5
								c-3.3-0.4-6.4-1.3-9.4-2.7c-0.4-0.2-1.4-0.7-1.4-1.2c0-0.5,0.1-1.3,0.1-2.2c0.4-5.1,0.5-10.2,0.2-15.3
								c-0.1-1.2-0.1-2.4-0.1-3.6c0-8.8,1.7-16.5,5.2-19.1c0.3-0.2,2.2,0.7,3.8,1.6c1.3,0.7,2.7,0.8,4.1,0.4l1.9,1.4
								c2.2,1.9,3.8,4.5,4.6,7.3c0.8,4.5,1.3,9,1.4,13.6c0.1,2.5,0.2,5,0.2,7.3v0.1c0,0.2,0,0.5,0,0.7
								C70.1,121.3,70,126.1,69.9,126.2"/>
							<path id="Path_2792" style="fill:#81B379;" d="M48.7,120.8c0.4-5.1,0.5-10.2,0.2-15.3c-0.1-1.2-0.1-2.4-0.1-3.6
								c1.5-3.5,2.6-6.1,2.6-6.1h3.7C55.1,95.8,57.8,114.1,48.7,120.8"/>
							<path id="Path_2793" style="fill:#F6B07E;" d="M41.5,121.9l-0.7,1.2c0.7,1.4,0.1,3-1.2,3.7c-0.2,0.1-0.4,0.2-0.6,0.2
								c0,0-1.4,0.3-1.5-0.6s0.1-0.6-0.1-1.9c-0.3-1.2,0.2-2.4,1.3-2.9l0.8-0.8L41.5,121.9z"/>
							<path id="Path_2794" style="fill:#A7D19F;" d="M39.7,122.2c0.9,0.2,1.8,0.2,2.7,0.1c0,0,3.9-12.1,4.4-13.2S58.5,95,58.5,95
								l-4.6-11.6c0,0-12,20.1-13.3,22.9c-2,4.7-2.7,15.1-2.7,15.1C38.4,121.8,39,122.1,39.7,122.2"/>
							<path id="Path_2795" style="fill:#EDE5F2;" d="M180.2,117h-74.6l25.5-103.2h74.6L180.2,117z"/>
							<path id="Path_2796" style="fill:#C2D7F0;" d="M169,110.6H94.4L119.9,7.4h74.6L169,110.6z"/>
							<path id="Path_2797" style="fill:#EDE5F2;" d="M156.9,103.2H82.3L107.8,0h74.6L156.9,103.2z"/>
							<path id="Path_2798" style="fill:#6F98D0;" d="M193,13.8L169.4,110l-62,0.6l63.9,1.4L193,13.8z"/>
							<path id="Path_2799" style="fill:#6F98D0;" d="M180.6,7.4l-22.4,95.2l-62,0.6l63.1,1.6L180.6,7.4z"/>
							<path id="Path_2800" style="fill:#E8F2FB;" d="M125.9,35.8H105l6.5-26.2h20.9L125.9,35.8z"/>
							<g id="Group_879">
								<g id="Group_878">
									<g>
										<defs>
											<rect id="SVGID_00000167385986448072056390000006140304857591489193_" x="92.9" y="9.6" width="81.6" height="57.7"/>
										</defs>
										<clipPath id="SVGID_00000090998846242580773280000012820893922805824661_">
											<use xlink:href="#SVGID_00000167385986448072056390000006140304857591489193_"  style="overflow:visible;"/>
										</clipPath>
										<g id="Group_877" style="clip-path:url(#SVGID_00000090998846242580773280000012820893922805824661_);">
											<path id="Path_2801" style="fill:#EDE5F2;" d="M173.5,13.2h-37.4l0.9-3.6h37.4L173.5,13.2z"/>
											<path id="Path_2802" style="fill:#EDE5F2;" d="M171.8,20.6h-37.4l0.9-3.6h37.4L171.8,20.6z"/>
											<path id="Path_2803" style="fill:#EDE5F2;" d="M170.1,28h-37.4l0.9-3.6H171L170.1,28z"/>
											<path id="Path_2804" style="fill:#EDE5F2;" d="M168,35.5h-37.4l0.9-3.6h37.4L168,35.5z"/>
											<path id="Path_2805" style="fill:#EDE5F2;" d="M168,43.2H99.5l0.9-3.6h68.4L168,43.2z"/>
											<path id="Path_2806" style="fill:#EDE5F2;" d="M166.2,51H97.7l0.9-3.6h68.5L166.2,51z"/>
											<path id="Path_2807" style="fill:#EDE5F2;" d="M163.6,59.7H95.2l0.9-3.6h68.5L163.6,59.7z"/>
											<path id="Path_2808" style="fill:#EDE5F2;" d="M161.3,67.2H92.9l0.9-3.6h68.5L161.3,67.2z"/>
										</g>
									</g>
								</g>
							</g>
						</g>
					</g>
				</g>
				<g id="Group_883">
					<g>
						<defs>
							<polygon id="SVGID_00000013168973095332080770000007802619437698021521_" points="111.5,9.6 105,35.8 125.9,35.8 132.4,9.5 
															"/>
						</defs>
						<clipPath id="SVGID_00000006674827987646356470000012566520525819881901_">
							<use xlink:href="#SVGID_00000013168973095332080770000007802619437698021521_"  style="overflow:visible;"/>
						</clipPath>
						<g id="Group_882" style="clip-path:url(#SVGID_00000006674827987646356470000012566520525819881901_);">
							<path id="Path_2809" style="fill:#E49863;" d="M127.7,38.4c0,0,1.2-0.6,1.7-0.4s1.8,0.7,1.7,1.3s-2.1,1.2-3.5,0.5
								S127.7,38.4,127.7,38.4"/>
							<path id="Path_2810" style="fill:#A7D19F;" d="M128,39.9c0,0.1-0.1,0.1-0.1,0.2c-0.4,0.7-7.2,0.7-8,0.1
								c-0.3-0.2-0.5-3.7-0.5-7.4c0-4.6,0.1-9.6,0.1-9.6s2.7,1.2,2.8,2.7s-1,10.6-0.2,11.2s4.4,0.6,5.5,1
								C128,38.7,128.1,39.3,128,39.9"/>
							<path id="Path_2811" style="fill:#1A355E;" d="M121.2,12.8c-0.5-0.4-1.1-0.6-1.7-0.6c0.1-0.1,0.3-0.1,0.4-0.1
								c-0.3,0-0.7,0-1,0.1c0,0-2.4-1.6-4,1.6c0,0,0.2-0.2,0.5-0.5c-0.9,1.8-0.6,4.8,1.5,5.6C118.2,19.4,125.9,17.7,121.2,12.8"/>
							<path id="Path_2812" style="fill:#E49863;" d="M119.7,24c-0.8,0.3-1.6,0.3-2.4,0.1c-0.7-0.4-1.1-1-1.4-1.7
								c0.4,0,0.6-0.6,0.9-3l0.2,0.1l3,1c0,0-0.2,1-0.3,1.9C119.6,23.1,119.6,23.9,119.7,24"/>
							<path id="Path_2813" style="fill:#D58C5C;" d="M120,20.5c0,0-0.2,1-0.3,1.9c-1.7-0.3-2.4-2-2.7-2.9L120,20.5z"/>
							<path id="Path_2814" style="fill:#1A355E;" d="M116.8,19.1c-0.4-0.9-0.7-1.8-0.8-2.8c0-0.9,0.8-4.1,4-3.2
								c0.6,0.2,1.2,0.5,1.7,0.9c0.6,0.6,1.5,1.7,0,4.4l-0.4,0.9L116.8,19.1z"/>
							<path id="Path_2815" style="fill:#E49863;" d="M120.5,21.4c0,0-4.1-0.5-3.8-3s0-4.3,2.6-4.1s3,1.2,3.1,2.1
								S121.6,21.5,120.5,21.4"/>
							<path id="Path_2816" style="fill:#81B379;" d="M120.8,27.2c0-0.3,0.6-0.4,0.7-0.2c0.2,0.5,0.2,1.1,0.2,1.6
								c0,1.1-0.1,2.2-0.4,3.3L120.8,27.2z"/>
							<path id="Path_2817" style="fill:#1A355E;" d="M122.6,15c-0.5-0.8-1-0.7-1.3-0.5c-0.7-1.4-3.8,0.1-3.8,0.1
								c-0.3,1.1-1,2-2,2.7c0.7,0.4,1.6,0.5,2.5,0.3c1.4-0.2,2.6-2,3.1-2.7c0.4,0.4,0.6,0.8,0.8,1.3c0.1,0.7,0,2,0.4,2
								C122.3,18.1,123.4,16.2,122.6,15"/>
							<path id="Path_2818" style="fill:#FFFFFF;" d="M119.8,19.8c0,0,0,0.3,0.8,0.4c0,0,0.7,0,0.7-0.3
								C120.9,19.6,120.3,19.6,119.8,19.8"/>
							<path id="Path_2819" style="fill:#81B379;" d="M128,39.9c0,0.1-0.1,0.1-0.1,0.2c-0.4,0.7-7.2,0.7-8,0.1
								c-0.3-0.2-0.5-4.5,0.5-8.2c0.2,2.2-0.2,6.6,1,7C122.8,39.4,126.3,39.4,128,39.9"/>
							<path id="Path_2820" style="fill:#A7D19F;" d="M121.5,32.2c-2.7,7.8-1.5,9.2-2.4,9.9c0,0-0.8,0.2-0.8,0.2
								c-1,0.7-0.9-0.3-3.9,0.6c-1.6,0.5-3.2,0.9-4.8,1.2c-0.5,0.1-1.1,0.1-1.6,0.1c-0.9,0-1.6-0.3-1.7-0.9
								c-0.4-1.9,3.3-6.2,2.9-9.5c0,0,0-0.1,0-0.1c0-0.3,0-0.6,0.1-1c0.7-2.3,1.9-4.4,3.3-6.3c0.9-1.5,2.1-2.8,3.3-4
								c3.2,2.5,3.7,0.8,3.7,0.8S122.5,29.5,121.5,32.2"/>
							<path id="Path_2821" style="fill:#81B379;" d="M118.6,42.2L118.6,42.2c-1,0.7-1.2-0.2-4.2,0.7c-1.6,0.5-3.2,0.9-4.8,1.2
								c-0.5,0-1.1,0.1-1.6,0.1c-0.9,0-1.6-0.3-1.7-0.9c-0.4-1.9,3.3-6.2,2.9-9.5c0,0,0-0.1,0-0.1c0-0.3,0-0.7,0.1-1
								c0.3-1.3,1.5-2.7,3-4.7c0.7,0.9,6.5,0.7,4.1,8.5C115.6,38.9,118.5,40.2,118.6,42.2"/>
							<path id="Path_2822" style="fill:#E49863;" d="M118.3,42.6c0.6-0.1,1.3,0,1.8,0.2c0.5,0.3,1.6,1.1,1.5,1.4s-1.5,0.3-2.1-0.1
								s-1,0-1.7-0.4S118.3,42.5,118.3,42.6"/>
							<path id="Path_2823" style="fill:#A7D19F;" d="M115.9,22.4c0,0-4.7-0.5-5.8,1.6s-1.9,10.1-1,12.6s7.4,6.6,8.2,6.9
								s1.4-0.9,1.4-1s-6.5-6.9-6.4-7.5S115.9,22.4,115.9,22.4"/>
						</g>
					</g>
				</g>
				<g id="Group_906">
					<g>
						<defs>
							<rect id="SVGID_00000078732503878075345180000002391865753559073713_" x="0" y="0" width="362.7" height="194.2"/>
						</defs>
						<clipPath id="SVGID_00000035529421344414303600000008349056268074866080_">
							<use xlink:href="#SVGID_00000078732503878075345180000002391865753559073713_"  style="overflow:visible;"/>
						</clipPath>
						<g id="Group_905" style="clip-path:url(#SVGID_00000035529421344414303600000008349056268074866080_);">
							<path id="Path_2825" style="fill:#E49863;" d="M271.6,178.5l-1.7,7l-2.5,0l-0.1-7L271.6,178.5z"/>
							<path id="Path_2826" style="fill:#E49863;" d="M250.6,178.8l-4.7,6.7l-1.8-2.4l2.9-5.3L250.6,178.8z"/>
							<path id="Path_2827" style="fill:#1A355E;" d="M262.9,86.4c0.8-0.4,1.7-0.6,2.6-0.5c-0.2-0.1-0.3-0.2-0.5-0.3
								c0.5,0,1,0.2,1.4,0.4c6.2-2.4,7.2,6.8,7.1,8.9s2.1,2.8,5.3,4.5c6.2,3.2,6.7,7.5,6.7,7.5c0,0-0.1,0.1-0.1,0.1
								c-0.3-0.5-0.9-1.5-1.5-1.6c0.3,0.7,0.6,1.4,0.9,2.1c-1.8,1.4-5.2,4.5-7.6,6.6c0-0.5,0-0.9-0.2-1.3l-0.3,1.8
								c-1.3,1.2-2.1,2-2.1,2c0.2-1.7-7.8-10.8-11.9-13.5c-0.7-1.3-1.2-2.8-1.4-4.3c0,1.3,0.3,2.7,0.8,3.9
								C258.6,99.3,260.6,87.7,262.9,86.4"/>
							<path id="Path_2828" style="fill:#E49863;" d="M262.9,103.1c1.1,0.6,2.3,0.8,3.5,0.6c1-0.4,1.9-1.2,2.3-2.2
								c-0.6-0.1-0.8-1-0.8-4.5l-0.3,0.1l-4.6,0.9c0,0,0.1,1.4,0.1,2.8C263.2,101.9,263.2,102.9,262.9,103.1"/>
							<path id="Path_2829" style="fill:#D58C5C;" d="M263.1,97.9c0,0,0.1,1.4,0.1,2.8c2.6-0.1,3.9-2.4,4.5-3.7L263.1,97.9z"/>
							<path id="Path_2830" style="fill:#1A355E;" d="M268.2,96.5c0.8-1.2,1.3-2.6,1.7-4c0.2-1.3-0.4-6.1-5.3-5.4
								c-1,0.1-1.9,0.5-2.7,1c-1.1,0.7-2.6,2.2-0.9,6.5l0.4,1.4L268.2,96.5z"/>
							<path id="Path_2831" style="fill:#AE00A9;" d="M244.8,181.3l2.4,0.1l2.6,0.1c4.3-5.2,7.5-11.2,9.5-17.7
								c0.1-0.3,0.2-0.5,0.3-0.8c1.9-5.5,5.8-12.3,7.8-18.5c0.3-1,0.6-1.9,0.9-2.8c0.1-0.3,0.2-0.6,0.2-0.8c1.2-4,2-8.2,2.3-12.3
								l-14.8,0.1C254.1,146.5,250.3,164.1,244.8,181.3"/>
							<path id="Path_2832" style="fill:#E7F0FA;" d="M258.2,120.1c0,7-1,10-1,10c4.4,1.9,9.3,2.2,13.8,0.8c0.1,0,5.6-1.1,5.6-1.1
								c-0.1-0.3-1.7-5.1-1.8-5.4c-1-1.9-1.6-4-2-6.1c-0.3-1.9-0.4-3.9-0.2-5.9c0.3-3.1,0.9-6.2,1.8-9.2c-2.1-0.6-4.1-1.3-6.1-2.1
								c-0.9,0.8-2.1,1.2-3.3,1.2c-1.5,0-2-0.7-1.9-1.4c-1.6,0.9-2.9,1.7-2.9,1.7c-1.4,2.4-4.1,4.6-4.3,8.3
								C256,111.9,258.2,120,258.2,120.1"/>
							<path id="Path_2833" style="fill:#6F98D0;" d="M249.6,109.7c2.2-2.5,7.8-8,13.6-8.7l-5,9.7c-0.2,1.1-0.9,2-1.8,2.6
								c-2.6,1.6-5.3,2.7-8.2,3.4c-2.6-1.2-5.1-2.8-7.4-4.5c-1.3-1-3.7-4.7-3.7-4.7l0.6-2.1c0,0,4,2.2,5.4,2.9
								c0.8,0.4,2.7,1.2,4,1.9C248,110.6,249,110.4,249.6,109.7"/>
							<path id="Path_2834" style="fill:#E49863;" d="M262.2,99.2c0,0,6.1,0.1,6.1-3.7s0.8-6.3-3.1-6.6s-4.6,1.2-5,2.5
								S260.7,99.1,262.2,99.2"/>
							<path id="Path_2835" style="fill:#1A355E;" d="M262.5,88.9c0,0,1.7,4.4,4.2,5.1s3.7,0,3.7,0c-1.3-1.1-2.1-2.6-2.4-4.3
								C268,89.7,263.7,86.7,262.5,88.9"/>
							<path id="Path_2836" style="fill:#1A355E;" d="M262.9,89.2c-0.7,0.5-1.2,1.2-1.5,2c-0.3,1-0.4,3-1,2.9c0,0-1.3-3,0.2-4.7
								C262,87.5,262.9,89.2,262.9,89.2"/>
							<path id="Path_2837" style="fill:#E49863;" d="M237.7,105.5c-0.5-1.8-2.4-3-4.3-2.7c-0.4,0.1-1.5,0.6-0.8,1.8
								c0.5,0.9,0.8,0.4,1.6,1.6c0.6,1,1.7,1.5,2.8,1.3L237.7,105.5z"/>
							<path id="Path_2838" style="fill:#272F65;" d="M270,185.1c-0.1,1,0,1.9,0.3,2.9c0,0,0.4,1.9-1.4,1.9s-2.3-0.1-2.1-1.3
								s0.6-3.1,0.6-3.1L270,185.1z"/>
							<path id="Path_2839" style="fill:#D76714;" d="M266.6,190.6c0,0,0.1,0,0.1,0.1h3.6c0,0,0.1,0,0.1-0.1c0.1-0.9,0-1.8-0.1-2.7
								c-2.1,1.9-3.4,0-3.4,0C266.7,188.8,266.6,189.7,266.6,190.6"/>
							<path id="Path_2840" style="fill:#E49863;" d="M239.6,188.8c1.6-1.8,3.1-3.7,4.4-5.7l2.5,1.3l-5.6,5.3l-1.3-0.2L239.6,188.8z
								"/>
							<path id="Path_2841" style="fill:#272F65;" d="M237.5,190.7h4.6c0.6-0.6,1.1-1.3,1.4-2.1c0.3-0.5,0.9-0.9,1.5-1v3.1h1
								l0.9-3.3c0.6-1.1,0-2.1-0.4-3c-0.5,0-1.8,0.3-4.3,3.1c-0.6,0.8-1.6,1.2-2.6,1.2c0,0,0,0,0,0
								C238.6,189.1,237.9,189.8,237.5,190.7"/>
							<path id="Path_2842" style="fill:#6F98D0;" d="M263.2,101c0,0-3.5,8.7-3.6,10.5s-0.4,28.8-0.4,28.8s0.2,1.2-2.2,0.7
								c-1.1-0.1-2.1-0.5-3-1c0,0,2.3-16.7,1.7-22.5s4.8-15.3,4.8-15.3L263.2,101z"/>
							<g id="Group_886">
								<g id="Group_885">
									<g>
										<defs>
											<rect id="SVGID_00000087378621528501868880000014210673752702445195_" x="247.2" y="139.2" width="21.3" height="42.2"/>
										</defs>
										<clipPath id="SVGID_00000106857791859225836380000002402743681662183359_">
											<use xlink:href="#SVGID_00000087378621528501868880000014210673752702445195_"  style="overflow:visible;"/>
										</clipPath>
										<g id="Group_884" style="clip-path:url(#SVGID_00000106857791859225836380000002402743681662183359_);">
											<path id="Path_2843" style="fill:#93378B;" d="M247.2,181.3l2.6,0.1c4.3-5.2,7.5-11.2,9.5-17.7c0.1-0.3,0.2-0.5,0.3-0.8
												c1.9-5.5,5.8-12.3,7.8-18.5c0.3-1,0.6-1.9,0.9-2.8c0.1-0.3,0.2-0.6,0.2-0.8l-2.2-1.6c0,0-6.5,10.6-8.5,20.5
												C256.1,168.4,249,178.8,247.2,181.3"/>
										</g>
									</g>
								</g>
							</g>
							<path id="Path_2844" style="fill:#AE00A9;" d="M266.1,160.6c0,4.8,0.2,16,0.8,20.6h2.3c1.3,0,1.9,0,1.9,0
								c1.6-8,2.7-14.6,3.5-20.3c0.7-4.7,1.3-8.7,1.7-12.2c0.5-3.5,0.8-6.4,0.9-8.9c0-0.4,0-0.8,0-1.1c0-0.4,0-0.7,0-1.1l-12.8-1.2
								C264.9,144.9,266.2,157.8,266.1,160.6"/>
							<g id="Group_889">
								<g id="Group_888">
									<g>
										<defs>
											<rect id="SVGID_00000079465192123352272300000016675641599175105435_" x="269.3" y="139.8" width="8.1" height="41.4"/>
										</defs>
										<clipPath id="SVGID_00000134953973042213392750000016557326874746149539_">
											<use xlink:href="#SVGID_00000079465192123352272300000016675641599175105435_"  style="overflow:visible;"/>
										</clipPath>
										<g id="Group_887" style="clip-path:url(#SVGID_00000134953973042213392750000016557326874746149539_);">
											<path id="Path_2845" style="fill:#93378B;" d="M269.3,181.2c1.3,0,1.9,0,1.9,0c1.6-8,2.7-14.6,3.5-20.3
												c0.7-4.7,1.3-8.7,1.7-12.2c0.5-3.5,0.8-6.4,0.9-8.9l-4.7,2.8c0,0,3,1.1,1.8,9S270.9,180.1,269.3,181.2"/>
										</g>
									</g>
								</g>
							</g>
							<path id="Path_2846" style="fill:#6F98D0;" d="M268.7,139.8c0,0,0.9,3.2,4,2.8c2.6-0.5,5.1-1.3,7.5-2.3c0,0-1.3-4.2-3-9.7
								c-2-6.7-4.5-15.3-5.6-20.7c-0.3-1.2-0.5-2.5-0.6-3.7l-2.6-5c0,0-3.8,8.6-4.1,10.8S268.7,139.8,268.7,139.8"/>
							<path id="Path_2847" style="fill:#4B72B6;" d="M268.9,116.6c0.1,3.5,1,10.4,8.4,14c0,0,0,0,0.1,0c-2-6.7-4.5-15.3-5.6-20.7
								C270.3,111.9,268.8,114.6,268.9,116.6"/>
							
								<rect id="Rectangle_509" x="229.1" y="87.1" transform="matrix(0.7071 -0.7071 0.7071 0.7071 1.3739 190.595)" style="fill:#272F65;" width="3.3" height="13.1"/>
							<path id="Path_2848" style="fill:#272F65;" d="M285.3,147.4l-0.8,0.8c-1.6,1.6-4.2,1.6-5.8,0l-45.4-45.4
								c-1.6-1.6-1.6-4.2,0-5.8l0.8-0.8c1.6-1.6,4.2-1.6,5.8,0l0,0l45.4,45.4C286.9,143.2,286.9,145.8,285.3,147.4"/>
							<path id="Path_2849" style="fill:#272F65;" d="M171.2,34.1c-15.1,15.1-15.1,39.7,0,54.8s39.7,15.1,54.8,0
								c15.1-15.1,15.1-39.7,0-54.8C210.9,19,186.4,19,171.2,34.1L171.2,34.1 M223,85.9c-13.5,13.5-35.3,13.5-48.8,0
								s-13.5-35.3,0-48.8c13.5-13.5,35.3-13.5,48.8,0c0,0,0,0,0,0C236.5,50.6,236.5,72.4,223,85.9L223,85.9"/>
							<path id="Path_2850" style="fill:#E49863;" d="M271.8,111.7l-3.4-10.5c2.2,0.6,4.4,1.4,6.5,2.4c1.1,1.7,1.9,3.7,2.2,5.8
								c0,0,0.9,9.6-1.1,13.2c0,0-6.2,1.2-16.2-2.2V118c0,0,10.9,0.6,13.1,0.8L271.8,111.7z"/>
							<path id="Path_2851" style="fill:#6F98D0;" d="M268.4,101.2c0,0,6.3,0.4,7.8,3.8s2,14.6,0.1,18c-2.4,0.5-5,0.4-7.4-0.1
								l-0.2,0c0,0-1.5-3.7-0.2-4.4c0,0,4,0.2,3.6-1.1S268.4,101.2,268.4,101.2"/>
							<path id="Path_2852" style="fill:#E49863;" d="M260.9,118.6c-0.5-0.6-0.9-1.3-1.1-2.1c-0.1-1.2-1.1-2-2.3-2.1
								c-1.5-0.2-2.1-0.2-2.1,0.2c0.6,2,1.8,3.8,3.4,5.1C261,121.5,260.9,118.6,260.9,118.6"/>
							<g id="Group_894" style="opacity:0.4;">
								<g id="Group_893">
									<g>
										<defs>
											<rect id="SVGID_00000065069812372898207560000002044139914553404545_" x="167.7" y="30.3" width="50.6" height="50.6"/>
										</defs>
										<clipPath id="SVGID_00000070114056826421675400000003617514145055420833_">
											<use xlink:href="#SVGID_00000065069812372898207560000002044139914553404545_"  style="overflow:visible;"/>
										</clipPath>
										<g id="Group_892" style="clip-path:url(#SVGID_00000070114056826421675400000003617514145055420833_);">
											<g id="Group_891">
												<g>
													<defs>
														
															<rect id="SVGID_00000127747333064508793700000012608903805850494361_" x="167.7" y="30.3" width="50.6" height="50.6"/>
													</defs>
													<clipPath id="SVGID_00000152961586434678646990000003819732046965799079_">
														<use xlink:href="#SVGID_00000127747333064508793700000012608903805850494361_"  style="overflow:visible;"/>
													</clipPath>
													<g id="Group_890" style="clip-path:url(#SVGID_00000152961586434678646990000003819732046965799079_);">
														<path id="Path_2853" style="fill:#FFFFFF;" d="M213.9,30.3l-46.2,46.2c0.8,1.5,1.6,3,2.6,4.4l48-48
															C216.9,32,215.4,31.1,213.9,30.3"/>
													</g>
												</g>
											</g>
										</g>
									</g>
								</g>
							</g>
							<g id="Group_899" style="opacity:0.4;">
								<g id="Group_898">
									<g>
										<defs>
											<rect id="SVGID_00000150075110149344935040000010782841140360349114_" x="164.2" y="26.8" width="46.6" height="46.6"/>
										</defs>
										<clipPath id="SVGID_00000013170515341607891200000010203524008798121623_">
											<use xlink:href="#SVGID_00000150075110149344935040000010782841140360349114_"  style="overflow:visible;"/>
										</clipPath>
										<g id="Group_897" style="clip-path:url(#SVGID_00000013170515341607891200000010203524008798121623_);">
											<g id="Group_896">
												<g>
													<defs>
														
															<rect id="SVGID_00000018198410060038835620000018311285941516162204_" x="164.2" y="26.8" width="46.6" height="46.6"/>
													</defs>
													<clipPath id="SVGID_00000008120480512350386550000018138396565267144123_">
														<use xlink:href="#SVGID_00000018198410060038835620000018311285941516162204_"  style="overflow:visible;"/>
													</clipPath>
													<g id="Group_895" style="clip-path:url(#SVGID_00000008120480512350386550000018138396565267144123_);">
														<path id="Path_2854" style="fill:#FFFFFF;" d="M210.7,29c-17.9-6.7-37.7,2.4-44.4,20.3c-2.9,7.8-2.9,16.4,0,24.1
															L210.7,29z"/>
													</g>
												</g>
											</g>
										</g>
									</g>
								</g>
							</g>
							<g id="Group_904" style="opacity:0.4;">
								<g id="Group_903">
									<g>
										<defs>
											<rect id="SVGID_00000172436611819348047630000002036037713963996851_" x="183.4" y="46" width="49.8" height="49.8"/>
										</defs>
										<clipPath id="SVGID_00000077318735799749437290000001097947361855917981_">
											<use xlink:href="#SVGID_00000172436611819348047630000002036037713963996851_"  style="overflow:visible;"/>
										</clipPath>
										<g id="Group_902" style="clip-path:url(#SVGID_00000077318735799749437290000001097947361855917981_);">
											<g id="Group_901">
												<g>
													<defs>
														<rect id="SVGID_00000027591837791175083170000006844445391573400227_" x="183.4" y="46" width="49.8" height="49.8"/>
													</defs>
													<clipPath id="SVGID_00000018940526445598500110000017459615676831284881_">
														<use xlink:href="#SVGID_00000027591837791175083170000006844445391573400227_"  style="overflow:visible;"/>
													</clipPath>
													<g id="Group_900" style="clip-path:url(#SVGID_00000018940526445598500110000017459615676831284881_);">
														<path id="Path_2855" style="fill:#FFFFFF;" d="M183.4,92.2c17.1,8.4,37.8,1.4,46.2-15.7c4.8-9.6,4.8-20.9,0-30.5
															L183.4,92.2z"/>
													</g>
												</g>
											</g>
										</g>
									</g>
								</g>
							</g>
							<path id="Path_2856" style="fill:#AE00A9;" d="M359.1,194.2H3.6c-1,0-1.8-0.7-1.8-1.7c0-1,0.7-1.8,1.7-1.8l0,0
								c0,0,68.8,0,68.8,0h286.8c1,0,1.8,0.7,1.8,1.7C361,193.4,360.2,194.2,359.1,194.2l-57.4,0"/>
						</g>
					</g>
				</g>
			</g>
		</g>
	</g>
</g>
</svg>
