<svg version="1.1" id="unlimited-searches" xmlns="http://www.w3.org/2000/svg" xmlns:xlink="http://www.w3.org/1999/xlink" x="0px" y="0px"
	 viewBox="0 0 392.3 209.3" style="enable-background:new 0 0 392.3 209.3;" xml:space="preserve">
	<g>
		<defs>
			<rect id="SVGID_1_" y="0" width="392.3" height="209.3"/>
		</defs>
		<clipPath id="SVGID_00000059992921966757684780000014296949997238626179_">
			<use xlink:href="#SVGID_1_"  style="overflow:visible;"/>
		</clipPath>
		<g style="clip-path:url(#SVGID_00000059992921966757684780000014296949997238626179_);">
			<g>
				<defs>
					<rect id="SVGID_00000017505278960252719020000011901434912138138517_" y="0" width="392.3" height="209.3"/>
				</defs>
				<clipPath id="SVGID_00000181054969972739293490000014864801802777997993_">
					<use xlink:href="#SVGID_00000017505278960252719020000011901434912138138517_"  style="overflow:visible;"/>
				</clipPath>
				<g style="clip-path:url(#SVGID_00000181054969972739293490000014864801802777997993_);">
					<path style="fill:#FFF8D3;" d="M61,206.1c0,0-42.8,7.8-56.4-21.9c-17.7-38.5,18.6-67.8,46.4-62.3c60.6,11.9,46-119,143.3-92.3
						c27.4,7.5,101.3-37.1,121.9,34.4c4.9,17,22.3,18.9,47.5,29.7c49.3,21.1,26.8,112.7-8.5,113.1S61,206.1,61,206.1"/>
					<rect x="346.5" y="112.8" style="fill:#EDE5F2;" width="25.2" height="93.8"/>
					<g transform="translate(346.503 112.774)">
						<g>
							<defs>
								<rect id="SVGID_00000079451200085126488370000017908422154184872845_" x="0" y="0" width="25.2" height="93.8"/>
							</defs>
							<clipPath id="SVGID_00000101793148991665724990000006817242616350726535_">
								<use xlink:href="#SVGID_00000079451200085126488370000017908422154184872845_"  style="overflow:visible;"/>
							</clipPath>
							<g style="clip-path:url(#SVGID_00000101793148991665724990000006817242616350726535_);">
								<rect x="0" y="0" style="fill:#EDE5F2;" width="25.2" height="93.8"/>
							</g>
						</g>
					</g>
					<rect x="273.1" y="112.8" style="fill:#81B379;" width="25.2" height="93.8"/>
					<rect x="261.3" y="112.8" style="fill:#A7D19F;" width="18.5" height="93.8"/>
					<path style="fill:#81B379;" d="M275,196.7c0,2.3-1.9,4.1-4.1,4.1c-2.3,0-4.1-1.9-4.1-4.1c0-2.3,1.8-4.1,4.1-4.1
						C273.1,192.5,275,194.4,275,196.7L275,196.7"/>
					<rect x="310" y="112.8" style="fill:#6F98D0;" width="25.2" height="93.8"/>
					<rect x="298.2" y="112.8" style="fill:#B0CAEB;" width="18.5" height="93.8"/>
					<path style="fill:#6F98D0;" d="M311.9,196.7c0,2.3-1.9,4.1-4.1,4.1c-2.3,0-4.1-1.9-4.1-4.1c0-2.3,1.8-4.1,4.1-4.1l0,0
						C310.1,192.5,311.9,194.4,311.9,196.7"/>
					<rect x="303.7" y="122.3" style="fill:#FFFFFF;" width="8.3" height="49.3"/>
					<rect x="334.7" y="112.8" style="fill:#EDE5F2;" width="18.5" height="93.8"/>
					<g transform="translate(340.18 192.538)">
						<g>
							<defs>
								<rect id="SVGID_00000080891635716785123130000013630159538975172764_" x="0" y="0" width="8.3" height="8.3"/>
							</defs>
							<clipPath id="SVGID_00000152976289120317180030000014341646208638327442_">
								<use xlink:href="#SVGID_00000080891635716785123130000013630159538975172764_"  style="overflow:visible;"/>
							</clipPath>
							<g style="clip-path:url(#SVGID_00000152976289120317180030000014341646208638327442_);">
								<path style="fill:#EDE5F2;" d="M8.3,4.1c0,2.3-1.8,4.1-4.1,4.1C1.9,8.3,0,6.4,0,4.1C0,1.8,1.8,0,4.1,0l0,0
									C6.4,0,8.3,1.8,8.3,4.1"/>
							</g>
						</g>
					</g>
					<rect x="340.2" y="122.3" style="fill:#FFFFFF;" width="8.3" height="49.3"/>
					<rect x="266.4" y="123" style="fill:#FFFFFF;" width="8.3" height="49.3"/>
					<path style="fill:#4B72B6;" d="M212.6,94.6l8.9,105.6c0,0,0.9,6.4-3.8,6.4c-7.8,0-39,0-39,0s5.9-1.3,5.8-4.3
						c-0.1-3.5-10.4-108.6-10.4-108.6L212.6,94.6z"/>
					<path style="fill:#AACAEC;" d="M176.2,204.7c1.5,0,31.3,0.1,38.9,0c3.3,0,3.9-3,3.9-4.8c0-0.5,0-1.1-0.1-1.6l-0.2-2.7l-0.6-7
						l-0.5-6.2l-0.7-7.9l-0.6-6.7l-6.3-75l-38.5-1c0,0,4.3,44,7.4,76c0.3,3.6,0.7,7,1,10.2c0.1,1,0.2,2,0.3,3c0.3,3,0.5,5.8,0.8,8.3
						c0.1,1.3,0.2,2.5,0.3,3.6c0.4,4.3,0.6,7.1,0.6,7.6c0,0.3,0,0.6-0.1,0.9C181.2,204.5,176.8,204.6,176.2,204.7"/>
					<path style="fill:#AACAEC;" d="M121.4,37.1H306L284.4,124l-3,11.9l-10.1,40.5H84.2L121.4,37.1z"/>
					<g transform="translate(191.588 149.005)">
						<g>
							<defs>
								<rect id="SVGID_00000153690673747238439000000011828087054576088709_" x="0" y="0" width="86.6" height="27.4"/>
							</defs>
							<clipPath id="SVGID_00000045605052126645556220000015545042399361313174_">
								<use xlink:href="#SVGID_00000153690673747238439000000011828087054576088709_"  style="overflow:visible;"/>
							</clipPath>
							<g style="clip-path:url(#SVGID_00000045605052126645556220000015545042399361313174_);">
								<path style="fill:#AACAEC;" d="M0,0h86.6l-5.1,27.4L0,0z"/>
								<g>
									<defs>
										<polygon id="SVGID_00000125565417420135851280000006384290668041620137_" points="0,0 86.6,0 81.5,27.4 									"/>
									</defs>
									<clipPath id="SVGID_00000163036457743923594000000017523198435600838805_">
										<use xlink:href="#SVGID_00000125565417420135851280000006384290668041620137_"  style="overflow:visible;"/>
									</clipPath>
									<g style="clip-path:url(#SVGID_00000163036457743923594000000017523198435600838805_);">
										<path style="fill:#AACAEC;" d="M0,0l79.8,27.4L86.6,0L0,0z"/>
									</g>
								</g>
							</g>
						</g>
					</g>
					<path style="fill:#4B72B6;" d="M306,37.1l3,1l-33.7,141.3l-4-3L306,37.1z"/>
					<path style="fill:#4B72B6;" d="M275.3,179.4h-186l-5.1-3h187.1L275.3,179.4z"/>
					<rect x="169.8" y="204.7" style="fill:#E8F2FB;" width="40.3" height="1.9"/>
					<path style="fill:#272F65;" d="M180,179.4l0.2,1.5l37.9,7.7l-0.5-6.2l-0.2-2.9L180,179.4z"/>
					<path style="fill:#AACAEC;" d="M121.4,37.1H306L278.2,149l-186.8,0L121.4,37.1z"/>
					<g transform="translate(172.707 158.213)">
						<g>
							<defs>
								<rect id="SVGID_00000120532873184354765750000018294761090559754942_" x="0" y="0" width="10.2" height="9.9"/>
							</defs>
							<clipPath id="SVGID_00000127024396881261223560000006736716546234036153_">
								<use xlink:href="#SVGID_00000120532873184354765750000018294761090559754942_"  style="overflow:visible;"/>
							</clipPath>
							<g style="clip-path:url(#SVGID_00000127024396881261223560000006736716546234036153_);">
								<path style="fill:#B0CAEB;" d="M0.1,5c0.6-2.8,3.1-4.9,5.9-5c2.2-0.1,4,1.6,4.1,3.8c0,0.4,0,0.8-0.1,1.1
									C9.4,7.8,7,9.8,4.1,9.9C1.9,10,0.1,8.3,0,6.1C0,5.7,0,5.3,0.1,5"/>
							</g>
						</g>
					</g>
					<path style="fill:#E8F2FB;" d="M100.1,144.2H273l19.6-78l1.5-6l1.3-5.1l3-12H128l-3.3,12l-1.4,5.1l-1.6,6L100.1,144.2z"/>
					<path style="fill:#A7D19F;" d="M128,43.1h170.4l-3,12H124.7L128,43.1z"/>
					<path style="fill:#E8F2FB;" d="M290.2,47.1c0.6,0,1.2,0.4,1.2,1.1c0,0.1,0,0.3-0.1,0.4c-0.2,0.9-1,1.5-1.9,1.5
						c-0.6,0-1.2-0.5-1.2-1.1c0-0.1,0-0.3,0.1-0.4C288.6,47.7,289.3,47.1,290.2,47.1"/>
					<path style="fill:#E8F2FB;" d="M285.2,47.1c0.6,0,1.2,0.5,1.2,1.1c0,0.1,0,0.3-0.1,0.4c-0.2,0.9-1,1.5-1.9,1.5
						c-0.6,0-1.2-0.5-1.2-1.1c0-0.1,0-0.3,0.1-0.4C283.6,47.7,284.3,47.1,285.2,47.1"/>
					<path style="fill:#E8F2FB;" d="M278,48.5c0.2-0.9,1-1.5,1.9-1.5c0.6,0,1.2,0.5,1.2,1.1c0,0.1,0,0.3-0.1,0.4
						c-0.2,0.9-1,1.5-1.9,1.5c-0.6,0-1.2-0.5-1.2-1.1C277.9,48.8,278,48.7,278,48.5"/>
					<path style="fill:#233862;" d="M37.7,195.9c0,0-2.2,2-1.8,3.5s2.4,2.4,2.7,4.2s1.3,2.7,2.3,2.7h4.6c0,0,0.7-1.2-1-1.6
						s-2.4-2.5-2.3-4.4c0-1.5,0-3-0.2-4.5l-3.7-0.9L37.7,195.9z"/>
					<path style="fill:#233862;" d="M77.6,206.3H65.4c-0.1,0-0.2,0-0.2-0.1c-0.8-0.4-0.6-3.5-0.5-4.5c0-0.2,0-0.3,0-0.3
						s4.3-3.4,4.9-0.8c0,0.1,0,0.2,0.1,0.2c0.7,2.5,4.1,3.6,6,3.9C76.5,204.8,77.3,205.4,77.6,206.3"/>
					<path style="fill:#6F98D0;" d="M75.1,135.8c0,0-0.7,8.1-1.4,17.9c-1,13.3-2.3,29.6-2.4,32.7c-0.2,5.4-1.1,14-1.1,14
						s-2,2-6.1,1.2c-2.3-8.3-3.9-16.7-4.7-25.2c0-0.2,0-0.4,0-0.6c-1-13.2-2.5-41-2.5-41L75.1,135.8z"/>
					<path style="fill:#4B72B6;" d="M75.1,135.8c0,0-0.7,8.1-1.4,17.9l-14.3,22.6c0-0.2,0-0.4,0-0.6c-1-13.2-2.5-41-2.5-41
						L75.1,135.8z"/>
					<path style="fill:#6F98D0;" d="M72.1,136.8c0,0-11.8,29.5-19.5,43.3s-10.1,17.7-10.1,17.7s-4.4-1.8-4.8-3c0,0,3-26.7,8.1-33.3
						c2.9-3.7,6.4-14.7,6.5-18.6s1.1-11.5,1.1-11.5L72.1,136.8z"/>
					<path style="fill:#F6B07E;" d="M84,128.7l0.7,1.3c1.6,0.2,2.8,1.7,2.6,3.3c0,0.2-0.1,0.5-0.2,0.7c0,0-0.5,1.5-1.4,1
						s-0.5-0.4-1.8-1.1s-2.1-1.8-1.8-2.9l-0.2-1.2L84,128.7z"/>
					<path style="fill:#F6B07E;" d="M66.1,91.3c0.3-1.6,0.5-3.3,0.5-4.9l-6-4.8c0.3,3.7-1.2,7.3-4,9.8c0,0,7.9,3.9,12.5,2.5
						C68.3,92.8,67.3,92,66.1,91.3"/>
					<path style="fill:#F6B07E;" d="M68.1,86.3c0,0-7.6,1.3-8.3-3.5S57.6,75,62.4,74s6,0.7,6.7,2.2S70,85.8,68.1,86.3"/>
					<path style="fill:#1A355E;" d="M59.8,83.1c0.2-3.9,3.2-7,7.1-7.4c4.7-0.7,1.9-4.7,1.3-5.3c0,0-3.6,0.7-7.3,1.5
						C53.1,73.7,59,82.2,59.8,83.1"/>
					<path style="fill:#81B379;" d="M83.2,130.5c0.7-0.7,1.3-1.5,1.8-2.4c0,0-8.6-10.7-9.3-11.8s-5.9-18.9-5.9-18.9l-13.2-2.7
						c0,0,11.1,22.8,12.9,25.6c3,4.6,12.1,11.4,12.1,11.4C82.1,131.4,82.7,131,83.2,130.5"/>
					<path style="fill:#A7D19F;" d="M75.6,136.5c-0.1,0.1-0.3,0.2-0.5,0.2c-1.7,0-6.8,0.9-11,0.5c-3.5-0.4-7-1.4-10.2-2.9
						c-0.5-0.2-1.5-0.8-1.5-1.3c0-0.6,0.1-1.4,0.1-2.4c0.4-5.5,0.5-11,0.3-16.6c-0.1-1.3-0.1-2.6-0.1-3.9c0-9.5,1.8-17.8,5.6-20.7
						c0.3-0.2,2.3,0.8,4.2,1.7c1.4,0.7,3,0.9,4.4,0.5l2.1,1.5c2.4,2.1,4.1,4.9,5,7.9c0.8,3.1,1.2,8.8,1.5,14.7
						c0.1,2.7,0.2,5.4,0.2,7.9v0.1c0,0.3,0,0.5,0,0.8C75.8,131.2,75.8,136.4,75.6,136.5"/>
					<path style="fill:#81B379;" d="M52.6,130.6c0.4-5.5,0.5-11,0.3-16.6c-0.1-1.3-0.1-2.6-0.1-3.9c1.6-3.8,2.9-6.6,2.9-6.6h4
						C59.6,103.6,62.5,123.5,52.6,130.6"/>
					<path style="fill:#F6B07E;" d="M44.9,131.9l-0.8,1.3c0.7,1.5,0.1,3.3-1.3,4c-0.2,0.1-0.4,0.2-0.7,0.2c0,0-1.5,0.4-1.6-0.7
						s0.1-0.6-0.1-2.1s0.4-2.8,1.4-3.1l0.9-0.8L44.9,131.9z"/>
					<path style="fill:#A7D19F;" d="M42.9,132.2c1,0.2,2,0.2,3,0.2c0,0,4.2-13.1,4.8-14.3s12.6-15.3,12.6-15.3l-5-12.5
						c0,0-13,21.7-14.3,24.8c-2.2,5-2.9,16.4-2.9,16.4C41.6,131.8,42.2,132.1,42.9,132.2"/>
					<path style="fill:#EDE5F2;" d="M194.9,126.6h-80.7l27.6-111.6h80.7L194.9,126.6z"/>
					<path style="fill:#C2D7F0;" d="M182.8,119.6h-80.7L129.7,8h80.7L182.8,119.6z"/>
					<path style="fill:#EDE5F2;" d="M169.8,111.6H89L116.6,0h80.7L169.8,111.6z"/>
					<path style="fill:#6F98D0;" d="M208.8,14.9l-25.5,104l-67.1,0.7l69.1,1.5L208.8,14.9z"/>
					<path style="fill:#6F98D0;" d="M195.4,8l-24.3,103l-67.1,0.7l68.2,1.7L195.4,8z"/>
					<path style="fill:#E8F2FB;" d="M136.1,38.7h-22.6l7.1-28.4h22.6L136.1,38.7z"/>
					<g transform="translate(100.455 10.331)">
						<g>
							<defs>
								<rect id="SVGID_00000046305829966743592950000014832019469621632445_" x="0" y="0" width="88.2" height="62.4"/>
							</defs>
							<clipPath id="SVGID_00000005989152251164954290000007812769429269643929_">
								<use xlink:href="#SVGID_00000046305829966743592950000014832019469621632445_"  style="overflow:visible;"/>
							</clipPath>
							<g style="clip-path:url(#SVGID_00000005989152251164954290000007812769429269643929_);">
								<path style="fill:#EDE5F2;" d="M87.2,3.9H46.8l1-3.9h40.4L87.2,3.9z"/>
								<path style="fill:#EDE5F2;" d="M85.4,12H44.9l1-3.9h40.4L85.4,12z"/>
								<path style="fill:#EDE5F2;" d="M83.5,20H43l1-3.9h40.5L83.5,20z"/>
								<path style="fill:#EDE5F2;" d="M81.2,28H40.8l1-3.9h40.4L81.2,28z"/>
								<path style="fill:#EDE5F2;" d="M81.2,36.4h-74l1-3.9h74L81.2,36.4z"/>
								<path style="fill:#EDE5F2;" d="M79.3,44.8h-74l1-3.9h74L79.3,44.8z"/>
								<path style="fill:#EDE5F2;" d="M76.5,54.2h-74l1-3.9h74L76.5,54.2z"/>
								<path style="fill:#EDE5F2;" d="M74,62.4H0l1-3.9h74L74,62.4z"/>
							</g>
						</g>
					</g>
				</g>
			</g>
			<g transform="translate(113.559 10.328)">
				<g>
					<defs>
						<polygon id="SVGID_00000128464650474171850450000009072434586845111175_" points="7.1,0 0,28.4 22.6,28.4 29.6,0 					"/>
					</defs>
					<clipPath id="SVGID_00000114754629472218491630000016303699666026295992_">
						<use xlink:href="#SVGID_00000128464650474171850450000009072434586845111175_"  style="overflow:visible;"/>
					</clipPath>
					<g style="clip-path:url(#SVGID_00000114754629472218491630000016303699666026295992_);">
						<path style="fill:#E49863;" d="M24.5,31.2c0,0,1.3-0.6,1.8-0.4s1.9,0.8,1.9,1.4s-2.3,1.3-3.8,0.5S24.5,31.2,24.5,31.2"/>
						<path style="fill:#A7D19F;" d="M24.9,32.8c0,0.1-0.1,0.1-0.1,0.2c-0.4,0.7-7.8,0.8-8.6,0.2c-0.4-0.3-0.5-4-0.5-8
							c0-5,0.1-10.4,0.1-10.4s2.9,1.3,3,3s-1.1,11.5-0.2,12.1s4.7,0.7,6,1.1C24.9,31.5,25,32.2,24.9,32.8"/>
						<path style="fill:#1A355E;" d="M17.5,3.5c-0.5-0.4-1.2-0.6-1.9-0.6c0.1-0.1,0.3-0.1,0.4-0.1c-0.4,0-0.7,0-1.1,0.1
							c0,0-2.6-1.8-4.3,1.7c0,0,0.3-0.2,0.6-0.5c-1,2-0.7,5.2,1.6,6.1C14.3,10.7,22.7,8.8,17.5,3.5"/>
						<path style="fill:#E49863;" d="M16,15.6c-0.8,0.3-1.8,0.4-2.6,0.1c-0.7-0.4-1.2-1.1-1.5-1.9c0.5,0,0.7-0.6,1-3.2l0.2,0.1
							l3.3,1.1c0,0-0.2,1-0.3,2C15.8,14.7,15.8,15.5,16,15.6"/>
						<path style="fill:#D58C5C;" d="M16.3,11.8c0,0-0.2,1-0.3,2c-1.9-0.3-2.6-2.1-2.9-3.1L16.3,11.8z"/>
						<path style="fill:#1A355E;" d="M12.7,10.3c-0.4-1-0.7-2-0.8-3c0-1,0.9-4.4,4.3-3.4c0.7,0.2,1.3,0.5,1.9,1
							c0.7,0.6,1.7,1.9,0,4.8l-0.5,1L12.7,10.3z"/>
						<path style="fill:#E49863;" d="M16.8,12.8c0,0-4.4-0.5-4.1-3.3s0-4.7,2.9-4.5s3.3,1.3,3.4,2.3S17.9,12.9,16.8,12.8"/>
						<path style="fill:#81B379;" d="M17.1,19.1c0-0.3,0.7-0.5,0.8-0.2c0.2,0.6,0.3,1.2,0.3,1.8c0,1.2-0.1,2.4-0.5,3.6L17.1,19.1z"/>
						<path style="fill:#1A355E;" d="M19,5.8c-0.6-0.9-1.1-0.8-1.4-0.6c-0.8-1.6-4.1,0.1-4.1,0.1c-0.4,1.2-1.1,2.2-2.1,2.9
							c0.8,0.5,1.8,0.6,2.7,0.4c1.5-0.2,2.8-2.1,3.3-3c0.4,0.4,0.7,0.9,0.8,1.4c0.1,0.7,0,2.2,0.5,2.2C18.7,9.3,19.9,7.2,19,5.8"/>
						<path style="fill:#FFFFFF;" d="M16,11.1c0,0,0,0.4,0.9,0.4c0,0,0.7,0.1,0.8-0.3C17.2,10.9,16.6,10.9,16,11.1"/>
						<path style="fill:#81B379;" d="M24.9,32.8c0,0.1-0.1,0.1-0.1,0.2c-0.4,0.7-7.8,0.8-8.6,0.2c-0.4-0.3-0.5-4.9,0.5-8.9
							c0.2,2.4-0.2,7.2,1,7.5C19.2,32.3,23.1,32.3,24.9,32.8"/>
						<path style="fill:#A7D19F;" d="M17.9,24.5c-2.9,8.4-1.6,9.9-2.6,10.7c0,0-0.9,0.3-0.9,0.3c-1.1,0.7-1-0.3-4.2,0.6
							c-1.7,0.5-3.4,1-5.2,1.3c-0.6,0.1-1.2,0.2-1.8,0.2c-1,0-1.7-0.3-1.9-1c-0.4-2,3.5-6.7,3.2-10.3c0,0,0-0.1,0-0.1
							c0-0.4,0-0.7,0.1-1c0.4-1.9,2-4.6,3.6-6.8c1-1.6,2.2-3.1,3.6-4.4c3.4,2.7,4,0.9,4,0.9S18.9,21.6,17.9,24.5"/>
						<path style="fill:#81B379;" d="M14.7,35.3L14.7,35.3c-1.1,0.7-1.3-0.2-4.5,0.7c-1.7,0.5-3.4,1-5.2,1.3c-0.6,0-1.2,0.1-1.8,0.2
							c-1,0-1.7-0.3-1.9-1c-0.4-2,3.5-6.7,3.2-10.3c0,0,0-0.1,0-0.1c0-0.4,0-0.7,0.1-1C5,23.6,6.3,22.2,7.9,20c0.7,1,7,0.8,4.5,9.2
							C11.5,31.7,14.6,33.2,14.7,35.3"/>
						<path style="fill:#E49863;" d="M14.4,35.7c0.7-0.1,1.4,0,2,0.2c0.6,0.3,1.8,1.1,1.6,1.5s-1.7,0.3-2.2-0.1s-1.1,0-1.8-0.4
							S14.4,35.7,14.4,35.7"/>
						<path style="fill:#A7D19F;" d="M11.9,13.9c0,0-5-0.6-6.3,1.7s-2,10.9-1.1,13.6s8,7.2,8.8,7.4c0.8,0.2,1.5-1,1.5-1.1
							s-7-7.5-6.9-8.2S11.8,13.9,11.9,13.9"/>
					</g>
				</g>
			</g>
			<g>
				<defs>
					<rect id="SVGID_00000036958217011904049220000007787057270566824381_" y="0" width="392.3" height="209.3"/>
				</defs>
				<clipPath id="SVGID_00000042006140577700370100000001484858790168375726_">
					<use xlink:href="#SVGID_00000036958217011904049220000007787057270566824381_"  style="overflow:visible;"/>
				</clipPath>
				<g style="clip-path:url(#SVGID_00000042006140577700370100000001484858790168375726_);">
					<path style="fill:#E49863;" d="M293.7,193l-1.8,7.6l-2.7,0l-0.1-7.6L293.7,193z"/>
					<path style="fill:#E49863;" d="M271.1,193.4l-5.1,7.3l-2-2.6l3.1-5.7L271.1,193.4z"/>
					<path style="fill:#1A355E;" d="M284.4,93.4c0.9-0.4,1.9-0.6,2.8-0.5c-0.2-0.1-0.4-0.2-0.6-0.3c0.5,0,1.1,0.2,1.6,0.4
						c6.7-2.6,7.8,7.3,7.6,9.6s2.3,3.1,5.8,4.9c6.7,3.5,7.3,8.1,7.3,8.1c-0.1,0-0.1,0.1-0.2,0.1c-0.3-0.6-1-1.6-1.6-1.8
						c0.3,0.7,0.7,1.5,0.9,2.3c-2,1.5-5.7,4.8-8.2,7.2c0-0.5,0-1-0.2-1.5l-0.3,1.9c-1.4,1.3-2.3,2.2-2.3,2.2
						c0.2-1.9-8.4-11.7-12.9-14.6c-0.8-1.4-1.3-3-1.5-4.7c0.1,1.4,0.4,2.9,0.9,4.2C279.7,107.4,281.9,94.8,284.4,93.4"/>
					<path style="fill:#E49863;" d="M284.3,111.5c1.2,0.6,2.5,0.9,3.8,0.7c1.1-0.5,2-1.3,2.5-2.4c-0.7-0.1-0.8-1-0.8-4.9l-0.3,0.1
						l-5,1c0,0,0.1,1.6,0.1,3C284.7,110.2,284.6,111.4,284.3,111.5"/>
					<path style="fill:#D58C5C;" d="M284.6,105.9c0,0,0.1,1.6,0.1,3c2.8-0.1,4.3-2.6,4.9-4L284.6,105.9z"/>
					<path style="fill:#1A355E;" d="M290.1,104.4c0.8-1.3,1.4-2.8,1.8-4.3c0.3-1.4-0.5-6.6-5.7-5.9c-1.1,0.1-2.1,0.5-3,1.1
						c-1.1,0.8-2.8,2.4-0.9,7l0.5,1.5L290.1,104.4z"/>
					<path style="fill:#AE00A9;" d="M264.8,196.1l2.6,0.1l2.9,0.1c4.6-5.6,8.1-12.1,10.3-19.1c0.1-0.3,0.2-0.6,0.3-0.8
						c2-5.9,6.2-13.3,8.4-20c0.4-1.1,0.7-2.1,1-3c0.1-0.3,0.2-0.6,0.3-0.9c1.3-4.4,2.1-8.8,2.5-13.4l-16,0.1
						C274.8,158.5,270.7,177.5,264.8,196.1"/>
					<path style="fill:#E7F0FA;" d="M279.3,129.9c0,7.6-1.1,10.9-1.1,10.9c4.7,2.1,10,2.4,15,0.9c0.1,0,6.1-1.2,6.1-1.2
						c-0.1-0.3-1.8-5.6-1.9-5.8c-1.1-2.1-1.8-4.3-2.2-6.6c-0.3-2.1-0.4-4.2-0.2-6.4c0.3-3.4,1-6.7,2-10c-2.2-0.6-4.4-1.4-6.6-2.3
						c-1,0.9-2.2,1.3-3.6,1.3c-1.6,0-2.1-0.7-2.1-1.5c-1.7,1-3.1,1.9-3.1,1.9c-1.5,2.5-4.4,5-4.7,8.9
						C276.9,121,279.3,129.7,279.3,129.9"/>
					<path style="fill:#6F98D0;" d="M270,118.7c2.3-2.7,8.4-8.7,14.7-9.4l-5.4,10.5c-0.2,1.2-0.9,2.2-1.9,2.9
						c-2.8,1.7-5.8,2.9-8.9,3.7c-2.8-1.3-5.5-3-8-4.9c-1.4-1.1-4-5.1-4-5.1l0.7-2.3c0,0,4.3,2.4,5.9,3.1c0.9,0.4,2.9,1.3,4.3,2
						C268.3,119.7,269.3,119.4,270,118.7"/>
					<path style="fill:#E49863;" d="M283.7,107.3c0,0,6.6,0.1,6.6-4s0.9-6.9-3.3-7.1s-5,1.3-5.4,2.7S281.9,107.1,283.7,107.3"/>
					<path style="fill:#1A355E;" d="M283.9,96.1c0,0,1.8,4.8,4.6,5.5s4,0,4,0c-1.4-1.2-2.3-2.8-2.6-4.6
						C289.9,97,285.3,93.8,283.9,96.1"/>
					<path style="fill:#1A355E;" d="M284.3,96.5c-0.7,0.6-1.3,1.3-1.7,2.1c-0.3,1-0.5,3.2-1.1,3.1c0,0-1.4-3.3,0.2-5.1
						C283.4,94.7,284.4,96.5,284.3,96.5"/>
					<path style="fill:#E49863;" d="M257.2,114.1c-0.6-2-2.6-3.2-4.6-2.9c-0.4,0.1-1.7,0.6-0.9,1.9c0.6,1,0.8,0.5,1.7,1.8
						c0.6,1.1,1.8,1.7,3,1.4L257.2,114.1z"/>
					<path style="fill:#E49863;" d="M292,200.2c-0.1,1,0,2.1,0.3,3.1c0,0,0.4,2-1.5,2c-2,0-2.5-0.1-2.2-1.4c0.2-1.2,0.7-3.4,0.7-3.4
						L292,200.2z"/>
					<path style="fill:#272F65;" d="M288.4,206.2c0,0,0.1,0,0.1,0.1h3.9c0,0,0.1,0,0.1-0.1c0.1-1,0.1-2-0.1-2.9
						c-2.2,2.1-3.6-0.1-3.6-0.1C288.5,204.2,288.4,205.2,288.4,206.2"/>
					<path style="fill:#E49863;" d="M259.2,204.2c1.7-1.9,3.3-4,4.8-6.1l2.7,1.4l-6.1,5.7l-1.4-0.2L259.2,204.2z"/>
					<path style="fill:#272F65;" d="M256.9,206.3h5c0.6-0.7,1.1-1.4,1.5-2.3c0.4-0.6,1-1,1.7-1.1v3.4h1l1-3.6
						c0.6-1.2,0.1-2.3-0.4-3.2c-0.5,0-2,0.4-4.6,3.4c-0.7,0.9-1.7,1.3-2.8,1.3c0,0,0,0,0,0C258.1,204.5,257.3,205.3,256.9,206.3"/>
					<path style="fill:#6F98D0;" d="M284.7,109.3c0,0-3.8,9.4-3.9,11.3c-0.1,1.9-0.4,31.2-0.4,31.2s0.2,1.3-2.4,0.8
						c-1.1-0.2-2.3-0.5-3.2-1.1c0,0,2.5-18,1.8-24.3c-0.7-6.3,5.2-16.5,5.2-16.5L284.7,109.3z"/>
					<g transform="translate(267.395 150.564)">
						<g>
							<defs>
								<rect id="SVGID_00000173132336907254288890000007595987047998381741_" x="0" y="0" width="23.1" height="45.7"/>
							</defs>
							<clipPath id="SVGID_00000162348324893865793470000000243362447070243969_">
								<use xlink:href="#SVGID_00000173132336907254288890000007595987047998381741_"  style="overflow:visible;"/>
							</clipPath>
							<g style="clip-path:url(#SVGID_00000162348324893865793470000000243362447070243969_);">
								<path style="fill:#AE00A9;" d="M0,45.6l2.9,0.1C7.5,40,11,33.5,13.1,26.6c0.1-0.3,0.2-0.6,0.3-0.8c2-5.9,6.2-13.3,8.4-20
									c0.4-1.1,0.7-2.1,1-3c0.1-0.3,0.2-0.6,0.3-0.9L20.7,0c0,0-7.1,11.4-9.2,22.2C9.6,31.5,2,42.8,0,45.6"/>
							</g>
						</g>
					</g>
					<path style="fill:#AE00A9;" d="M287.9,173.8c0,5.2,0.2,17.3,0.9,22.2h2.5c1.4,0,2.1,0,2.1,0c1.7-8.7,2.9-15.8,3.8-22
						c0.5-3.6,1-6.8,1.4-10.1c0.1-0.9,0.3-2,0.4-3.1c0.5-3.8,0.8-6.9,1-9.6c0-0.4,0-0.8,0-1.2s0-0.8,0-1.2l-13.8-1.3
						C286.5,156.7,287.9,170.7,287.9,173.8"/>
					<g transform="translate(291.297 151.262)">
						<g>
							<defs>
								<rect id="SVGID_00000065046141644431853890000002547487211384541362_" x="0" y="0" width="8.7" height="44.7"/>
							</defs>
							<clipPath id="SVGID_00000169539696370749698200000010252952584053248934_">
								<use xlink:href="#SVGID_00000065046141644431853890000002547487211384541362_"  style="overflow:visible;"/>
							</clipPath>
							<g style="clip-path:url(#SVGID_00000169539696370749698200000010252952584053248934_);">
								<path style="fill:#AE00A9;" d="M0,44.7c1.4,0,2.1,0,2.1,0c1.7-8.7,2.9-15.8,3.8-22c0.7-5.1,1.4-9.4,1.9-13.1
									c0.5-3.8,0.8-6.9,1-9.6L3.7,3c0,0,3.2,1.1,2,9.8S1.7,43.5,0,44.7"/>
							</g>
						</g>
					</g>
					<path style="fill:#6F98D0;" d="M290.6,151.2c0,0,1,3.5,4.3,3.1c2.8-0.5,5.5-1.4,8.1-2.5c0,0-1.4-4.5-3.2-10.5
						c-2.2-7.2-4.8-16.5-6.1-22.4c-0.3-1.3-0.5-2.7-0.7-4l-2.8-5.4c0,0-4.2,9.3-4.4,11.7S290.7,151.2,290.6,151.2"/>
					<path style="fill:#4B72B6;" d="M290.8,126.1c0.2,3.8,1,11.2,9,15.2l0.1,0c-2.2-7.2-4.8-16.5-6.1-22.4
						C292.3,121.1,290.7,124,290.8,126.1"/>
					
						<rect x="247.8" y="94.2" transform="matrix(0.7071 -0.7071 0.7071 0.7071 1.4862 206.1514)" style="fill:#272F65;" width="3.6" height="14.2"/>
					<path style="fill:#272F65;" d="M308.6,159.4l-0.9,0.9c-1.7,1.7-4.5,1.7-6.3,0c0,0,0,0,0,0l-49.1-49.1c-1.7-1.7-1.7-4.5,0-6.3
						c0,0,0,0,0,0l0.9-0.9c1.7-1.7,4.5-1.7,6.3,0c0,0,0,0,0,0l0,0l49.1,49.1C310.3,154.9,310.3,157.7,308.6,159.4"/>
					<path style="fill:#272F65;" d="M185.2,36.9c-16.4,16.4-16.4,42.9,0,59.3s42.9,16.4,59.3,0s16.4-42.9,0-59.3c0,0,0,0,0,0
						C228.1,20.5,201.6,20.5,185.2,36.9L185.2,36.9 M241.2,92.9c-14.6,14.6-38.2,14.6-52.8,0c-14.6-14.6-14.6-38.2,0-52.8
						c14.6-14.6,38.2-14.6,52.8,0C255.8,54.7,255.8,78.4,241.2,92.9C241.2,92.9,241.2,92.9,241.2,92.9L241.2,92.9"/>
					<path style="fill:#E49863;" d="M294,120.8l-3.7-11.3c2.4,0.7,4.7,1.6,7,2.6c1.2,1.9,2,4,2.4,6.2c0,0,1,10.4-1.2,14.2
						c0,0-6.7,1.3-17.5-2.4v-2.5c0,0,11.8,0.6,14.2,0.9L294,120.8z"/>
					<path style="fill:#6F98D0;" d="M290.3,109.5c0,0,6.8,0.5,8.5,4.1s2.2,15.8,0.1,19.4c0,0-2.9,0.8-8-0.1l-0.2,0c0,0-1.6-4-0.2-4.8
						c0,0,4.3,0.2,3.8-1.2C293.9,125.5,290.3,109.4,290.3,109.5"/>
					<path style="fill:#E49863;" d="M282.2,128.3c-0.5-0.7-0.9-1.5-1.1-2.3c-0.1-1.3-1.2-2.2-2.4-2.2c-1.6-0.2-2.3-0.2-2.3,0.2
						c0.7,2.2,1.9,4.1,3.6,5.5C282.3,131.4,282.2,128.3,282.2,128.3"/>
					<g transform="translate(181.402 32.819)" style="opacity:0.4;">
						<g>
							<defs>
								<rect id="SVGID_00000146468087843739806050000007957292152824093056_" x="0" y="0" width="54.7" height="54.7"/>
							</defs>
							<clipPath id="SVGID_00000051366902849555645130000005724178064103354288_">
								<use xlink:href="#SVGID_00000146468087843739806050000007957292152824093056_"  style="overflow:visible;"/>
							</clipPath>
							<g style="clip-path:url(#SVGID_00000051366902849555645130000005724178064103354288_);">
								<g>
									<defs>
										<rect id="SVGID_00000056423785064603696450000007642813055932141963_" x="0" y="0" width="54.7" height="54.7"/>
									</defs>
									<clipPath id="SVGID_00000010296771263828190860000006010217354789274780_">
										<use xlink:href="#SVGID_00000056423785064603696450000007642813055932141963_"  style="overflow:visible;"/>
									</clipPath>
									<g style="clip-path:url(#SVGID_00000010296771263828190860000006010217354789274780_);">
										<path style="fill:#FFFFFF;" d="M50,0L0,50c0.8,1.6,1.7,3.2,2.8,4.7L54.7,2.8C53.2,1.7,51.6,0.8,50,0"/>
									</g>
								</g>
							</g>
						</g>
					</g>
					<g transform="translate(177.562 28.969)" style="opacity:0.4;">
						<g>
							<defs>
								<rect id="SVGID_00000077326435482575031190000001203959003318068119_" x="0" y="0" width="50.4" height="50.4"/>
							</defs>
							<clipPath id="SVGID_00000063612484787357594870000009277195940471387795_">
								<use xlink:href="#SVGID_00000077326435482575031190000001203959003318068119_"  style="overflow:visible;"/>
							</clipPath>
							<g style="clip-path:url(#SVGID_00000063612484787357594870000009277195940471387795_);">
								<g transform="translate(0 0.011)">
									<g>
										<defs>
											<rect id="SVGID_00000167388057586092928960000012514304090539586441_" x="0" y="0" width="50.4" height="50.4"/>
										</defs>
										<clipPath id="SVGID_00000106848641903926852690000014821078889155346596_">
											<use xlink:href="#SVGID_00000167388057586092928960000012514304090539586441_"  style="overflow:visible;"/>
										</clipPath>
										<g style="clip-path:url(#SVGID_00000106848641903926852690000014821078889155346596_);">
											<path style="fill:#FFFFFF;" d="M50.4,2.4C31.1-4.9,9.6,5,2.4,24.3c-3.1,8.4-3.1,17.7,0,26.1L50.4,2.4z"/>
										</g>
									</g>
								</g>
							</g>
						</g>
					</g>
					<g transform="translate(198.348 49.766)" style="opacity:0.4;">
						<g>
							<defs>
								<rect id="SVGID_00000018237227684264764000000013336790803384503172_" x="0" y="0" width="53.8" height="53.9"/>
							</defs>
							<clipPath id="SVGID_00000003104650951858962870000017578949178317431179_">
								<use xlink:href="#SVGID_00000018237227684264764000000013336790803384503172_"  style="overflow:visible;"/>
							</clipPath>
							<g style="clip-path:url(#SVGID_00000003104650951858962870000017578949178317431179_);">
								<g>
									<defs>
										<rect id="SVGID_00000076582011417465452060000004445271258259013527_" x="0" y="0" width="53.8" height="53.8"/>
									</defs>
									<clipPath id="SVGID_00000036225316562687005440000007967342145667822247_">
										<use xlink:href="#SVGID_00000076582011417465452060000004445271258259013527_"  style="overflow:visible;"/>
									</clipPath>
									<g style="clip-path:url(#SVGID_00000036225316562687005440000007967342145667822247_);">
										<path style="fill:#FFFFFF;" d="M0,50c18.5,9.1,40.9,1.5,50-17c5.1-10.4,5.1-22.6,0-33L0,50z"/>
									</g>
								</g>
							</g>
						</g>
					</g>
					<path style="fill:#93378B;" d="M6.8,209.3h378.7c0.2,0,0.3-0.7,0.3-1.5s-0.2-1.5-0.3-1.5H6.8c-0.2,0-0.3,0.7-0.3,1.5
						S6.6,209.3,6.8,209.3"/>
				</g>
			</g>
		</g>
	</g>
</svg>
